%TF.GenerationSoftware,KiCad,Pcbnew,10.0.3*%
%TF.CreationDate,2026-09-23T10:30:01-05:00*%
%TF.ProjectId,acople_sp32,61636f70-6c65-45f7-9370-33322e6b6963,rev?*%
%TF.SameCoordinates,Original*%
%TF.FileFunction,Other,User*%
%FSLAX46Y46*%
G04 Gerber Fmt 4.6, Leading zero omitted, Abs format (unit mm)*
G04 Created by KiCad (PCBNEW 10.0.3) date 2026-09-23 10:30:01*
%MOMM*%
%LPD*%
G01*
G04 APERTURE LIST*
%ADD10C,0.050000*%
G04 APERTURE END LIST*
%TO.C,C3*%
D10*
X147480000Y-119020000D02*
X150880000Y-119020000D01*
X150880000Y-120980000D01*
X147480000Y-120980000D01*
X147480000Y-119020000D01*
%TO.C,C5*%
X140670000Y-128760000D02*
X142630000Y-128760000D01*
X142630000Y-132160000D01*
X140670000Y-132160000D01*
X140670000Y-128760000D01*
%TO.C,J_DIP40*%
X92450000Y-94390000D02*
X143760000Y-94390000D01*
X143760000Y-111730000D01*
X92450000Y-111730000D01*
X92450000Y-94390000D01*
%TO.C,R2*%
X147507500Y-116060000D02*
X150867500Y-116060000D01*
X150867500Y-117960000D01*
X147507500Y-117960000D01*
X147507500Y-116060000D01*
%TO.C,R4*%
X151850000Y-128920000D02*
X153750000Y-128920000D01*
X153750000Y-132280000D01*
X151850000Y-132280000D01*
X151850000Y-128920000D01*
%TO.C,R6*%
X138240000Y-128770000D02*
X140140000Y-128770000D01*
X140140000Y-132130000D01*
X138240000Y-132130000D01*
X138240000Y-128770000D01*
%TO.C,R5*%
X145780000Y-132940000D02*
X149140000Y-132940000D01*
X149140000Y-134840000D01*
X145780000Y-134840000D01*
X145780000Y-132940000D01*
%TO.C,J4*%
X89190000Y-82804000D02*
X105430000Y-82804000D01*
X105430000Y-86344000D01*
X89190000Y-86344000D01*
X89190000Y-82804000D01*
%TO.C,C1*%
X93780000Y-113040000D02*
X97180000Y-113040000D01*
X97180000Y-115000000D01*
X93780000Y-115000000D01*
X93780000Y-113040000D01*
%TO.C,C9*%
X90710000Y-128360000D02*
X94110000Y-128360000D01*
X94110000Y-130320000D01*
X90710000Y-130320000D01*
X90710000Y-128360000D01*
%TO.C,J5*%
X86750000Y-139830000D02*
X108070000Y-139830000D01*
X108070000Y-143370000D01*
X86750000Y-143370000D01*
X86750000Y-139830000D01*
%TO.C,C2*%
X101780000Y-113040000D02*
X105180000Y-113040000D01*
X105180000Y-115000000D01*
X101780000Y-115000000D01*
X101780000Y-113040000D01*
%TO.C,C11*%
X152180000Y-121970000D02*
X154140000Y-121970000D01*
X154140000Y-125370000D01*
X152180000Y-125370000D01*
X152180000Y-121970000D01*
%TO.C,C10*%
X138220000Y-124160000D02*
X140180000Y-124160000D01*
X140180000Y-127560000D01*
X138220000Y-127560000D01*
X138220000Y-124160000D01*
%TO.C,J2*%
X140500000Y-87990000D02*
X154200000Y-87990000D01*
X154200000Y-94080000D01*
X140500000Y-94080000D01*
X140500000Y-87990000D01*
%TO.C,C14*%
X140780000Y-124160000D02*
X142740000Y-124160000D01*
X142740000Y-127560000D01*
X140780000Y-127560000D01*
X140780000Y-124160000D01*
%TO.C,U2*%
X143485000Y-121955000D02*
X144985000Y-121955000D01*
X143485000Y-131955000D02*
X143485000Y-121955000D01*
X144985000Y-121755000D02*
X149385000Y-121755000D01*
X144985000Y-121955000D02*
X144985000Y-121755000D01*
X144985000Y-131955000D02*
X143485000Y-131955000D01*
X144985000Y-132155000D02*
X144985000Y-131955000D01*
X149385000Y-121755000D02*
X149385000Y-121955000D01*
X149385000Y-121955000D02*
X150885000Y-121955000D01*
X149385000Y-131955000D02*
X149385000Y-132155000D01*
X149385000Y-132155000D02*
X144985000Y-132155000D01*
X150885000Y-121955000D02*
X150885000Y-131955000D01*
X150885000Y-131955000D02*
X149385000Y-131955000D01*
%TO.C,R7*%
X104560000Y-132610000D02*
X106460000Y-132610000D01*
X106460000Y-135970000D01*
X104560000Y-135970000D01*
X104560000Y-132610000D01*
%TO.C,Q1*%
X139062500Y-116270000D02*
X140092500Y-116270000D01*
X139062500Y-117380000D02*
X139062500Y-116270000D01*
X139062500Y-118160000D02*
X140092500Y-118160000D01*
X139062500Y-119270000D02*
X139062500Y-118160000D01*
X140092500Y-116070000D02*
X141892500Y-116070000D01*
X140092500Y-116270000D02*
X140092500Y-116070000D01*
X140092500Y-117380000D02*
X139062500Y-117380000D01*
X140092500Y-118160000D02*
X140092500Y-117380000D01*
X140092500Y-119270000D02*
X139062500Y-119270000D01*
X140092500Y-119470000D02*
X140092500Y-119270000D01*
X141892500Y-116070000D02*
X141892500Y-117220000D01*
X141892500Y-117220000D02*
X142922500Y-117220000D01*
X141892500Y-118320000D02*
X141892500Y-119470000D01*
X141892500Y-119470000D02*
X140092500Y-119470000D01*
X142922500Y-117220000D02*
X142922500Y-118320000D01*
X142922500Y-118320000D02*
X141892500Y-118320000D01*
%TO.C,U4*%
X95885000Y-125315000D02*
X102885000Y-125315000D01*
X102885000Y-136415000D01*
X95885000Y-136415000D01*
X95885000Y-125315000D01*
%TO.C,C6*%
X104420000Y-125190000D02*
X107820000Y-125190000D01*
X107820000Y-127150000D01*
X104420000Y-127150000D01*
X104420000Y-125190000D01*
%TO.C,FB1*%
X139177500Y-122040000D02*
X142677500Y-122040000D01*
X142677500Y-123740000D01*
X139177500Y-123740000D01*
X139177500Y-122040000D01*
%TO.C,C4*%
X143770000Y-118980000D02*
X147170000Y-118980000D01*
X147170000Y-120940000D01*
X143770000Y-120940000D01*
X143770000Y-118980000D01*
%TO.C,C13*%
X141080000Y-133160000D02*
X143040000Y-133160000D01*
X143040000Y-136560000D01*
X141080000Y-136560000D01*
X141080000Y-133160000D01*
%TO.C,C12*%
X138190000Y-136910000D02*
X140150000Y-136910000D01*
X140150000Y-140310000D01*
X138190000Y-140310000D01*
X138190000Y-136910000D01*
%TO.C,U1*%
X113700000Y-142600000D02*
X113700000Y-122400000D01*
X113700000Y-142600000D02*
X133200000Y-142600000D01*
X133200000Y-122400000D02*
X113700000Y-122400000D01*
X133200000Y-122400000D02*
X133200000Y-142600000D01*
%TO.C,J10*%
X140520000Y-139920000D02*
X154220000Y-139920000D01*
X154220000Y-143460000D01*
X140520000Y-143460000D01*
X140520000Y-139920000D01*
%TO.C,R8*%
X106880000Y-132610000D02*
X108780000Y-132610000D01*
X108780000Y-135970000D01*
X106880000Y-135970000D01*
X106880000Y-132610000D01*
%TO.C,R1*%
X143557500Y-116090000D02*
X146917500Y-116090000D01*
X146917500Y-117990000D01*
X143557500Y-117990000D01*
X143557500Y-116090000D01*
%TO.C,U3*%
X96160000Y-115480000D02*
X96160000Y-124280000D01*
X96160000Y-124280000D02*
X103360000Y-124280000D01*
X103360000Y-115480000D02*
X96160000Y-115480000D01*
X103360000Y-124280000D02*
X103360000Y-115480000D01*
%TO.C,C7*%
X104420000Y-128190000D02*
X107820000Y-128190000D01*
X107820000Y-130150000D01*
X104420000Y-130150000D01*
X104420000Y-128190000D01*
%TO.C,C8*%
X90710000Y-125360000D02*
X94110000Y-125360000D01*
X94110000Y-127320000D01*
X90710000Y-127320000D01*
X90710000Y-125360000D01*
%TO.C,J_PROG1*%
X126820000Y-104440000D02*
X143060000Y-104440000D01*
X143060000Y-107980000D01*
X126820000Y-107980000D01*
X126820000Y-104440000D01*
%TD*%
M02*
