M48
; DRILL file KiCad 10.0.3 date 2026-09-23T10:30:22
; FORMAT={-:-/ absolute / metric / decimal}
; #@! TF.CreationDate,2026-09-23T10:30:22-05:00
; #@! TF.GenerationSoftware,Kicad,Pcbnew,10.0.3
; #@! TF.FileFunction,Plated,1,2,PTH
FMAT,2
METRIC
; #@! TA.AperFunction,Plated,PTH,ComponentDrill
T1C0.200
; #@! TA.AperFunction,Plated,PTH,ViaDrill
T2C0.300
; #@! TA.AperFunction,Plated,PTH,ViaDrill
T3C0.350
; #@! TA.AperFunction,Plated,PTH,ViaDrill
T4C0.400
; #@! TA.AperFunction,Plated,PTH,ComponentDrill
T5C0.800
; #@! TA.AperFunction,Plated,PTH,ComponentDrill
T6C1.000
%
G90
G05
T1
X123.55Y-132.74
X123.55Y-134.14
X124.25Y-132.04
X124.25Y-133.44
X124.25Y-134.84
X124.95Y-132.74
X124.95Y-134.14
X125.65Y-132.04
X125.65Y-133.44
X125.65Y-134.84
X126.35Y-132.74
X126.35Y-134.14
T2
X104.788Y-131.807
X108.032Y-105.41
X108.152Y-128.936
X108.624Y-127.631
X109.251Y-112.94
X110.713Y-116.15
X112.41Y-122.3
X113.371Y-136.128
X113.407Y-129.297
X114.355Y-121.66
X116.134Y-133.91
X116.163Y-127.89
X116.631Y-131.883
X118.186Y-117.684
X118.833Y-114.14
X121.275Y-108.96
X128.101Y-124.828
X128.849Y-128.034
X133.43Y-115.22
X134.602Y-130.95
X135.407Y-130.127
X136.04Y-125.858
X136.472Y-114.695
X138.73Y-119.75
X140.443Y-125.86
X141.177Y-120.492
X146.196Y-110.23
X147.411Y-128.413
X148.155Y-122.76
X148.165Y-128.68
T3
X88.0Y-86.0
X88.0Y-96.0
X88.0Y-106.0
X88.0Y-116.0
X88.0Y-126.0
X88.0Y-136.0
X89.66Y-84.574
X90.5Y-91.0
X90.5Y-101.0
X90.5Y-111.0
X92.2Y-84.574
X93.0Y-136.0
X94.66Y-126.34
X94.66Y-129.34
X95.5Y-101.0
X95.5Y-121.0
X97.73Y-114.02
X99.385Y-127.965
X99.78Y-140.5
X100.5Y-91.0
X102.32Y-140.5
X103.16Y-117.83
X105.633Y-121.847
X105.86Y-108.83
X106.3Y-140.3
X106.48Y-124.39
X108.0Y-136.0
X110.26Y-105.23
X110.5Y-91.0
X111.76Y-98.77
X116.0Y-141.005
X116.471Y-117.029
X120.5Y-91.0
X121.584Y-115.831
X122.05Y-136.34
X122.45Y-133.04
X123.25Y-134.84
X124.355Y-106.683
X124.46Y-112.67
X124.55Y-130.94
X125.25Y-135.94
X125.5Y-91.0
X126.35Y-131.44
X127.45Y-133.04
X127.895Y-114.315
X130.29Y-102.89
X130.5Y-91.0
X131.89Y-119.6
X132.2Y-108.26
X133.5Y-141.005
X134.437Y-108.117
X134.71Y-118.32
X135.5Y-91.0
X135.5Y-101.0
X136.734Y-124.356
X139.17Y-140.86
X140.56Y-124.14
X142.933Y-119.33
X143.36Y-135.81
X143.41Y-127.59
X145.36Y-114.05
X145.5Y-101.0
X146.25Y-124.9
X148.0Y-106.0
X150.5Y-111.0
X153.16Y-125.92
T4
X101.76Y-119.53
X102.72Y-137.258
X138.06Y-128.162
X139.803Y-127.979
X146.279Y-123.005
T5
X93.98Y-95.44
X93.98Y-110.68
X96.52Y-95.44
X96.52Y-110.68
X99.06Y-95.44
X99.06Y-110.68
X101.6Y-95.44
X101.6Y-110.68
X104.14Y-95.44
X104.14Y-110.68
X106.68Y-95.44
X106.68Y-110.68
X109.22Y-95.44
X109.22Y-110.68
X111.76Y-95.44
X111.76Y-110.68
X114.3Y-95.44
X114.3Y-110.68
X116.84Y-95.44
X116.84Y-110.68
X119.38Y-95.44
X119.38Y-110.68
X121.92Y-95.44
X121.92Y-110.68
X124.46Y-95.44
X124.46Y-110.68
X127.0Y-95.44
X127.0Y-110.68
X129.54Y-95.44
X129.54Y-110.68
X132.08Y-95.44
X132.08Y-110.68
X134.62Y-95.44
X134.62Y-110.68
X137.16Y-95.44
X137.16Y-110.68
X139.7Y-95.44
X139.7Y-110.68
X142.24Y-95.44
X142.24Y-110.68
T6
X88.52Y-141.6
X90.96Y-84.574
X91.06Y-141.6
X93.5Y-84.574
X93.6Y-141.6
X96.04Y-84.574
X96.14Y-141.6
X98.58Y-84.574
X98.68Y-141.6
X101.12Y-84.574
X101.22Y-141.6
X103.66Y-84.574
X103.76Y-141.6
X106.3Y-141.6
X128.59Y-106.21
X131.13Y-106.21
X133.67Y-106.21
X136.21Y-106.21
X138.75Y-106.21
X141.29Y-106.21
X142.27Y-89.76
X142.27Y-92.3
X142.29Y-141.69
X144.81Y-89.76
X144.81Y-92.3
X144.83Y-141.69
X147.35Y-89.76
X147.35Y-92.3
X147.37Y-141.69
X149.89Y-89.76
X149.89Y-92.3
X149.91Y-141.69
X152.43Y-89.76
X152.43Y-92.3
X152.45Y-141.69
M30
