%TF.GenerationSoftware,KiCad,Pcbnew,10.0.3*%
%TF.CreationDate,2026-09-23T10:30:01-05:00*%
%TF.ProjectId,acople_sp32,61636f70-6c65-45f7-9370-33322e6b6963,rev?*%
%TF.SameCoordinates,Original*%
%TF.FileFunction,Soldermask,Bot*%
%TF.FilePolarity,Negative*%
%FSLAX46Y46*%
G04 Gerber Fmt 4.6, Leading zero omitted, Abs format (unit mm)*
G04 Created by KiCad (PCBNEW 10.0.3) date 2026-09-23 10:30:01*
%MOMM*%
%LPD*%
G01*
G04 APERTURE LIST*
G04 Aperture macros list*
%AMRoundRect*
0 Rectangle with rounded corners*
0 $1 Rounding radius*
0 $2 $3 $4 $5 $6 $7 $8 $9 X,Y pos of 4 corners*
0 Add a 4 corners polygon primitive as box body*
4,1,4,$2,$3,$4,$5,$6,$7,$8,$9,$2,$3,0*
0 Add four circle primitives for the rounded corners*
1,1,$1+$1,$2,$3*
1,1,$1+$1,$4,$5*
1,1,$1+$1,$6,$7*
1,1,$1+$1,$8,$9*
0 Add four rect primitives between the rounded corners*
20,1,$1+$1,$2,$3,$4,$5,0*
20,1,$1+$1,$4,$5,$6,$7,0*
20,1,$1+$1,$6,$7,$8,$9,0*
20,1,$1+$1,$8,$9,$2,$3,0*%
G04 Aperture macros list end*
%ADD10RoundRect,0.250000X0.550000X-0.550000X0.550000X0.550000X-0.550000X0.550000X-0.550000X-0.550000X0*%
%ADD11C,1.600000*%
%ADD12R,1.700000X1.700000*%
%ADD13C,1.700000*%
G04 APERTURE END LIST*
D10*
%TO.C,J_DIP40*%
X93980000Y-110680000D03*
D11*
X96520000Y-110680000D03*
X99060000Y-110680000D03*
X101600000Y-110680000D03*
X104140000Y-110680000D03*
X106680000Y-110680000D03*
X109220000Y-110680000D03*
X111760000Y-110680000D03*
X114300000Y-110680000D03*
X116840000Y-110680000D03*
X119380000Y-110680000D03*
X121920000Y-110680000D03*
X124460000Y-110680000D03*
X127000000Y-110680000D03*
X129540000Y-110680000D03*
X132080000Y-110680000D03*
X134620000Y-110680000D03*
X137160000Y-110680000D03*
X139700000Y-110680000D03*
X142240000Y-110680000D03*
X142240000Y-95440000D03*
X139700000Y-95440000D03*
X137160000Y-95440000D03*
X134620000Y-95440000D03*
X132080000Y-95440000D03*
X129540000Y-95440000D03*
X127000000Y-95440000D03*
X124460000Y-95440000D03*
X121920000Y-95440000D03*
X119380000Y-95440000D03*
X116840000Y-95440000D03*
X114300000Y-95440000D03*
X111760000Y-95440000D03*
X109220000Y-95440000D03*
X106680000Y-95440000D03*
X104140000Y-95440000D03*
X101600000Y-95440000D03*
X99060000Y-95440000D03*
X96520000Y-95440000D03*
X93980000Y-95440000D03*
%TD*%
D12*
%TO.C,J4*%
X103660000Y-84574000D03*
D13*
X101120000Y-84574000D03*
X98580000Y-84574000D03*
X96040000Y-84574000D03*
X93500000Y-84574000D03*
X90960000Y-84574000D03*
%TD*%
D12*
%TO.C,J5*%
X88520000Y-141600000D03*
D13*
X91060000Y-141600000D03*
X93600000Y-141600000D03*
X96140000Y-141600000D03*
X98680000Y-141600000D03*
X101220000Y-141600000D03*
X103760000Y-141600000D03*
X106300000Y-141600000D03*
%TD*%
D12*
%TO.C,J2*%
X152430000Y-89760000D03*
D13*
X152430000Y-92300000D03*
X149890000Y-89760000D03*
X149890000Y-92300000D03*
X147350000Y-89760000D03*
X147350000Y-92300000D03*
X144810000Y-89760000D03*
X144810000Y-92300000D03*
X142270000Y-89760000D03*
X142270000Y-92300000D03*
%TD*%
D12*
%TO.C,J10*%
X142290000Y-141690000D03*
D13*
X144830000Y-141690000D03*
X147370000Y-141690000D03*
X149910000Y-141690000D03*
X152450000Y-141690000D03*
%TD*%
D12*
%TO.C,J_PROG1*%
X128590000Y-106210000D03*
D13*
X131130000Y-106210000D03*
X133670000Y-106210000D03*
X136210000Y-106210000D03*
X138750000Y-106210000D03*
X141290000Y-106210000D03*
%TD*%
M02*
