%TF.GenerationSoftware,KiCad,Pcbnew,10.0.3*%
%TF.CreationDate,2026-09-23T10:30:22-05:00*%
%TF.ProjectId,acople_sp32,61636f70-6c65-45f7-9370-33322e6b6963,rev?*%
%TF.SameCoordinates,Original*%
%TF.FileFunction,Drillmap*%
%TF.FilePolarity,Positive*%
%FSLAX45Y45*%
G04 Gerber Fmt 4.5, Leading zero omitted, Abs format (unit mm)*
G04 Created by KiCad (PCBNEW 10.0.3) date 2026-09-23 10:30:22*
%MOMM*%
%LPD*%
G01*
G04 APERTURE LIST*
%ADD10C,0.050000*%
%ADD11C,0.200000*%
G04 APERTURE END LIST*
D10*
X8398000Y-8221000D02*
X10730000Y-8221000D01*
X8398000Y-14417000D02*
X8398000Y-8221000D01*
X8398000Y-14417000D02*
X15624000Y-14417000D01*
X10730000Y-8221000D02*
X10730000Y-8750000D01*
X15624000Y-8750000D02*
X10730000Y-8750000D01*
X15624000Y-14417000D02*
X15624000Y-8750000D01*
D11*
X8656277Y-14730984D02*
X8656277Y-14530984D01*
X8656277Y-14530984D02*
X8703896Y-14530984D01*
X8703896Y-14530984D02*
X8732467Y-14540508D01*
X8732467Y-14540508D02*
X8751515Y-14559555D01*
X8751515Y-14559555D02*
X8761039Y-14578603D01*
X8761039Y-14578603D02*
X8770563Y-14616698D01*
X8770563Y-14616698D02*
X8770563Y-14645269D01*
X8770563Y-14645269D02*
X8761039Y-14683365D01*
X8761039Y-14683365D02*
X8751515Y-14702412D01*
X8751515Y-14702412D02*
X8732467Y-14721460D01*
X8732467Y-14721460D02*
X8703896Y-14730984D01*
X8703896Y-14730984D02*
X8656277Y-14730984D01*
X8856277Y-14730984D02*
X8856277Y-14597650D01*
X8856277Y-14635746D02*
X8865801Y-14616698D01*
X8865801Y-14616698D02*
X8875324Y-14607174D01*
X8875324Y-14607174D02*
X8894372Y-14597650D01*
X8894372Y-14597650D02*
X8913420Y-14597650D01*
X8980086Y-14730984D02*
X8980086Y-14597650D01*
X8980086Y-14530984D02*
X8970563Y-14540508D01*
X8970563Y-14540508D02*
X8980086Y-14550031D01*
X8980086Y-14550031D02*
X8989610Y-14540508D01*
X8989610Y-14540508D02*
X8980086Y-14530984D01*
X8980086Y-14530984D02*
X8980086Y-14550031D01*
X9103896Y-14730984D02*
X9084848Y-14721460D01*
X9084848Y-14721460D02*
X9075324Y-14702412D01*
X9075324Y-14702412D02*
X9075324Y-14530984D01*
X9208658Y-14730984D02*
X9189610Y-14721460D01*
X9189610Y-14721460D02*
X9180086Y-14702412D01*
X9180086Y-14702412D02*
X9180086Y-14530984D01*
X9437229Y-14730984D02*
X9437229Y-14530984D01*
X9437229Y-14530984D02*
X9503896Y-14673841D01*
X9503896Y-14673841D02*
X9570563Y-14530984D01*
X9570563Y-14530984D02*
X9570563Y-14730984D01*
X9751515Y-14730984D02*
X9751515Y-14626222D01*
X9751515Y-14626222D02*
X9741991Y-14607174D01*
X9741991Y-14607174D02*
X9722944Y-14597650D01*
X9722944Y-14597650D02*
X9684848Y-14597650D01*
X9684848Y-14597650D02*
X9665801Y-14607174D01*
X9751515Y-14721460D02*
X9732467Y-14730984D01*
X9732467Y-14730984D02*
X9684848Y-14730984D01*
X9684848Y-14730984D02*
X9665801Y-14721460D01*
X9665801Y-14721460D02*
X9656277Y-14702412D01*
X9656277Y-14702412D02*
X9656277Y-14683365D01*
X9656277Y-14683365D02*
X9665801Y-14664317D01*
X9665801Y-14664317D02*
X9684848Y-14654793D01*
X9684848Y-14654793D02*
X9732467Y-14654793D01*
X9732467Y-14654793D02*
X9751515Y-14645269D01*
X9846753Y-14597650D02*
X9846753Y-14797650D01*
X9846753Y-14607174D02*
X9865801Y-14597650D01*
X9865801Y-14597650D02*
X9903896Y-14597650D01*
X9903896Y-14597650D02*
X9922944Y-14607174D01*
X9922944Y-14607174D02*
X9932467Y-14616698D01*
X9932467Y-14616698D02*
X9941991Y-14635746D01*
X9941991Y-14635746D02*
X9941991Y-14692888D01*
X9941991Y-14692888D02*
X9932467Y-14711936D01*
X9932467Y-14711936D02*
X9922944Y-14721460D01*
X9922944Y-14721460D02*
X9903896Y-14730984D01*
X9903896Y-14730984D02*
X9865801Y-14730984D01*
X9865801Y-14730984D02*
X9846753Y-14721460D01*
X10027705Y-14711936D02*
X10037229Y-14721460D01*
X10037229Y-14721460D02*
X10027705Y-14730984D01*
X10027705Y-14730984D02*
X10018182Y-14721460D01*
X10018182Y-14721460D02*
X10027705Y-14711936D01*
X10027705Y-14711936D02*
X10027705Y-14730984D01*
X10027705Y-14607174D02*
X10037229Y-14616698D01*
X10037229Y-14616698D02*
X10027705Y-14626222D01*
X10027705Y-14626222D02*
X10018182Y-14616698D01*
X10018182Y-14616698D02*
X10027705Y-14607174D01*
X10027705Y-14607174D02*
X10027705Y-14626222D01*
M02*
