%TF.GenerationSoftware,KiCad,Pcbnew,10.0.3*%
%TF.CreationDate,2026-09-23T10:30:01-05:00*%
%TF.ProjectId,acople_sp32,61636f70-6c65-45f7-9370-33322e6b6963,rev?*%
%TF.SameCoordinates,Original*%
%TF.FileFunction,AssemblyDrawing,Top*%
%FSLAX46Y46*%
G04 Gerber Fmt 4.6, Leading zero omitted, Abs format (unit mm)*
G04 Created by KiCad (PCBNEW 10.0.3) date 2026-09-23 10:30:01*
%MOMM*%
%LPD*%
G01*
G04 APERTURE LIST*
%ADD10C,0.150000*%
%ADD11C,0.080000*%
%ADD12C,0.110000*%
%ADD13C,0.120000*%
%ADD14C,0.100000*%
G04 APERTURE END LIST*
D10*
X147537143Y-121134819D02*
X147632381Y-121134819D01*
X147632381Y-121134819D02*
X147727619Y-121182438D01*
X147727619Y-121182438D02*
X147775238Y-121230057D01*
X147775238Y-121230057D02*
X147822857Y-121325295D01*
X147822857Y-121325295D02*
X147870476Y-121515771D01*
X147870476Y-121515771D02*
X147870476Y-121753866D01*
X147870476Y-121753866D02*
X147822857Y-121944342D01*
X147822857Y-121944342D02*
X147775238Y-122039580D01*
X147775238Y-122039580D02*
X147727619Y-122087200D01*
X147727619Y-122087200D02*
X147632381Y-122134819D01*
X147632381Y-122134819D02*
X147537143Y-122134819D01*
X147537143Y-122134819D02*
X147441905Y-122087200D01*
X147441905Y-122087200D02*
X147394286Y-122039580D01*
X147394286Y-122039580D02*
X147346667Y-121944342D01*
X147346667Y-121944342D02*
X147299048Y-121753866D01*
X147299048Y-121753866D02*
X147299048Y-121515771D01*
X147299048Y-121515771D02*
X147346667Y-121325295D01*
X147346667Y-121325295D02*
X147394286Y-121230057D01*
X147394286Y-121230057D02*
X147441905Y-121182438D01*
X147441905Y-121182438D02*
X147537143Y-121134819D01*
X148299048Y-122039580D02*
X148346667Y-122087200D01*
X148346667Y-122087200D02*
X148299048Y-122134819D01*
X148299048Y-122134819D02*
X148251429Y-122087200D01*
X148251429Y-122087200D02*
X148299048Y-122039580D01*
X148299048Y-122039580D02*
X148299048Y-122134819D01*
X149299047Y-122134819D02*
X148727619Y-122134819D01*
X149013333Y-122134819D02*
X149013333Y-121134819D01*
X149013333Y-121134819D02*
X148918095Y-121277676D01*
X148918095Y-121277676D02*
X148822857Y-121372914D01*
X148822857Y-121372914D02*
X148727619Y-121420533D01*
X150156190Y-121468152D02*
X150156190Y-122134819D01*
X149727619Y-121468152D02*
X149727619Y-121991961D01*
X149727619Y-121991961D02*
X149775238Y-122087200D01*
X149775238Y-122087200D02*
X149870476Y-122134819D01*
X149870476Y-122134819D02*
X150013333Y-122134819D01*
X150013333Y-122134819D02*
X150108571Y-122087200D01*
X150108571Y-122087200D02*
X150156190Y-122039580D01*
X150965714Y-121611009D02*
X150632381Y-121611009D01*
X150632381Y-122134819D02*
X150632381Y-121134819D01*
X150632381Y-121134819D02*
X151108571Y-121134819D01*
D11*
X149096666Y-120179530D02*
X149072857Y-120203340D01*
X149072857Y-120203340D02*
X149001428Y-120227149D01*
X149001428Y-120227149D02*
X148953809Y-120227149D01*
X148953809Y-120227149D02*
X148882381Y-120203340D01*
X148882381Y-120203340D02*
X148834762Y-120155720D01*
X148834762Y-120155720D02*
X148810952Y-120108101D01*
X148810952Y-120108101D02*
X148787143Y-120012863D01*
X148787143Y-120012863D02*
X148787143Y-119941435D01*
X148787143Y-119941435D02*
X148810952Y-119846197D01*
X148810952Y-119846197D02*
X148834762Y-119798578D01*
X148834762Y-119798578D02*
X148882381Y-119750959D01*
X148882381Y-119750959D02*
X148953809Y-119727149D01*
X148953809Y-119727149D02*
X149001428Y-119727149D01*
X149001428Y-119727149D02*
X149072857Y-119750959D01*
X149072857Y-119750959D02*
X149096666Y-119774768D01*
X149263333Y-119727149D02*
X149572857Y-119727149D01*
X149572857Y-119727149D02*
X149406190Y-119917625D01*
X149406190Y-119917625D02*
X149477619Y-119917625D01*
X149477619Y-119917625D02*
X149525238Y-119941435D01*
X149525238Y-119941435D02*
X149549047Y-119965244D01*
X149549047Y-119965244D02*
X149572857Y-120012863D01*
X149572857Y-120012863D02*
X149572857Y-120131911D01*
X149572857Y-120131911D02*
X149549047Y-120179530D01*
X149549047Y-120179530D02*
X149525238Y-120203340D01*
X149525238Y-120203340D02*
X149477619Y-120227149D01*
X149477619Y-120227149D02*
X149334762Y-120227149D01*
X149334762Y-120227149D02*
X149287143Y-120203340D01*
X149287143Y-120203340D02*
X149263333Y-120179530D01*
D10*
X142784819Y-132102856D02*
X142784819Y-132007618D01*
X142784819Y-132007618D02*
X142832438Y-131912380D01*
X142832438Y-131912380D02*
X142880057Y-131864761D01*
X142880057Y-131864761D02*
X142975295Y-131817142D01*
X142975295Y-131817142D02*
X143165771Y-131769523D01*
X143165771Y-131769523D02*
X143403866Y-131769523D01*
X143403866Y-131769523D02*
X143594342Y-131817142D01*
X143594342Y-131817142D02*
X143689580Y-131864761D01*
X143689580Y-131864761D02*
X143737200Y-131912380D01*
X143737200Y-131912380D02*
X143784819Y-132007618D01*
X143784819Y-132007618D02*
X143784819Y-132102856D01*
X143784819Y-132102856D02*
X143737200Y-132198094D01*
X143737200Y-132198094D02*
X143689580Y-132245713D01*
X143689580Y-132245713D02*
X143594342Y-132293332D01*
X143594342Y-132293332D02*
X143403866Y-132340951D01*
X143403866Y-132340951D02*
X143165771Y-132340951D01*
X143165771Y-132340951D02*
X142975295Y-132293332D01*
X142975295Y-132293332D02*
X142880057Y-132245713D01*
X142880057Y-132245713D02*
X142832438Y-132198094D01*
X142832438Y-132198094D02*
X142784819Y-132102856D01*
X143689580Y-131340951D02*
X143737200Y-131293332D01*
X143737200Y-131293332D02*
X143784819Y-131340951D01*
X143784819Y-131340951D02*
X143737200Y-131388570D01*
X143737200Y-131388570D02*
X143689580Y-131340951D01*
X143689580Y-131340951D02*
X143784819Y-131340951D01*
X143784819Y-130340952D02*
X143784819Y-130912380D01*
X143784819Y-130626666D02*
X142784819Y-130626666D01*
X142784819Y-130626666D02*
X142927676Y-130721904D01*
X142927676Y-130721904D02*
X143022914Y-130817142D01*
X143022914Y-130817142D02*
X143070533Y-130912380D01*
X143118152Y-129483809D02*
X143784819Y-129483809D01*
X143118152Y-129912380D02*
X143641961Y-129912380D01*
X143641961Y-129912380D02*
X143737200Y-129864761D01*
X143737200Y-129864761D02*
X143784819Y-129769523D01*
X143784819Y-129769523D02*
X143784819Y-129626666D01*
X143784819Y-129626666D02*
X143737200Y-129531428D01*
X143737200Y-129531428D02*
X143689580Y-129483809D01*
X143261009Y-128674285D02*
X143261009Y-129007618D01*
X143784819Y-129007618D02*
X142784819Y-129007618D01*
X142784819Y-129007618D02*
X142784819Y-128531428D01*
D11*
X141829530Y-130543333D02*
X141853340Y-130567142D01*
X141853340Y-130567142D02*
X141877149Y-130638571D01*
X141877149Y-130638571D02*
X141877149Y-130686190D01*
X141877149Y-130686190D02*
X141853340Y-130757618D01*
X141853340Y-130757618D02*
X141805720Y-130805237D01*
X141805720Y-130805237D02*
X141758101Y-130829047D01*
X141758101Y-130829047D02*
X141662863Y-130852856D01*
X141662863Y-130852856D02*
X141591435Y-130852856D01*
X141591435Y-130852856D02*
X141496197Y-130829047D01*
X141496197Y-130829047D02*
X141448578Y-130805237D01*
X141448578Y-130805237D02*
X141400959Y-130757618D01*
X141400959Y-130757618D02*
X141377149Y-130686190D01*
X141377149Y-130686190D02*
X141377149Y-130638571D01*
X141377149Y-130638571D02*
X141400959Y-130567142D01*
X141400959Y-130567142D02*
X141424768Y-130543333D01*
X141377149Y-130090952D02*
X141377149Y-130329047D01*
X141377149Y-130329047D02*
X141615244Y-130352856D01*
X141615244Y-130352856D02*
X141591435Y-130329047D01*
X141591435Y-130329047D02*
X141567625Y-130281428D01*
X141567625Y-130281428D02*
X141567625Y-130162380D01*
X141567625Y-130162380D02*
X141591435Y-130114761D01*
X141591435Y-130114761D02*
X141615244Y-130090952D01*
X141615244Y-130090952D02*
X141662863Y-130067142D01*
X141662863Y-130067142D02*
X141781911Y-130067142D01*
X141781911Y-130067142D02*
X141829530Y-130090952D01*
X141829530Y-130090952D02*
X141853340Y-130114761D01*
X141853340Y-130114761D02*
X141877149Y-130162380D01*
X141877149Y-130162380D02*
X141877149Y-130281428D01*
X141877149Y-130281428D02*
X141853340Y-130329047D01*
X141853340Y-130329047D02*
X141829530Y-130352856D01*
D10*
X144929580Y-111655238D02*
X144977200Y-111702857D01*
X144977200Y-111702857D02*
X145024819Y-111845714D01*
X145024819Y-111845714D02*
X145024819Y-111940952D01*
X145024819Y-111940952D02*
X144977200Y-112083809D01*
X144977200Y-112083809D02*
X144881961Y-112179047D01*
X144881961Y-112179047D02*
X144786723Y-112226666D01*
X144786723Y-112226666D02*
X144596247Y-112274285D01*
X144596247Y-112274285D02*
X144453390Y-112274285D01*
X144453390Y-112274285D02*
X144262914Y-112226666D01*
X144262914Y-112226666D02*
X144167676Y-112179047D01*
X144167676Y-112179047D02*
X144072438Y-112083809D01*
X144072438Y-112083809D02*
X144024819Y-111940952D01*
X144024819Y-111940952D02*
X144024819Y-111845714D01*
X144024819Y-111845714D02*
X144072438Y-111702857D01*
X144072438Y-111702857D02*
X144120057Y-111655238D01*
X144024819Y-111036190D02*
X144024819Y-110845714D01*
X144024819Y-110845714D02*
X144072438Y-110750476D01*
X144072438Y-110750476D02*
X144167676Y-110655238D01*
X144167676Y-110655238D02*
X144358152Y-110607619D01*
X144358152Y-110607619D02*
X144691485Y-110607619D01*
X144691485Y-110607619D02*
X144881961Y-110655238D01*
X144881961Y-110655238D02*
X144977200Y-110750476D01*
X144977200Y-110750476D02*
X145024819Y-110845714D01*
X145024819Y-110845714D02*
X145024819Y-111036190D01*
X145024819Y-111036190D02*
X144977200Y-111131428D01*
X144977200Y-111131428D02*
X144881961Y-111226666D01*
X144881961Y-111226666D02*
X144691485Y-111274285D01*
X144691485Y-111274285D02*
X144358152Y-111274285D01*
X144358152Y-111274285D02*
X144167676Y-111226666D01*
X144167676Y-111226666D02*
X144072438Y-111131428D01*
X144072438Y-111131428D02*
X144024819Y-111036190D01*
X145024819Y-110179047D02*
X144024819Y-110179047D01*
X144024819Y-110179047D02*
X145024819Y-109607619D01*
X145024819Y-109607619D02*
X144024819Y-109607619D01*
X144501009Y-109131428D02*
X144501009Y-108798095D01*
X145024819Y-108655238D02*
X145024819Y-109131428D01*
X145024819Y-109131428D02*
X144024819Y-109131428D01*
X144024819Y-109131428D02*
X144024819Y-108655238D01*
X144929580Y-107655238D02*
X144977200Y-107702857D01*
X144977200Y-107702857D02*
X145024819Y-107845714D01*
X145024819Y-107845714D02*
X145024819Y-107940952D01*
X145024819Y-107940952D02*
X144977200Y-108083809D01*
X144977200Y-108083809D02*
X144881961Y-108179047D01*
X144881961Y-108179047D02*
X144786723Y-108226666D01*
X144786723Y-108226666D02*
X144596247Y-108274285D01*
X144596247Y-108274285D02*
X144453390Y-108274285D01*
X144453390Y-108274285D02*
X144262914Y-108226666D01*
X144262914Y-108226666D02*
X144167676Y-108179047D01*
X144167676Y-108179047D02*
X144072438Y-108083809D01*
X144072438Y-108083809D02*
X144024819Y-107940952D01*
X144024819Y-107940952D02*
X144024819Y-107845714D01*
X144024819Y-107845714D02*
X144072438Y-107702857D01*
X144072438Y-107702857D02*
X144120057Y-107655238D01*
X144024819Y-107369523D02*
X144024819Y-106798095D01*
X145024819Y-107083809D02*
X144024819Y-107083809D01*
X144024819Y-106274285D02*
X144024819Y-106083809D01*
X144024819Y-106083809D02*
X144072438Y-105988571D01*
X144072438Y-105988571D02*
X144167676Y-105893333D01*
X144167676Y-105893333D02*
X144358152Y-105845714D01*
X144358152Y-105845714D02*
X144691485Y-105845714D01*
X144691485Y-105845714D02*
X144881961Y-105893333D01*
X144881961Y-105893333D02*
X144977200Y-105988571D01*
X144977200Y-105988571D02*
X145024819Y-106083809D01*
X145024819Y-106083809D02*
X145024819Y-106274285D01*
X145024819Y-106274285D02*
X144977200Y-106369523D01*
X144977200Y-106369523D02*
X144881961Y-106464761D01*
X144881961Y-106464761D02*
X144691485Y-106512380D01*
X144691485Y-106512380D02*
X144358152Y-106512380D01*
X144358152Y-106512380D02*
X144167676Y-106464761D01*
X144167676Y-106464761D02*
X144072438Y-106369523D01*
X144072438Y-106369523D02*
X144024819Y-106274285D01*
X145024819Y-104845714D02*
X144548628Y-105179047D01*
X145024819Y-105417142D02*
X144024819Y-105417142D01*
X144024819Y-105417142D02*
X144024819Y-105036190D01*
X144024819Y-105036190D02*
X144072438Y-104940952D01*
X144072438Y-104940952D02*
X144120057Y-104893333D01*
X144120057Y-104893333D02*
X144215295Y-104845714D01*
X144215295Y-104845714D02*
X144358152Y-104845714D01*
X144358152Y-104845714D02*
X144453390Y-104893333D01*
X144453390Y-104893333D02*
X144501009Y-104940952D01*
X144501009Y-104940952D02*
X144548628Y-105036190D01*
X144548628Y-105036190D02*
X144548628Y-105417142D01*
X145120057Y-104655238D02*
X145120057Y-103893333D01*
X145024819Y-103655237D02*
X144024819Y-103655237D01*
X144024819Y-103655237D02*
X144024819Y-103417142D01*
X144024819Y-103417142D02*
X144072438Y-103274285D01*
X144072438Y-103274285D02*
X144167676Y-103179047D01*
X144167676Y-103179047D02*
X144262914Y-103131428D01*
X144262914Y-103131428D02*
X144453390Y-103083809D01*
X144453390Y-103083809D02*
X144596247Y-103083809D01*
X144596247Y-103083809D02*
X144786723Y-103131428D01*
X144786723Y-103131428D02*
X144881961Y-103179047D01*
X144881961Y-103179047D02*
X144977200Y-103274285D01*
X144977200Y-103274285D02*
X145024819Y-103417142D01*
X145024819Y-103417142D02*
X145024819Y-103655237D01*
X145024819Y-102655237D02*
X144024819Y-102655237D01*
X145024819Y-102179047D02*
X144024819Y-102179047D01*
X144024819Y-102179047D02*
X144024819Y-101798095D01*
X144024819Y-101798095D02*
X144072438Y-101702857D01*
X144072438Y-101702857D02*
X144120057Y-101655238D01*
X144120057Y-101655238D02*
X144215295Y-101607619D01*
X144215295Y-101607619D02*
X144358152Y-101607619D01*
X144358152Y-101607619D02*
X144453390Y-101655238D01*
X144453390Y-101655238D02*
X144501009Y-101702857D01*
X144501009Y-101702857D02*
X144548628Y-101798095D01*
X144548628Y-101798095D02*
X144548628Y-102179047D01*
X144358152Y-100750476D02*
X145024819Y-100750476D01*
X143977200Y-100988571D02*
X144691485Y-101226666D01*
X144691485Y-101226666D02*
X144691485Y-100607619D01*
X144024819Y-100036190D02*
X144024819Y-99940952D01*
X144024819Y-99940952D02*
X144072438Y-99845714D01*
X144072438Y-99845714D02*
X144120057Y-99798095D01*
X144120057Y-99798095D02*
X144215295Y-99750476D01*
X144215295Y-99750476D02*
X144405771Y-99702857D01*
X144405771Y-99702857D02*
X144643866Y-99702857D01*
X144643866Y-99702857D02*
X144834342Y-99750476D01*
X144834342Y-99750476D02*
X144929580Y-99798095D01*
X144929580Y-99798095D02*
X144977200Y-99845714D01*
X144977200Y-99845714D02*
X145024819Y-99940952D01*
X145024819Y-99940952D02*
X145024819Y-100036190D01*
X145024819Y-100036190D02*
X144977200Y-100131428D01*
X144977200Y-100131428D02*
X144929580Y-100179047D01*
X144929580Y-100179047D02*
X144834342Y-100226666D01*
X144834342Y-100226666D02*
X144643866Y-100274285D01*
X144643866Y-100274285D02*
X144405771Y-100274285D01*
X144405771Y-100274285D02*
X144215295Y-100226666D01*
X144215295Y-100226666D02*
X144120057Y-100179047D01*
X144120057Y-100179047D02*
X144072438Y-100131428D01*
X144072438Y-100131428D02*
X144024819Y-100036190D01*
X145120057Y-99512381D02*
X145120057Y-98750476D01*
X145024819Y-98512380D02*
X144024819Y-98512380D01*
X144024819Y-98512380D02*
X144739104Y-98179047D01*
X144739104Y-98179047D02*
X144024819Y-97845714D01*
X144024819Y-97845714D02*
X145024819Y-97845714D01*
X144739104Y-97417142D02*
X144739104Y-96940952D01*
X145024819Y-97512380D02*
X144024819Y-97179047D01*
X144024819Y-97179047D02*
X145024819Y-96845714D01*
X144929580Y-95940952D02*
X144977200Y-95988571D01*
X144977200Y-95988571D02*
X145024819Y-96131428D01*
X145024819Y-96131428D02*
X145024819Y-96226666D01*
X145024819Y-96226666D02*
X144977200Y-96369523D01*
X144977200Y-96369523D02*
X144881961Y-96464761D01*
X144881961Y-96464761D02*
X144786723Y-96512380D01*
X144786723Y-96512380D02*
X144596247Y-96559999D01*
X144596247Y-96559999D02*
X144453390Y-96559999D01*
X144453390Y-96559999D02*
X144262914Y-96512380D01*
X144262914Y-96512380D02*
X144167676Y-96464761D01*
X144167676Y-96464761D02*
X144072438Y-96369523D01*
X144072438Y-96369523D02*
X144024819Y-96226666D01*
X144024819Y-96226666D02*
X144024819Y-96131428D01*
X144024819Y-96131428D02*
X144072438Y-95988571D01*
X144072438Y-95988571D02*
X144120057Y-95940952D01*
X145024819Y-95512380D02*
X144024819Y-95512380D01*
X144501009Y-95512380D02*
X144501009Y-94940952D01*
X145024819Y-94940952D02*
X144024819Y-94940952D01*
X144024819Y-94274285D02*
X144024819Y-94083809D01*
X144024819Y-94083809D02*
X144072438Y-93988571D01*
X144072438Y-93988571D02*
X144167676Y-93893333D01*
X144167676Y-93893333D02*
X144358152Y-93845714D01*
X144358152Y-93845714D02*
X144691485Y-93845714D01*
X144691485Y-93845714D02*
X144881961Y-93893333D01*
X144881961Y-93893333D02*
X144977200Y-93988571D01*
X144977200Y-93988571D02*
X145024819Y-94083809D01*
X145024819Y-94083809D02*
X145024819Y-94274285D01*
X145024819Y-94274285D02*
X144977200Y-94369523D01*
X144977200Y-94369523D02*
X144881961Y-94464761D01*
X144881961Y-94464761D02*
X144691485Y-94512380D01*
X144691485Y-94512380D02*
X144358152Y-94512380D01*
X144358152Y-94512380D02*
X144167676Y-94464761D01*
X144167676Y-94464761D02*
X144072438Y-94369523D01*
X144072438Y-94369523D02*
X144024819Y-94274285D01*
X115681428Y-102514819D02*
X115681428Y-103229104D01*
X115681428Y-103229104D02*
X115633809Y-103371961D01*
X115633809Y-103371961D02*
X115538571Y-103467200D01*
X115538571Y-103467200D02*
X115395714Y-103514819D01*
X115395714Y-103514819D02*
X115300476Y-103514819D01*
X115919524Y-103610057D02*
X116681428Y-103610057D01*
X116919524Y-103514819D02*
X116919524Y-102514819D01*
X116919524Y-102514819D02*
X117157619Y-102514819D01*
X117157619Y-102514819D02*
X117300476Y-102562438D01*
X117300476Y-102562438D02*
X117395714Y-102657676D01*
X117395714Y-102657676D02*
X117443333Y-102752914D01*
X117443333Y-102752914D02*
X117490952Y-102943390D01*
X117490952Y-102943390D02*
X117490952Y-103086247D01*
X117490952Y-103086247D02*
X117443333Y-103276723D01*
X117443333Y-103276723D02*
X117395714Y-103371961D01*
X117395714Y-103371961D02*
X117300476Y-103467200D01*
X117300476Y-103467200D02*
X117157619Y-103514819D01*
X117157619Y-103514819D02*
X116919524Y-103514819D01*
X117919524Y-103514819D02*
X117919524Y-102514819D01*
X118395714Y-103514819D02*
X118395714Y-102514819D01*
X118395714Y-102514819D02*
X118776666Y-102514819D01*
X118776666Y-102514819D02*
X118871904Y-102562438D01*
X118871904Y-102562438D02*
X118919523Y-102610057D01*
X118919523Y-102610057D02*
X118967142Y-102705295D01*
X118967142Y-102705295D02*
X118967142Y-102848152D01*
X118967142Y-102848152D02*
X118919523Y-102943390D01*
X118919523Y-102943390D02*
X118871904Y-102991009D01*
X118871904Y-102991009D02*
X118776666Y-103038628D01*
X118776666Y-103038628D02*
X118395714Y-103038628D01*
X119824285Y-102848152D02*
X119824285Y-103514819D01*
X119586190Y-102467200D02*
X119348095Y-103181485D01*
X119348095Y-103181485D02*
X119967142Y-103181485D01*
X120538571Y-102514819D02*
X120633809Y-102514819D01*
X120633809Y-102514819D02*
X120729047Y-102562438D01*
X120729047Y-102562438D02*
X120776666Y-102610057D01*
X120776666Y-102610057D02*
X120824285Y-102705295D01*
X120824285Y-102705295D02*
X120871904Y-102895771D01*
X120871904Y-102895771D02*
X120871904Y-103133866D01*
X120871904Y-103133866D02*
X120824285Y-103324342D01*
X120824285Y-103324342D02*
X120776666Y-103419580D01*
X120776666Y-103419580D02*
X120729047Y-103467200D01*
X120729047Y-103467200D02*
X120633809Y-103514819D01*
X120633809Y-103514819D02*
X120538571Y-103514819D01*
X120538571Y-103514819D02*
X120443333Y-103467200D01*
X120443333Y-103467200D02*
X120395714Y-103419580D01*
X120395714Y-103419580D02*
X120348095Y-103324342D01*
X120348095Y-103324342D02*
X120300476Y-103133866D01*
X120300476Y-103133866D02*
X120300476Y-102895771D01*
X120300476Y-102895771D02*
X120348095Y-102705295D01*
X120348095Y-102705295D02*
X120395714Y-102610057D01*
X120395714Y-102610057D02*
X120443333Y-102562438D01*
X120443333Y-102562438D02*
X120538571Y-102514819D01*
X146544643Y-118543390D02*
X146449405Y-118495771D01*
X146449405Y-118495771D02*
X146401786Y-118448152D01*
X146401786Y-118448152D02*
X146354167Y-118352914D01*
X146354167Y-118352914D02*
X146354167Y-118305295D01*
X146354167Y-118305295D02*
X146401786Y-118210057D01*
X146401786Y-118210057D02*
X146449405Y-118162438D01*
X146449405Y-118162438D02*
X146544643Y-118114819D01*
X146544643Y-118114819D02*
X146735119Y-118114819D01*
X146735119Y-118114819D02*
X146830357Y-118162438D01*
X146830357Y-118162438D02*
X146877976Y-118210057D01*
X146877976Y-118210057D02*
X146925595Y-118305295D01*
X146925595Y-118305295D02*
X146925595Y-118352914D01*
X146925595Y-118352914D02*
X146877976Y-118448152D01*
X146877976Y-118448152D02*
X146830357Y-118495771D01*
X146830357Y-118495771D02*
X146735119Y-118543390D01*
X146735119Y-118543390D02*
X146544643Y-118543390D01*
X146544643Y-118543390D02*
X146449405Y-118591009D01*
X146449405Y-118591009D02*
X146401786Y-118638628D01*
X146401786Y-118638628D02*
X146354167Y-118733866D01*
X146354167Y-118733866D02*
X146354167Y-118924342D01*
X146354167Y-118924342D02*
X146401786Y-119019580D01*
X146401786Y-119019580D02*
X146449405Y-119067200D01*
X146449405Y-119067200D02*
X146544643Y-119114819D01*
X146544643Y-119114819D02*
X146735119Y-119114819D01*
X146735119Y-119114819D02*
X146830357Y-119067200D01*
X146830357Y-119067200D02*
X146877976Y-119019580D01*
X146877976Y-119019580D02*
X146925595Y-118924342D01*
X146925595Y-118924342D02*
X146925595Y-118733866D01*
X146925595Y-118733866D02*
X146877976Y-118638628D01*
X146877976Y-118638628D02*
X146830357Y-118591009D01*
X146830357Y-118591009D02*
X146735119Y-118543390D01*
X147354167Y-119019580D02*
X147401786Y-119067200D01*
X147401786Y-119067200D02*
X147354167Y-119114819D01*
X147354167Y-119114819D02*
X147306548Y-119067200D01*
X147306548Y-119067200D02*
X147354167Y-119019580D01*
X147354167Y-119019580D02*
X147354167Y-119114819D01*
X147782738Y-118210057D02*
X147830357Y-118162438D01*
X147830357Y-118162438D02*
X147925595Y-118114819D01*
X147925595Y-118114819D02*
X148163690Y-118114819D01*
X148163690Y-118114819D02*
X148258928Y-118162438D01*
X148258928Y-118162438D02*
X148306547Y-118210057D01*
X148306547Y-118210057D02*
X148354166Y-118305295D01*
X148354166Y-118305295D02*
X148354166Y-118400533D01*
X148354166Y-118400533D02*
X148306547Y-118543390D01*
X148306547Y-118543390D02*
X147735119Y-119114819D01*
X147735119Y-119114819D02*
X148354166Y-119114819D01*
X148782738Y-119114819D02*
X148782738Y-118114819D01*
X148877976Y-118733866D02*
X149163690Y-119114819D01*
X149163690Y-118448152D02*
X148782738Y-118829104D01*
X150877976Y-119114819D02*
X150306548Y-119114819D01*
X150592262Y-119114819D02*
X150592262Y-118114819D01*
X150592262Y-118114819D02*
X150497024Y-118257676D01*
X150497024Y-118257676D02*
X150401786Y-118352914D01*
X150401786Y-118352914D02*
X150306548Y-118400533D01*
X151258929Y-119114819D02*
X152020833Y-118114819D01*
X151401786Y-118114819D02*
X151497024Y-118162438D01*
X151497024Y-118162438D02*
X151544643Y-118257676D01*
X151544643Y-118257676D02*
X151497024Y-118352914D01*
X151497024Y-118352914D02*
X151401786Y-118400533D01*
X151401786Y-118400533D02*
X151306548Y-118352914D01*
X151306548Y-118352914D02*
X151258929Y-118257676D01*
X151258929Y-118257676D02*
X151306548Y-118162438D01*
X151306548Y-118162438D02*
X151401786Y-118114819D01*
X151973214Y-119067200D02*
X152020833Y-118971961D01*
X152020833Y-118971961D02*
X151973214Y-118876723D01*
X151973214Y-118876723D02*
X151877976Y-118829104D01*
X151877976Y-118829104D02*
X151782738Y-118876723D01*
X151782738Y-118876723D02*
X151735119Y-118971961D01*
X151735119Y-118971961D02*
X151782738Y-119067200D01*
X151782738Y-119067200D02*
X151877976Y-119114819D01*
X151877976Y-119114819D02*
X151973214Y-119067200D01*
D11*
X149104166Y-117237149D02*
X148937500Y-116999054D01*
X148818452Y-117237149D02*
X148818452Y-116737149D01*
X148818452Y-116737149D02*
X149008928Y-116737149D01*
X149008928Y-116737149D02*
X149056547Y-116760959D01*
X149056547Y-116760959D02*
X149080357Y-116784768D01*
X149080357Y-116784768D02*
X149104166Y-116832387D01*
X149104166Y-116832387D02*
X149104166Y-116903816D01*
X149104166Y-116903816D02*
X149080357Y-116951435D01*
X149080357Y-116951435D02*
X149056547Y-116975244D01*
X149056547Y-116975244D02*
X149008928Y-116999054D01*
X149008928Y-116999054D02*
X148818452Y-116999054D01*
X149294643Y-116784768D02*
X149318452Y-116760959D01*
X149318452Y-116760959D02*
X149366071Y-116737149D01*
X149366071Y-116737149D02*
X149485119Y-116737149D01*
X149485119Y-116737149D02*
X149532738Y-116760959D01*
X149532738Y-116760959D02*
X149556547Y-116784768D01*
X149556547Y-116784768D02*
X149580357Y-116832387D01*
X149580357Y-116832387D02*
X149580357Y-116880006D01*
X149580357Y-116880006D02*
X149556547Y-116951435D01*
X149556547Y-116951435D02*
X149270833Y-117237149D01*
X149270833Y-117237149D02*
X149580357Y-117237149D01*
D10*
X154904819Y-131266666D02*
X154904819Y-131838094D01*
X154904819Y-131552380D02*
X153904819Y-131552380D01*
X153904819Y-131552380D02*
X154047676Y-131647618D01*
X154047676Y-131647618D02*
X154142914Y-131742856D01*
X154142914Y-131742856D02*
X154190533Y-131838094D01*
X153904819Y-130647618D02*
X153904819Y-130552380D01*
X153904819Y-130552380D02*
X153952438Y-130457142D01*
X153952438Y-130457142D02*
X154000057Y-130409523D01*
X154000057Y-130409523D02*
X154095295Y-130361904D01*
X154095295Y-130361904D02*
X154285771Y-130314285D01*
X154285771Y-130314285D02*
X154523866Y-130314285D01*
X154523866Y-130314285D02*
X154714342Y-130361904D01*
X154714342Y-130361904D02*
X154809580Y-130409523D01*
X154809580Y-130409523D02*
X154857200Y-130457142D01*
X154857200Y-130457142D02*
X154904819Y-130552380D01*
X154904819Y-130552380D02*
X154904819Y-130647618D01*
X154904819Y-130647618D02*
X154857200Y-130742856D01*
X154857200Y-130742856D02*
X154809580Y-130790475D01*
X154809580Y-130790475D02*
X154714342Y-130838094D01*
X154714342Y-130838094D02*
X154523866Y-130885713D01*
X154523866Y-130885713D02*
X154285771Y-130885713D01*
X154285771Y-130885713D02*
X154095295Y-130838094D01*
X154095295Y-130838094D02*
X154000057Y-130790475D01*
X154000057Y-130790475D02*
X153952438Y-130742856D01*
X153952438Y-130742856D02*
X153904819Y-130647618D01*
X153904819Y-129695237D02*
X153904819Y-129599999D01*
X153904819Y-129599999D02*
X153952438Y-129504761D01*
X153952438Y-129504761D02*
X154000057Y-129457142D01*
X154000057Y-129457142D02*
X154095295Y-129409523D01*
X154095295Y-129409523D02*
X154285771Y-129361904D01*
X154285771Y-129361904D02*
X154523866Y-129361904D01*
X154523866Y-129361904D02*
X154714342Y-129409523D01*
X154714342Y-129409523D02*
X154809580Y-129457142D01*
X154809580Y-129457142D02*
X154857200Y-129504761D01*
X154857200Y-129504761D02*
X154904819Y-129599999D01*
X154904819Y-129599999D02*
X154904819Y-129695237D01*
X154904819Y-129695237D02*
X154857200Y-129790475D01*
X154857200Y-129790475D02*
X154809580Y-129838094D01*
X154809580Y-129838094D02*
X154714342Y-129885713D01*
X154714342Y-129885713D02*
X154523866Y-129933332D01*
X154523866Y-129933332D02*
X154285771Y-129933332D01*
X154285771Y-129933332D02*
X154095295Y-129885713D01*
X154095295Y-129885713D02*
X154000057Y-129838094D01*
X154000057Y-129838094D02*
X153952438Y-129790475D01*
X153952438Y-129790475D02*
X153904819Y-129695237D01*
D11*
X153027149Y-130683333D02*
X152789054Y-130849999D01*
X153027149Y-130969047D02*
X152527149Y-130969047D01*
X152527149Y-130969047D02*
X152527149Y-130778571D01*
X152527149Y-130778571D02*
X152550959Y-130730952D01*
X152550959Y-130730952D02*
X152574768Y-130707142D01*
X152574768Y-130707142D02*
X152622387Y-130683333D01*
X152622387Y-130683333D02*
X152693816Y-130683333D01*
X152693816Y-130683333D02*
X152741435Y-130707142D01*
X152741435Y-130707142D02*
X152765244Y-130730952D01*
X152765244Y-130730952D02*
X152789054Y-130778571D01*
X152789054Y-130778571D02*
X152789054Y-130969047D01*
X152693816Y-130254761D02*
X153027149Y-130254761D01*
X152503340Y-130373809D02*
X152860482Y-130492856D01*
X152860482Y-130492856D02*
X152860482Y-130183333D01*
D10*
X142594819Y-131045238D02*
X142594819Y-131616666D01*
X142594819Y-131330952D02*
X141594819Y-131330952D01*
X141594819Y-131330952D02*
X141737676Y-131426190D01*
X141737676Y-131426190D02*
X141832914Y-131521428D01*
X141832914Y-131521428D02*
X141880533Y-131616666D01*
X141594819Y-130426190D02*
X141594819Y-130330952D01*
X141594819Y-130330952D02*
X141642438Y-130235714D01*
X141642438Y-130235714D02*
X141690057Y-130188095D01*
X141690057Y-130188095D02*
X141785295Y-130140476D01*
X141785295Y-130140476D02*
X141975771Y-130092857D01*
X141975771Y-130092857D02*
X142213866Y-130092857D01*
X142213866Y-130092857D02*
X142404342Y-130140476D01*
X142404342Y-130140476D02*
X142499580Y-130188095D01*
X142499580Y-130188095D02*
X142547200Y-130235714D01*
X142547200Y-130235714D02*
X142594819Y-130330952D01*
X142594819Y-130330952D02*
X142594819Y-130426190D01*
X142594819Y-130426190D02*
X142547200Y-130521428D01*
X142547200Y-130521428D02*
X142499580Y-130569047D01*
X142499580Y-130569047D02*
X142404342Y-130616666D01*
X142404342Y-130616666D02*
X142213866Y-130664285D01*
X142213866Y-130664285D02*
X141975771Y-130664285D01*
X141975771Y-130664285D02*
X141785295Y-130616666D01*
X141785295Y-130616666D02*
X141690057Y-130569047D01*
X141690057Y-130569047D02*
X141642438Y-130521428D01*
X141642438Y-130521428D02*
X141594819Y-130426190D01*
X142594819Y-129664285D02*
X141594819Y-129664285D01*
X142213866Y-129569047D02*
X142594819Y-129283333D01*
X141928152Y-129283333D02*
X142309104Y-129664285D01*
D11*
X141727149Y-126013333D02*
X141489054Y-126179999D01*
X141727149Y-126299047D02*
X141227149Y-126299047D01*
X141227149Y-126299047D02*
X141227149Y-126108571D01*
X141227149Y-126108571D02*
X141250959Y-126060952D01*
X141250959Y-126060952D02*
X141274768Y-126037142D01*
X141274768Y-126037142D02*
X141322387Y-126013333D01*
X141322387Y-126013333D02*
X141393816Y-126013333D01*
X141393816Y-126013333D02*
X141441435Y-126037142D01*
X141441435Y-126037142D02*
X141465244Y-126060952D01*
X141465244Y-126060952D02*
X141489054Y-126108571D01*
X141489054Y-126108571D02*
X141489054Y-126299047D01*
X141227149Y-125584761D02*
X141227149Y-125679999D01*
X141227149Y-125679999D02*
X141250959Y-125727618D01*
X141250959Y-125727618D02*
X141274768Y-125751428D01*
X141274768Y-125751428D02*
X141346197Y-125799047D01*
X141346197Y-125799047D02*
X141441435Y-125822856D01*
X141441435Y-125822856D02*
X141631911Y-125822856D01*
X141631911Y-125822856D02*
X141679530Y-125799047D01*
X141679530Y-125799047D02*
X141703340Y-125775237D01*
X141703340Y-125775237D02*
X141727149Y-125727618D01*
X141727149Y-125727618D02*
X141727149Y-125632380D01*
X141727149Y-125632380D02*
X141703340Y-125584761D01*
X141703340Y-125584761D02*
X141679530Y-125560952D01*
X141679530Y-125560952D02*
X141631911Y-125537142D01*
X141631911Y-125537142D02*
X141512863Y-125537142D01*
X141512863Y-125537142D02*
X141465244Y-125560952D01*
X141465244Y-125560952D02*
X141441435Y-125584761D01*
X141441435Y-125584761D02*
X141417625Y-125632380D01*
X141417625Y-125632380D02*
X141417625Y-125727618D01*
X141417625Y-125727618D02*
X141441435Y-125775237D01*
X141441435Y-125775237D02*
X141465244Y-125799047D01*
X141465244Y-125799047D02*
X141512863Y-125822856D01*
D10*
X146793333Y-132694819D02*
X146221905Y-132694819D01*
X146507619Y-132694819D02*
X146507619Y-131694819D01*
X146507619Y-131694819D02*
X146412381Y-131837676D01*
X146412381Y-131837676D02*
X146317143Y-131932914D01*
X146317143Y-131932914D02*
X146221905Y-131980533D01*
X147412381Y-131694819D02*
X147507619Y-131694819D01*
X147507619Y-131694819D02*
X147602857Y-131742438D01*
X147602857Y-131742438D02*
X147650476Y-131790057D01*
X147650476Y-131790057D02*
X147698095Y-131885295D01*
X147698095Y-131885295D02*
X147745714Y-132075771D01*
X147745714Y-132075771D02*
X147745714Y-132313866D01*
X147745714Y-132313866D02*
X147698095Y-132504342D01*
X147698095Y-132504342D02*
X147650476Y-132599580D01*
X147650476Y-132599580D02*
X147602857Y-132647200D01*
X147602857Y-132647200D02*
X147507619Y-132694819D01*
X147507619Y-132694819D02*
X147412381Y-132694819D01*
X147412381Y-132694819D02*
X147317143Y-132647200D01*
X147317143Y-132647200D02*
X147269524Y-132599580D01*
X147269524Y-132599580D02*
X147221905Y-132504342D01*
X147221905Y-132504342D02*
X147174286Y-132313866D01*
X147174286Y-132313866D02*
X147174286Y-132075771D01*
X147174286Y-132075771D02*
X147221905Y-131885295D01*
X147221905Y-131885295D02*
X147269524Y-131790057D01*
X147269524Y-131790057D02*
X147317143Y-131742438D01*
X147317143Y-131742438D02*
X147412381Y-131694819D01*
X148364762Y-131694819D02*
X148460000Y-131694819D01*
X148460000Y-131694819D02*
X148555238Y-131742438D01*
X148555238Y-131742438D02*
X148602857Y-131790057D01*
X148602857Y-131790057D02*
X148650476Y-131885295D01*
X148650476Y-131885295D02*
X148698095Y-132075771D01*
X148698095Y-132075771D02*
X148698095Y-132313866D01*
X148698095Y-132313866D02*
X148650476Y-132504342D01*
X148650476Y-132504342D02*
X148602857Y-132599580D01*
X148602857Y-132599580D02*
X148555238Y-132647200D01*
X148555238Y-132647200D02*
X148460000Y-132694819D01*
X148460000Y-132694819D02*
X148364762Y-132694819D01*
X148364762Y-132694819D02*
X148269524Y-132647200D01*
X148269524Y-132647200D02*
X148221905Y-132599580D01*
X148221905Y-132599580D02*
X148174286Y-132504342D01*
X148174286Y-132504342D02*
X148126667Y-132313866D01*
X148126667Y-132313866D02*
X148126667Y-132075771D01*
X148126667Y-132075771D02*
X148174286Y-131885295D01*
X148174286Y-131885295D02*
X148221905Y-131790057D01*
X148221905Y-131790057D02*
X148269524Y-131742438D01*
X148269524Y-131742438D02*
X148364762Y-131694819D01*
D11*
X147376666Y-134117149D02*
X147210000Y-133879054D01*
X147090952Y-134117149D02*
X147090952Y-133617149D01*
X147090952Y-133617149D02*
X147281428Y-133617149D01*
X147281428Y-133617149D02*
X147329047Y-133640959D01*
X147329047Y-133640959D02*
X147352857Y-133664768D01*
X147352857Y-133664768D02*
X147376666Y-133712387D01*
X147376666Y-133712387D02*
X147376666Y-133783816D01*
X147376666Y-133783816D02*
X147352857Y-133831435D01*
X147352857Y-133831435D02*
X147329047Y-133855244D01*
X147329047Y-133855244D02*
X147281428Y-133879054D01*
X147281428Y-133879054D02*
X147090952Y-133879054D01*
X147829047Y-133617149D02*
X147590952Y-133617149D01*
X147590952Y-133617149D02*
X147567143Y-133855244D01*
X147567143Y-133855244D02*
X147590952Y-133831435D01*
X147590952Y-133831435D02*
X147638571Y-133807625D01*
X147638571Y-133807625D02*
X147757619Y-133807625D01*
X147757619Y-133807625D02*
X147805238Y-133831435D01*
X147805238Y-133831435D02*
X147829047Y-133855244D01*
X147829047Y-133855244D02*
X147852857Y-133902863D01*
X147852857Y-133902863D02*
X147852857Y-134021911D01*
X147852857Y-134021911D02*
X147829047Y-134069530D01*
X147829047Y-134069530D02*
X147805238Y-134093340D01*
X147805238Y-134093340D02*
X147757619Y-134117149D01*
X147757619Y-134117149D02*
X147638571Y-134117149D01*
X147638571Y-134117149D02*
X147590952Y-134093340D01*
X147590952Y-134093340D02*
X147567143Y-134069530D01*
D10*
X88511009Y-87335905D02*
X88511009Y-87669238D01*
X89034819Y-87669238D02*
X88034819Y-87669238D01*
X88034819Y-87669238D02*
X88034819Y-87193048D01*
X88368152Y-86383524D02*
X89034819Y-86383524D01*
X88368152Y-86812095D02*
X88891961Y-86812095D01*
X88891961Y-86812095D02*
X88987200Y-86764476D01*
X88987200Y-86764476D02*
X89034819Y-86669238D01*
X89034819Y-86669238D02*
X89034819Y-86526381D01*
X89034819Y-86526381D02*
X88987200Y-86431143D01*
X88987200Y-86431143D02*
X88939580Y-86383524D01*
X88987200Y-85526381D02*
X89034819Y-85621619D01*
X89034819Y-85621619D02*
X89034819Y-85812095D01*
X89034819Y-85812095D02*
X88987200Y-85907333D01*
X88987200Y-85907333D02*
X88891961Y-85954952D01*
X88891961Y-85954952D02*
X88511009Y-85954952D01*
X88511009Y-85954952D02*
X88415771Y-85907333D01*
X88415771Y-85907333D02*
X88368152Y-85812095D01*
X88368152Y-85812095D02*
X88368152Y-85621619D01*
X88368152Y-85621619D02*
X88415771Y-85526381D01*
X88415771Y-85526381D02*
X88511009Y-85478762D01*
X88511009Y-85478762D02*
X88606247Y-85478762D01*
X88606247Y-85478762D02*
X88701485Y-85954952D01*
X88368152Y-85050190D02*
X89034819Y-85050190D01*
X88463390Y-85050190D02*
X88415771Y-85002571D01*
X88415771Y-85002571D02*
X88368152Y-84907333D01*
X88368152Y-84907333D02*
X88368152Y-84764476D01*
X88368152Y-84764476D02*
X88415771Y-84669238D01*
X88415771Y-84669238D02*
X88511009Y-84621619D01*
X88511009Y-84621619D02*
X89034819Y-84621619D01*
X88368152Y-84288285D02*
X88368152Y-83907333D01*
X88034819Y-84145428D02*
X88891961Y-84145428D01*
X88891961Y-84145428D02*
X88987200Y-84097809D01*
X88987200Y-84097809D02*
X89034819Y-84002571D01*
X89034819Y-84002571D02*
X89034819Y-83907333D01*
X88987200Y-83193047D02*
X89034819Y-83288285D01*
X89034819Y-83288285D02*
X89034819Y-83478761D01*
X89034819Y-83478761D02*
X88987200Y-83573999D01*
X88987200Y-83573999D02*
X88891961Y-83621618D01*
X88891961Y-83621618D02*
X88511009Y-83621618D01*
X88511009Y-83621618D02*
X88415771Y-83573999D01*
X88415771Y-83573999D02*
X88368152Y-83478761D01*
X88368152Y-83478761D02*
X88368152Y-83288285D01*
X88368152Y-83288285D02*
X88415771Y-83193047D01*
X88415771Y-83193047D02*
X88511009Y-83145428D01*
X88511009Y-83145428D02*
X88606247Y-83145428D01*
X88606247Y-83145428D02*
X88701485Y-83621618D01*
X89034819Y-81431142D02*
X89034819Y-82002570D01*
X89034819Y-81716856D02*
X88034819Y-81716856D01*
X88034819Y-81716856D02*
X88177676Y-81812094D01*
X88177676Y-81812094D02*
X88272914Y-81907332D01*
X88272914Y-81907332D02*
X88320533Y-82002570D01*
X96976666Y-84028819D02*
X96976666Y-84743104D01*
X96976666Y-84743104D02*
X96929047Y-84885961D01*
X96929047Y-84885961D02*
X96833809Y-84981200D01*
X96833809Y-84981200D02*
X96690952Y-85028819D01*
X96690952Y-85028819D02*
X96595714Y-85028819D01*
X97881428Y-84362152D02*
X97881428Y-85028819D01*
X97643333Y-83981200D02*
X97405238Y-84695485D01*
X97405238Y-84695485D02*
X98024285Y-84695485D01*
X94408571Y-116154819D02*
X93837143Y-116154819D01*
X94122857Y-116154819D02*
X94122857Y-115154819D01*
X94122857Y-115154819D02*
X94027619Y-115297676D01*
X94027619Y-115297676D02*
X93932381Y-115392914D01*
X93932381Y-115392914D02*
X93837143Y-115440533D01*
X95027619Y-115154819D02*
X95122857Y-115154819D01*
X95122857Y-115154819D02*
X95218095Y-115202438D01*
X95218095Y-115202438D02*
X95265714Y-115250057D01*
X95265714Y-115250057D02*
X95313333Y-115345295D01*
X95313333Y-115345295D02*
X95360952Y-115535771D01*
X95360952Y-115535771D02*
X95360952Y-115773866D01*
X95360952Y-115773866D02*
X95313333Y-115964342D01*
X95313333Y-115964342D02*
X95265714Y-116059580D01*
X95265714Y-116059580D02*
X95218095Y-116107200D01*
X95218095Y-116107200D02*
X95122857Y-116154819D01*
X95122857Y-116154819D02*
X95027619Y-116154819D01*
X95027619Y-116154819D02*
X94932381Y-116107200D01*
X94932381Y-116107200D02*
X94884762Y-116059580D01*
X94884762Y-116059580D02*
X94837143Y-115964342D01*
X94837143Y-115964342D02*
X94789524Y-115773866D01*
X94789524Y-115773866D02*
X94789524Y-115535771D01*
X94789524Y-115535771D02*
X94837143Y-115345295D01*
X94837143Y-115345295D02*
X94884762Y-115250057D01*
X94884762Y-115250057D02*
X94932381Y-115202438D01*
X94932381Y-115202438D02*
X95027619Y-115154819D01*
X96218095Y-115488152D02*
X96218095Y-116154819D01*
X95789524Y-115488152D02*
X95789524Y-116011961D01*
X95789524Y-116011961D02*
X95837143Y-116107200D01*
X95837143Y-116107200D02*
X95932381Y-116154819D01*
X95932381Y-116154819D02*
X96075238Y-116154819D01*
X96075238Y-116154819D02*
X96170476Y-116107200D01*
X96170476Y-116107200D02*
X96218095Y-116059580D01*
X97027619Y-115631009D02*
X96694286Y-115631009D01*
X96694286Y-116154819D02*
X96694286Y-115154819D01*
X96694286Y-115154819D02*
X97170476Y-115154819D01*
D11*
X95396666Y-114199530D02*
X95372857Y-114223340D01*
X95372857Y-114223340D02*
X95301428Y-114247149D01*
X95301428Y-114247149D02*
X95253809Y-114247149D01*
X95253809Y-114247149D02*
X95182381Y-114223340D01*
X95182381Y-114223340D02*
X95134762Y-114175720D01*
X95134762Y-114175720D02*
X95110952Y-114128101D01*
X95110952Y-114128101D02*
X95087143Y-114032863D01*
X95087143Y-114032863D02*
X95087143Y-113961435D01*
X95087143Y-113961435D02*
X95110952Y-113866197D01*
X95110952Y-113866197D02*
X95134762Y-113818578D01*
X95134762Y-113818578D02*
X95182381Y-113770959D01*
X95182381Y-113770959D02*
X95253809Y-113747149D01*
X95253809Y-113747149D02*
X95301428Y-113747149D01*
X95301428Y-113747149D02*
X95372857Y-113770959D01*
X95372857Y-113770959D02*
X95396666Y-113794768D01*
X95872857Y-114247149D02*
X95587143Y-114247149D01*
X95730000Y-114247149D02*
X95730000Y-113747149D01*
X95730000Y-113747149D02*
X95682381Y-113818578D01*
X95682381Y-113818578D02*
X95634762Y-113866197D01*
X95634762Y-113866197D02*
X95587143Y-113890006D01*
D10*
X90767143Y-130474819D02*
X90862381Y-130474819D01*
X90862381Y-130474819D02*
X90957619Y-130522438D01*
X90957619Y-130522438D02*
X91005238Y-130570057D01*
X91005238Y-130570057D02*
X91052857Y-130665295D01*
X91052857Y-130665295D02*
X91100476Y-130855771D01*
X91100476Y-130855771D02*
X91100476Y-131093866D01*
X91100476Y-131093866D02*
X91052857Y-131284342D01*
X91052857Y-131284342D02*
X91005238Y-131379580D01*
X91005238Y-131379580D02*
X90957619Y-131427200D01*
X90957619Y-131427200D02*
X90862381Y-131474819D01*
X90862381Y-131474819D02*
X90767143Y-131474819D01*
X90767143Y-131474819D02*
X90671905Y-131427200D01*
X90671905Y-131427200D02*
X90624286Y-131379580D01*
X90624286Y-131379580D02*
X90576667Y-131284342D01*
X90576667Y-131284342D02*
X90529048Y-131093866D01*
X90529048Y-131093866D02*
X90529048Y-130855771D01*
X90529048Y-130855771D02*
X90576667Y-130665295D01*
X90576667Y-130665295D02*
X90624286Y-130570057D01*
X90624286Y-130570057D02*
X90671905Y-130522438D01*
X90671905Y-130522438D02*
X90767143Y-130474819D01*
X91529048Y-131379580D02*
X91576667Y-131427200D01*
X91576667Y-131427200D02*
X91529048Y-131474819D01*
X91529048Y-131474819D02*
X91481429Y-131427200D01*
X91481429Y-131427200D02*
X91529048Y-131379580D01*
X91529048Y-131379580D02*
X91529048Y-131474819D01*
X92529047Y-131474819D02*
X91957619Y-131474819D01*
X92243333Y-131474819D02*
X92243333Y-130474819D01*
X92243333Y-130474819D02*
X92148095Y-130617676D01*
X92148095Y-130617676D02*
X92052857Y-130712914D01*
X92052857Y-130712914D02*
X91957619Y-130760533D01*
X93386190Y-130808152D02*
X93386190Y-131474819D01*
X92957619Y-130808152D02*
X92957619Y-131331961D01*
X92957619Y-131331961D02*
X93005238Y-131427200D01*
X93005238Y-131427200D02*
X93100476Y-131474819D01*
X93100476Y-131474819D02*
X93243333Y-131474819D01*
X93243333Y-131474819D02*
X93338571Y-131427200D01*
X93338571Y-131427200D02*
X93386190Y-131379580D01*
X94195714Y-130951009D02*
X93862381Y-130951009D01*
X93862381Y-131474819D02*
X93862381Y-130474819D01*
X93862381Y-130474819D02*
X94338571Y-130474819D01*
D11*
X92326666Y-129519530D02*
X92302857Y-129543340D01*
X92302857Y-129543340D02*
X92231428Y-129567149D01*
X92231428Y-129567149D02*
X92183809Y-129567149D01*
X92183809Y-129567149D02*
X92112381Y-129543340D01*
X92112381Y-129543340D02*
X92064762Y-129495720D01*
X92064762Y-129495720D02*
X92040952Y-129448101D01*
X92040952Y-129448101D02*
X92017143Y-129352863D01*
X92017143Y-129352863D02*
X92017143Y-129281435D01*
X92017143Y-129281435D02*
X92040952Y-129186197D01*
X92040952Y-129186197D02*
X92064762Y-129138578D01*
X92064762Y-129138578D02*
X92112381Y-129090959D01*
X92112381Y-129090959D02*
X92183809Y-129067149D01*
X92183809Y-129067149D02*
X92231428Y-129067149D01*
X92231428Y-129067149D02*
X92302857Y-129090959D01*
X92302857Y-129090959D02*
X92326666Y-129114768D01*
X92564762Y-129567149D02*
X92660000Y-129567149D01*
X92660000Y-129567149D02*
X92707619Y-129543340D01*
X92707619Y-129543340D02*
X92731428Y-129519530D01*
X92731428Y-129519530D02*
X92779047Y-129448101D01*
X92779047Y-129448101D02*
X92802857Y-129352863D01*
X92802857Y-129352863D02*
X92802857Y-129162387D01*
X92802857Y-129162387D02*
X92779047Y-129114768D01*
X92779047Y-129114768D02*
X92755238Y-129090959D01*
X92755238Y-129090959D02*
X92707619Y-129067149D01*
X92707619Y-129067149D02*
X92612381Y-129067149D01*
X92612381Y-129067149D02*
X92564762Y-129090959D01*
X92564762Y-129090959D02*
X92540952Y-129114768D01*
X92540952Y-129114768D02*
X92517143Y-129162387D01*
X92517143Y-129162387D02*
X92517143Y-129281435D01*
X92517143Y-129281435D02*
X92540952Y-129329054D01*
X92540952Y-129329054D02*
X92564762Y-129352863D01*
X92564762Y-129352863D02*
X92612381Y-129376673D01*
X92612381Y-129376673D02*
X92707619Y-129376673D01*
X92707619Y-129376673D02*
X92755238Y-129352863D01*
X92755238Y-129352863D02*
X92779047Y-129329054D01*
X92779047Y-129329054D02*
X92802857Y-129281435D01*
D10*
X108611009Y-144361905D02*
X108611009Y-144695238D01*
X109134819Y-144695238D02*
X108134819Y-144695238D01*
X108134819Y-144695238D02*
X108134819Y-144219048D01*
X108468152Y-143409524D02*
X109134819Y-143409524D01*
X108468152Y-143838095D02*
X108991961Y-143838095D01*
X108991961Y-143838095D02*
X109087200Y-143790476D01*
X109087200Y-143790476D02*
X109134819Y-143695238D01*
X109134819Y-143695238D02*
X109134819Y-143552381D01*
X109134819Y-143552381D02*
X109087200Y-143457143D01*
X109087200Y-143457143D02*
X109039580Y-143409524D01*
X109087200Y-142552381D02*
X109134819Y-142647619D01*
X109134819Y-142647619D02*
X109134819Y-142838095D01*
X109134819Y-142838095D02*
X109087200Y-142933333D01*
X109087200Y-142933333D02*
X108991961Y-142980952D01*
X108991961Y-142980952D02*
X108611009Y-142980952D01*
X108611009Y-142980952D02*
X108515771Y-142933333D01*
X108515771Y-142933333D02*
X108468152Y-142838095D01*
X108468152Y-142838095D02*
X108468152Y-142647619D01*
X108468152Y-142647619D02*
X108515771Y-142552381D01*
X108515771Y-142552381D02*
X108611009Y-142504762D01*
X108611009Y-142504762D02*
X108706247Y-142504762D01*
X108706247Y-142504762D02*
X108801485Y-142980952D01*
X108468152Y-142076190D02*
X109134819Y-142076190D01*
X108563390Y-142076190D02*
X108515771Y-142028571D01*
X108515771Y-142028571D02*
X108468152Y-141933333D01*
X108468152Y-141933333D02*
X108468152Y-141790476D01*
X108468152Y-141790476D02*
X108515771Y-141695238D01*
X108515771Y-141695238D02*
X108611009Y-141647619D01*
X108611009Y-141647619D02*
X109134819Y-141647619D01*
X108468152Y-141314285D02*
X108468152Y-140933333D01*
X108134819Y-141171428D02*
X108991961Y-141171428D01*
X108991961Y-141171428D02*
X109087200Y-141123809D01*
X109087200Y-141123809D02*
X109134819Y-141028571D01*
X109134819Y-141028571D02*
X109134819Y-140933333D01*
X109087200Y-140219047D02*
X109134819Y-140314285D01*
X109134819Y-140314285D02*
X109134819Y-140504761D01*
X109134819Y-140504761D02*
X109087200Y-140599999D01*
X109087200Y-140599999D02*
X108991961Y-140647618D01*
X108991961Y-140647618D02*
X108611009Y-140647618D01*
X108611009Y-140647618D02*
X108515771Y-140599999D01*
X108515771Y-140599999D02*
X108468152Y-140504761D01*
X108468152Y-140504761D02*
X108468152Y-140314285D01*
X108468152Y-140314285D02*
X108515771Y-140219047D01*
X108515771Y-140219047D02*
X108611009Y-140171428D01*
X108611009Y-140171428D02*
X108706247Y-140171428D01*
X108706247Y-140171428D02*
X108801485Y-140647618D01*
X108230057Y-139028570D02*
X108182438Y-138980951D01*
X108182438Y-138980951D02*
X108134819Y-138885713D01*
X108134819Y-138885713D02*
X108134819Y-138647618D01*
X108134819Y-138647618D02*
X108182438Y-138552380D01*
X108182438Y-138552380D02*
X108230057Y-138504761D01*
X108230057Y-138504761D02*
X108325295Y-138457142D01*
X108325295Y-138457142D02*
X108420533Y-138457142D01*
X108420533Y-138457142D02*
X108563390Y-138504761D01*
X108563390Y-138504761D02*
X109134819Y-139076189D01*
X109134819Y-139076189D02*
X109134819Y-138457142D01*
X97076666Y-141054819D02*
X97076666Y-141769104D01*
X97076666Y-141769104D02*
X97029047Y-141911961D01*
X97029047Y-141911961D02*
X96933809Y-142007200D01*
X96933809Y-142007200D02*
X96790952Y-142054819D01*
X96790952Y-142054819D02*
X96695714Y-142054819D01*
X98029047Y-141054819D02*
X97552857Y-141054819D01*
X97552857Y-141054819D02*
X97505238Y-141531009D01*
X97505238Y-141531009D02*
X97552857Y-141483390D01*
X97552857Y-141483390D02*
X97648095Y-141435771D01*
X97648095Y-141435771D02*
X97886190Y-141435771D01*
X97886190Y-141435771D02*
X97981428Y-141483390D01*
X97981428Y-141483390D02*
X98029047Y-141531009D01*
X98029047Y-141531009D02*
X98076666Y-141626247D01*
X98076666Y-141626247D02*
X98076666Y-141864342D01*
X98076666Y-141864342D02*
X98029047Y-141959580D01*
X98029047Y-141959580D02*
X97981428Y-142007200D01*
X97981428Y-142007200D02*
X97886190Y-142054819D01*
X97886190Y-142054819D02*
X97648095Y-142054819D01*
X97648095Y-142054819D02*
X97552857Y-142007200D01*
X97552857Y-142007200D02*
X97505238Y-141959580D01*
X101837143Y-115250057D02*
X101884762Y-115202438D01*
X101884762Y-115202438D02*
X101980000Y-115154819D01*
X101980000Y-115154819D02*
X102218095Y-115154819D01*
X102218095Y-115154819D02*
X102313333Y-115202438D01*
X102313333Y-115202438D02*
X102360952Y-115250057D01*
X102360952Y-115250057D02*
X102408571Y-115345295D01*
X102408571Y-115345295D02*
X102408571Y-115440533D01*
X102408571Y-115440533D02*
X102360952Y-115583390D01*
X102360952Y-115583390D02*
X101789524Y-116154819D01*
X101789524Y-116154819D02*
X102408571Y-116154819D01*
X102789524Y-115250057D02*
X102837143Y-115202438D01*
X102837143Y-115202438D02*
X102932381Y-115154819D01*
X102932381Y-115154819D02*
X103170476Y-115154819D01*
X103170476Y-115154819D02*
X103265714Y-115202438D01*
X103265714Y-115202438D02*
X103313333Y-115250057D01*
X103313333Y-115250057D02*
X103360952Y-115345295D01*
X103360952Y-115345295D02*
X103360952Y-115440533D01*
X103360952Y-115440533D02*
X103313333Y-115583390D01*
X103313333Y-115583390D02*
X102741905Y-116154819D01*
X102741905Y-116154819D02*
X103360952Y-116154819D01*
X104218095Y-115488152D02*
X104218095Y-116154819D01*
X103789524Y-115488152D02*
X103789524Y-116011961D01*
X103789524Y-116011961D02*
X103837143Y-116107200D01*
X103837143Y-116107200D02*
X103932381Y-116154819D01*
X103932381Y-116154819D02*
X104075238Y-116154819D01*
X104075238Y-116154819D02*
X104170476Y-116107200D01*
X104170476Y-116107200D02*
X104218095Y-116059580D01*
X105027619Y-115631009D02*
X104694286Y-115631009D01*
X104694286Y-116154819D02*
X104694286Y-115154819D01*
X104694286Y-115154819D02*
X105170476Y-115154819D01*
D11*
X103396666Y-114199530D02*
X103372857Y-114223340D01*
X103372857Y-114223340D02*
X103301428Y-114247149D01*
X103301428Y-114247149D02*
X103253809Y-114247149D01*
X103253809Y-114247149D02*
X103182381Y-114223340D01*
X103182381Y-114223340D02*
X103134762Y-114175720D01*
X103134762Y-114175720D02*
X103110952Y-114128101D01*
X103110952Y-114128101D02*
X103087143Y-114032863D01*
X103087143Y-114032863D02*
X103087143Y-113961435D01*
X103087143Y-113961435D02*
X103110952Y-113866197D01*
X103110952Y-113866197D02*
X103134762Y-113818578D01*
X103134762Y-113818578D02*
X103182381Y-113770959D01*
X103182381Y-113770959D02*
X103253809Y-113747149D01*
X103253809Y-113747149D02*
X103301428Y-113747149D01*
X103301428Y-113747149D02*
X103372857Y-113770959D01*
X103372857Y-113770959D02*
X103396666Y-113794768D01*
X103587143Y-113794768D02*
X103610952Y-113770959D01*
X103610952Y-113770959D02*
X103658571Y-113747149D01*
X103658571Y-113747149D02*
X103777619Y-113747149D01*
X103777619Y-113747149D02*
X103825238Y-113770959D01*
X103825238Y-113770959D02*
X103849047Y-113794768D01*
X103849047Y-113794768D02*
X103872857Y-113842387D01*
X103872857Y-113842387D02*
X103872857Y-113890006D01*
X103872857Y-113890006D02*
X103849047Y-113961435D01*
X103849047Y-113961435D02*
X103563333Y-114247149D01*
X103563333Y-114247149D02*
X103872857Y-114247149D01*
D10*
X150934819Y-125312856D02*
X150934819Y-125217618D01*
X150934819Y-125217618D02*
X150982438Y-125122380D01*
X150982438Y-125122380D02*
X151030057Y-125074761D01*
X151030057Y-125074761D02*
X151125295Y-125027142D01*
X151125295Y-125027142D02*
X151315771Y-124979523D01*
X151315771Y-124979523D02*
X151553866Y-124979523D01*
X151553866Y-124979523D02*
X151744342Y-125027142D01*
X151744342Y-125027142D02*
X151839580Y-125074761D01*
X151839580Y-125074761D02*
X151887200Y-125122380D01*
X151887200Y-125122380D02*
X151934819Y-125217618D01*
X151934819Y-125217618D02*
X151934819Y-125312856D01*
X151934819Y-125312856D02*
X151887200Y-125408094D01*
X151887200Y-125408094D02*
X151839580Y-125455713D01*
X151839580Y-125455713D02*
X151744342Y-125503332D01*
X151744342Y-125503332D02*
X151553866Y-125550951D01*
X151553866Y-125550951D02*
X151315771Y-125550951D01*
X151315771Y-125550951D02*
X151125295Y-125503332D01*
X151125295Y-125503332D02*
X151030057Y-125455713D01*
X151030057Y-125455713D02*
X150982438Y-125408094D01*
X150982438Y-125408094D02*
X150934819Y-125312856D01*
X151839580Y-124550951D02*
X151887200Y-124503332D01*
X151887200Y-124503332D02*
X151934819Y-124550951D01*
X151934819Y-124550951D02*
X151887200Y-124598570D01*
X151887200Y-124598570D02*
X151839580Y-124550951D01*
X151839580Y-124550951D02*
X151934819Y-124550951D01*
X151934819Y-123550952D02*
X151934819Y-124122380D01*
X151934819Y-123836666D02*
X150934819Y-123836666D01*
X150934819Y-123836666D02*
X151077676Y-123931904D01*
X151077676Y-123931904D02*
X151172914Y-124027142D01*
X151172914Y-124027142D02*
X151220533Y-124122380D01*
X151268152Y-122693809D02*
X151934819Y-122693809D01*
X151268152Y-123122380D02*
X151791961Y-123122380D01*
X151791961Y-123122380D02*
X151887200Y-123074761D01*
X151887200Y-123074761D02*
X151934819Y-122979523D01*
X151934819Y-122979523D02*
X151934819Y-122836666D01*
X151934819Y-122836666D02*
X151887200Y-122741428D01*
X151887200Y-122741428D02*
X151839580Y-122693809D01*
X151411009Y-121884285D02*
X151411009Y-122217618D01*
X151934819Y-122217618D02*
X150934819Y-122217618D01*
X150934819Y-122217618D02*
X150934819Y-121741428D01*
D11*
X153339530Y-123991428D02*
X153363340Y-124015237D01*
X153363340Y-124015237D02*
X153387149Y-124086666D01*
X153387149Y-124086666D02*
X153387149Y-124134285D01*
X153387149Y-124134285D02*
X153363340Y-124205713D01*
X153363340Y-124205713D02*
X153315720Y-124253332D01*
X153315720Y-124253332D02*
X153268101Y-124277142D01*
X153268101Y-124277142D02*
X153172863Y-124300951D01*
X153172863Y-124300951D02*
X153101435Y-124300951D01*
X153101435Y-124300951D02*
X153006197Y-124277142D01*
X153006197Y-124277142D02*
X152958578Y-124253332D01*
X152958578Y-124253332D02*
X152910959Y-124205713D01*
X152910959Y-124205713D02*
X152887149Y-124134285D01*
X152887149Y-124134285D02*
X152887149Y-124086666D01*
X152887149Y-124086666D02*
X152910959Y-124015237D01*
X152910959Y-124015237D02*
X152934768Y-123991428D01*
X153387149Y-123515237D02*
X153387149Y-123800951D01*
X153387149Y-123658094D02*
X152887149Y-123658094D01*
X152887149Y-123658094D02*
X152958578Y-123705713D01*
X152958578Y-123705713D02*
X153006197Y-123753332D01*
X153006197Y-123753332D02*
X153030006Y-123800951D01*
X153387149Y-123039047D02*
X153387149Y-123324761D01*
X153387149Y-123181904D02*
X152887149Y-123181904D01*
X152887149Y-123181904D02*
X152958578Y-123229523D01*
X152958578Y-123229523D02*
X153006197Y-123277142D01*
X153006197Y-123277142D02*
X153030006Y-123324761D01*
D10*
X140334819Y-127502856D02*
X140334819Y-127407618D01*
X140334819Y-127407618D02*
X140382438Y-127312380D01*
X140382438Y-127312380D02*
X140430057Y-127264761D01*
X140430057Y-127264761D02*
X140525295Y-127217142D01*
X140525295Y-127217142D02*
X140715771Y-127169523D01*
X140715771Y-127169523D02*
X140953866Y-127169523D01*
X140953866Y-127169523D02*
X141144342Y-127217142D01*
X141144342Y-127217142D02*
X141239580Y-127264761D01*
X141239580Y-127264761D02*
X141287200Y-127312380D01*
X141287200Y-127312380D02*
X141334819Y-127407618D01*
X141334819Y-127407618D02*
X141334819Y-127502856D01*
X141334819Y-127502856D02*
X141287200Y-127598094D01*
X141287200Y-127598094D02*
X141239580Y-127645713D01*
X141239580Y-127645713D02*
X141144342Y-127693332D01*
X141144342Y-127693332D02*
X140953866Y-127740951D01*
X140953866Y-127740951D02*
X140715771Y-127740951D01*
X140715771Y-127740951D02*
X140525295Y-127693332D01*
X140525295Y-127693332D02*
X140430057Y-127645713D01*
X140430057Y-127645713D02*
X140382438Y-127598094D01*
X140382438Y-127598094D02*
X140334819Y-127502856D01*
X141239580Y-126740951D02*
X141287200Y-126693332D01*
X141287200Y-126693332D02*
X141334819Y-126740951D01*
X141334819Y-126740951D02*
X141287200Y-126788570D01*
X141287200Y-126788570D02*
X141239580Y-126740951D01*
X141239580Y-126740951D02*
X141334819Y-126740951D01*
X141334819Y-125740952D02*
X141334819Y-126312380D01*
X141334819Y-126026666D02*
X140334819Y-126026666D01*
X140334819Y-126026666D02*
X140477676Y-126121904D01*
X140477676Y-126121904D02*
X140572914Y-126217142D01*
X140572914Y-126217142D02*
X140620533Y-126312380D01*
X140668152Y-124883809D02*
X141334819Y-124883809D01*
X140668152Y-125312380D02*
X141191961Y-125312380D01*
X141191961Y-125312380D02*
X141287200Y-125264761D01*
X141287200Y-125264761D02*
X141334819Y-125169523D01*
X141334819Y-125169523D02*
X141334819Y-125026666D01*
X141334819Y-125026666D02*
X141287200Y-124931428D01*
X141287200Y-124931428D02*
X141239580Y-124883809D01*
X140811009Y-124074285D02*
X140811009Y-124407618D01*
X141334819Y-124407618D02*
X140334819Y-124407618D01*
X140334819Y-124407618D02*
X140334819Y-123931428D01*
D11*
X139379530Y-126181428D02*
X139403340Y-126205237D01*
X139403340Y-126205237D02*
X139427149Y-126276666D01*
X139427149Y-126276666D02*
X139427149Y-126324285D01*
X139427149Y-126324285D02*
X139403340Y-126395713D01*
X139403340Y-126395713D02*
X139355720Y-126443332D01*
X139355720Y-126443332D02*
X139308101Y-126467142D01*
X139308101Y-126467142D02*
X139212863Y-126490951D01*
X139212863Y-126490951D02*
X139141435Y-126490951D01*
X139141435Y-126490951D02*
X139046197Y-126467142D01*
X139046197Y-126467142D02*
X138998578Y-126443332D01*
X138998578Y-126443332D02*
X138950959Y-126395713D01*
X138950959Y-126395713D02*
X138927149Y-126324285D01*
X138927149Y-126324285D02*
X138927149Y-126276666D01*
X138927149Y-126276666D02*
X138950959Y-126205237D01*
X138950959Y-126205237D02*
X138974768Y-126181428D01*
X139427149Y-125705237D02*
X139427149Y-125990951D01*
X139427149Y-125848094D02*
X138927149Y-125848094D01*
X138927149Y-125848094D02*
X138998578Y-125895713D01*
X138998578Y-125895713D02*
X139046197Y-125943332D01*
X139046197Y-125943332D02*
X139070006Y-125990951D01*
X138927149Y-125395714D02*
X138927149Y-125348095D01*
X138927149Y-125348095D02*
X138950959Y-125300476D01*
X138950959Y-125300476D02*
X138974768Y-125276666D01*
X138974768Y-125276666D02*
X139022387Y-125252857D01*
X139022387Y-125252857D02*
X139117625Y-125229047D01*
X139117625Y-125229047D02*
X139236673Y-125229047D01*
X139236673Y-125229047D02*
X139331911Y-125252857D01*
X139331911Y-125252857D02*
X139379530Y-125276666D01*
X139379530Y-125276666D02*
X139403340Y-125300476D01*
X139403340Y-125300476D02*
X139427149Y-125348095D01*
X139427149Y-125348095D02*
X139427149Y-125395714D01*
X139427149Y-125395714D02*
X139403340Y-125443333D01*
X139403340Y-125443333D02*
X139379530Y-125467142D01*
X139379530Y-125467142D02*
X139331911Y-125490952D01*
X139331911Y-125490952D02*
X139236673Y-125514761D01*
X139236673Y-125514761D02*
X139117625Y-125514761D01*
X139117625Y-125514761D02*
X139022387Y-125490952D01*
X139022387Y-125490952D02*
X138974768Y-125467142D01*
X138974768Y-125467142D02*
X138950959Y-125443333D01*
X138950959Y-125443333D02*
X138927149Y-125395714D01*
D10*
X140059104Y-98696666D02*
X140059104Y-98220476D01*
X140344819Y-98791904D02*
X139344819Y-98458571D01*
X139344819Y-98458571D02*
X140344819Y-98125238D01*
X140297200Y-97363333D02*
X140344819Y-97458571D01*
X140344819Y-97458571D02*
X140344819Y-97649047D01*
X140344819Y-97649047D02*
X140297200Y-97744285D01*
X140297200Y-97744285D02*
X140249580Y-97791904D01*
X140249580Y-97791904D02*
X140154342Y-97839523D01*
X140154342Y-97839523D02*
X139868628Y-97839523D01*
X139868628Y-97839523D02*
X139773390Y-97791904D01*
X139773390Y-97791904D02*
X139725771Y-97744285D01*
X139725771Y-97744285D02*
X139678152Y-97649047D01*
X139678152Y-97649047D02*
X139678152Y-97458571D01*
X139678152Y-97458571D02*
X139725771Y-97363333D01*
X140344819Y-96791904D02*
X140297200Y-96887142D01*
X140297200Y-96887142D02*
X140249580Y-96934761D01*
X140249580Y-96934761D02*
X140154342Y-96982380D01*
X140154342Y-96982380D02*
X139868628Y-96982380D01*
X139868628Y-96982380D02*
X139773390Y-96934761D01*
X139773390Y-96934761D02*
X139725771Y-96887142D01*
X139725771Y-96887142D02*
X139678152Y-96791904D01*
X139678152Y-96791904D02*
X139678152Y-96649047D01*
X139678152Y-96649047D02*
X139725771Y-96553809D01*
X139725771Y-96553809D02*
X139773390Y-96506190D01*
X139773390Y-96506190D02*
X139868628Y-96458571D01*
X139868628Y-96458571D02*
X140154342Y-96458571D01*
X140154342Y-96458571D02*
X140249580Y-96506190D01*
X140249580Y-96506190D02*
X140297200Y-96553809D01*
X140297200Y-96553809D02*
X140344819Y-96649047D01*
X140344819Y-96649047D02*
X140344819Y-96791904D01*
X139678152Y-96029999D02*
X140344819Y-96029999D01*
X139773390Y-96029999D02*
X139725771Y-95982380D01*
X139725771Y-95982380D02*
X139678152Y-95887142D01*
X139678152Y-95887142D02*
X139678152Y-95744285D01*
X139678152Y-95744285D02*
X139725771Y-95649047D01*
X139725771Y-95649047D02*
X139821009Y-95601428D01*
X139821009Y-95601428D02*
X140344819Y-95601428D01*
X140344819Y-94696666D02*
X139344819Y-94696666D01*
X140297200Y-94696666D02*
X140344819Y-94791904D01*
X140344819Y-94791904D02*
X140344819Y-94982380D01*
X140344819Y-94982380D02*
X140297200Y-95077618D01*
X140297200Y-95077618D02*
X140249580Y-95125237D01*
X140249580Y-95125237D02*
X140154342Y-95172856D01*
X140154342Y-95172856D02*
X139868628Y-95172856D01*
X139868628Y-95172856D02*
X139773390Y-95125237D01*
X139773390Y-95125237D02*
X139725771Y-95077618D01*
X139725771Y-95077618D02*
X139678152Y-94982380D01*
X139678152Y-94982380D02*
X139678152Y-94791904D01*
X139678152Y-94791904D02*
X139725771Y-94696666D01*
X140344819Y-94220475D02*
X139678152Y-94220475D01*
X139344819Y-94220475D02*
X139392438Y-94268094D01*
X139392438Y-94268094D02*
X139440057Y-94220475D01*
X139440057Y-94220475D02*
X139392438Y-94172856D01*
X139392438Y-94172856D02*
X139344819Y-94220475D01*
X139344819Y-94220475D02*
X139440057Y-94220475D01*
X140297200Y-93315714D02*
X140344819Y-93410952D01*
X140344819Y-93410952D02*
X140344819Y-93601428D01*
X140344819Y-93601428D02*
X140297200Y-93696666D01*
X140297200Y-93696666D02*
X140249580Y-93744285D01*
X140249580Y-93744285D02*
X140154342Y-93791904D01*
X140154342Y-93791904D02*
X139868628Y-93791904D01*
X139868628Y-93791904D02*
X139773390Y-93744285D01*
X139773390Y-93744285D02*
X139725771Y-93696666D01*
X139725771Y-93696666D02*
X139678152Y-93601428D01*
X139678152Y-93601428D02*
X139678152Y-93410952D01*
X139678152Y-93410952D02*
X139725771Y-93315714D01*
X140344819Y-92887142D02*
X139678152Y-92887142D01*
X139344819Y-92887142D02*
X139392438Y-92934761D01*
X139392438Y-92934761D02*
X139440057Y-92887142D01*
X139440057Y-92887142D02*
X139392438Y-92839523D01*
X139392438Y-92839523D02*
X139344819Y-92887142D01*
X139344819Y-92887142D02*
X139440057Y-92887142D01*
X140344819Y-92268095D02*
X140297200Y-92363333D01*
X140297200Y-92363333D02*
X140249580Y-92410952D01*
X140249580Y-92410952D02*
X140154342Y-92458571D01*
X140154342Y-92458571D02*
X139868628Y-92458571D01*
X139868628Y-92458571D02*
X139773390Y-92410952D01*
X139773390Y-92410952D02*
X139725771Y-92363333D01*
X139725771Y-92363333D02*
X139678152Y-92268095D01*
X139678152Y-92268095D02*
X139678152Y-92125238D01*
X139678152Y-92125238D02*
X139725771Y-92030000D01*
X139725771Y-92030000D02*
X139773390Y-91982381D01*
X139773390Y-91982381D02*
X139868628Y-91934762D01*
X139868628Y-91934762D02*
X140154342Y-91934762D01*
X140154342Y-91934762D02*
X140249580Y-91982381D01*
X140249580Y-91982381D02*
X140297200Y-92030000D01*
X140297200Y-92030000D02*
X140344819Y-92125238D01*
X140344819Y-92125238D02*
X140344819Y-92268095D01*
X139678152Y-91506190D02*
X140344819Y-91506190D01*
X139773390Y-91506190D02*
X139725771Y-91458571D01*
X139725771Y-91458571D02*
X139678152Y-91363333D01*
X139678152Y-91363333D02*
X139678152Y-91220476D01*
X139678152Y-91220476D02*
X139725771Y-91125238D01*
X139725771Y-91125238D02*
X139821009Y-91077619D01*
X139821009Y-91077619D02*
X140344819Y-91077619D01*
X140344819Y-90172857D02*
X139821009Y-90172857D01*
X139821009Y-90172857D02*
X139725771Y-90220476D01*
X139725771Y-90220476D02*
X139678152Y-90315714D01*
X139678152Y-90315714D02*
X139678152Y-90506190D01*
X139678152Y-90506190D02*
X139725771Y-90601428D01*
X140297200Y-90172857D02*
X140344819Y-90268095D01*
X140344819Y-90268095D02*
X140344819Y-90506190D01*
X140344819Y-90506190D02*
X140297200Y-90601428D01*
X140297200Y-90601428D02*
X140201961Y-90649047D01*
X140201961Y-90649047D02*
X140106723Y-90649047D01*
X140106723Y-90649047D02*
X140011485Y-90601428D01*
X140011485Y-90601428D02*
X139963866Y-90506190D01*
X139963866Y-90506190D02*
X139963866Y-90268095D01*
X139963866Y-90268095D02*
X139916247Y-90172857D01*
X140344819Y-89696666D02*
X139678152Y-89696666D01*
X139773390Y-89696666D02*
X139725771Y-89649047D01*
X139725771Y-89649047D02*
X139678152Y-89553809D01*
X139678152Y-89553809D02*
X139678152Y-89410952D01*
X139678152Y-89410952D02*
X139725771Y-89315714D01*
X139725771Y-89315714D02*
X139821009Y-89268095D01*
X139821009Y-89268095D02*
X140344819Y-89268095D01*
X139821009Y-89268095D02*
X139725771Y-89220476D01*
X139725771Y-89220476D02*
X139678152Y-89125238D01*
X139678152Y-89125238D02*
X139678152Y-88982381D01*
X139678152Y-88982381D02*
X139725771Y-88887142D01*
X139725771Y-88887142D02*
X139821009Y-88839523D01*
X139821009Y-88839523D02*
X140344819Y-88839523D01*
X140344819Y-88363333D02*
X139678152Y-88363333D01*
X139344819Y-88363333D02*
X139392438Y-88410952D01*
X139392438Y-88410952D02*
X139440057Y-88363333D01*
X139440057Y-88363333D02*
X139392438Y-88315714D01*
X139392438Y-88315714D02*
X139344819Y-88363333D01*
X139344819Y-88363333D02*
X139440057Y-88363333D01*
X140297200Y-87506191D02*
X140344819Y-87601429D01*
X140344819Y-87601429D02*
X140344819Y-87791905D01*
X140344819Y-87791905D02*
X140297200Y-87887143D01*
X140297200Y-87887143D02*
X140201961Y-87934762D01*
X140201961Y-87934762D02*
X139821009Y-87934762D01*
X139821009Y-87934762D02*
X139725771Y-87887143D01*
X139725771Y-87887143D02*
X139678152Y-87791905D01*
X139678152Y-87791905D02*
X139678152Y-87601429D01*
X139678152Y-87601429D02*
X139725771Y-87506191D01*
X139725771Y-87506191D02*
X139821009Y-87458572D01*
X139821009Y-87458572D02*
X139916247Y-87458572D01*
X139916247Y-87458572D02*
X140011485Y-87934762D01*
X139678152Y-87030000D02*
X140344819Y-87030000D01*
X139773390Y-87030000D02*
X139725771Y-86982381D01*
X139725771Y-86982381D02*
X139678152Y-86887143D01*
X139678152Y-86887143D02*
X139678152Y-86744286D01*
X139678152Y-86744286D02*
X139725771Y-86649048D01*
X139725771Y-86649048D02*
X139821009Y-86601429D01*
X139821009Y-86601429D02*
X140344819Y-86601429D01*
X139678152Y-86268095D02*
X139678152Y-85887143D01*
X139344819Y-86125238D02*
X140201961Y-86125238D01*
X140201961Y-86125238D02*
X140297200Y-86077619D01*
X140297200Y-86077619D02*
X140344819Y-85982381D01*
X140344819Y-85982381D02*
X140344819Y-85887143D01*
X140344819Y-85410952D02*
X140297200Y-85506190D01*
X140297200Y-85506190D02*
X140249580Y-85553809D01*
X140249580Y-85553809D02*
X140154342Y-85601428D01*
X140154342Y-85601428D02*
X139868628Y-85601428D01*
X139868628Y-85601428D02*
X139773390Y-85553809D01*
X139773390Y-85553809D02*
X139725771Y-85506190D01*
X139725771Y-85506190D02*
X139678152Y-85410952D01*
X139678152Y-85410952D02*
X139678152Y-85268095D01*
X139678152Y-85268095D02*
X139725771Y-85172857D01*
X139725771Y-85172857D02*
X139773390Y-85125238D01*
X139773390Y-85125238D02*
X139868628Y-85077619D01*
X139868628Y-85077619D02*
X140154342Y-85077619D01*
X140154342Y-85077619D02*
X140249580Y-85125238D01*
X140249580Y-85125238D02*
X140297200Y-85172857D01*
X140297200Y-85172857D02*
X140344819Y-85268095D01*
X140344819Y-85268095D02*
X140344819Y-85410952D01*
X140344819Y-83363333D02*
X140344819Y-83934761D01*
X140344819Y-83649047D02*
X139344819Y-83649047D01*
X139344819Y-83649047D02*
X139487676Y-83744285D01*
X139487676Y-83744285D02*
X139582914Y-83839523D01*
X139582914Y-83839523D02*
X139630533Y-83934761D01*
X147016666Y-90484819D02*
X147016666Y-91199104D01*
X147016666Y-91199104D02*
X146969047Y-91341961D01*
X146969047Y-91341961D02*
X146873809Y-91437200D01*
X146873809Y-91437200D02*
X146730952Y-91484819D01*
X146730952Y-91484819D02*
X146635714Y-91484819D01*
X147445238Y-90580057D02*
X147492857Y-90532438D01*
X147492857Y-90532438D02*
X147588095Y-90484819D01*
X147588095Y-90484819D02*
X147826190Y-90484819D01*
X147826190Y-90484819D02*
X147921428Y-90532438D01*
X147921428Y-90532438D02*
X147969047Y-90580057D01*
X147969047Y-90580057D02*
X148016666Y-90675295D01*
X148016666Y-90675295D02*
X148016666Y-90770533D01*
X148016666Y-90770533D02*
X147969047Y-90913390D01*
X147969047Y-90913390D02*
X147397619Y-91484819D01*
X147397619Y-91484819D02*
X148016666Y-91484819D01*
X142894819Y-127502856D02*
X142894819Y-127407618D01*
X142894819Y-127407618D02*
X142942438Y-127312380D01*
X142942438Y-127312380D02*
X142990057Y-127264761D01*
X142990057Y-127264761D02*
X143085295Y-127217142D01*
X143085295Y-127217142D02*
X143275771Y-127169523D01*
X143275771Y-127169523D02*
X143513866Y-127169523D01*
X143513866Y-127169523D02*
X143704342Y-127217142D01*
X143704342Y-127217142D02*
X143799580Y-127264761D01*
X143799580Y-127264761D02*
X143847200Y-127312380D01*
X143847200Y-127312380D02*
X143894819Y-127407618D01*
X143894819Y-127407618D02*
X143894819Y-127502856D01*
X143894819Y-127502856D02*
X143847200Y-127598094D01*
X143847200Y-127598094D02*
X143799580Y-127645713D01*
X143799580Y-127645713D02*
X143704342Y-127693332D01*
X143704342Y-127693332D02*
X143513866Y-127740951D01*
X143513866Y-127740951D02*
X143275771Y-127740951D01*
X143275771Y-127740951D02*
X143085295Y-127693332D01*
X143085295Y-127693332D02*
X142990057Y-127645713D01*
X142990057Y-127645713D02*
X142942438Y-127598094D01*
X142942438Y-127598094D02*
X142894819Y-127502856D01*
X143799580Y-126740951D02*
X143847200Y-126693332D01*
X143847200Y-126693332D02*
X143894819Y-126740951D01*
X143894819Y-126740951D02*
X143847200Y-126788570D01*
X143847200Y-126788570D02*
X143799580Y-126740951D01*
X143799580Y-126740951D02*
X143894819Y-126740951D01*
X143894819Y-125740952D02*
X143894819Y-126312380D01*
X143894819Y-126026666D02*
X142894819Y-126026666D01*
X142894819Y-126026666D02*
X143037676Y-126121904D01*
X143037676Y-126121904D02*
X143132914Y-126217142D01*
X143132914Y-126217142D02*
X143180533Y-126312380D01*
X143228152Y-124883809D02*
X143894819Y-124883809D01*
X143228152Y-125312380D02*
X143751961Y-125312380D01*
X143751961Y-125312380D02*
X143847200Y-125264761D01*
X143847200Y-125264761D02*
X143894819Y-125169523D01*
X143894819Y-125169523D02*
X143894819Y-125026666D01*
X143894819Y-125026666D02*
X143847200Y-124931428D01*
X143847200Y-124931428D02*
X143799580Y-124883809D01*
X143371009Y-124074285D02*
X143371009Y-124407618D01*
X143894819Y-124407618D02*
X142894819Y-124407618D01*
X142894819Y-124407618D02*
X142894819Y-123931428D01*
D11*
X141939530Y-126181428D02*
X141963340Y-126205237D01*
X141963340Y-126205237D02*
X141987149Y-126276666D01*
X141987149Y-126276666D02*
X141987149Y-126324285D01*
X141987149Y-126324285D02*
X141963340Y-126395713D01*
X141963340Y-126395713D02*
X141915720Y-126443332D01*
X141915720Y-126443332D02*
X141868101Y-126467142D01*
X141868101Y-126467142D02*
X141772863Y-126490951D01*
X141772863Y-126490951D02*
X141701435Y-126490951D01*
X141701435Y-126490951D02*
X141606197Y-126467142D01*
X141606197Y-126467142D02*
X141558578Y-126443332D01*
X141558578Y-126443332D02*
X141510959Y-126395713D01*
X141510959Y-126395713D02*
X141487149Y-126324285D01*
X141487149Y-126324285D02*
X141487149Y-126276666D01*
X141487149Y-126276666D02*
X141510959Y-126205237D01*
X141510959Y-126205237D02*
X141534768Y-126181428D01*
X141987149Y-125705237D02*
X141987149Y-125990951D01*
X141987149Y-125848094D02*
X141487149Y-125848094D01*
X141487149Y-125848094D02*
X141558578Y-125895713D01*
X141558578Y-125895713D02*
X141606197Y-125943332D01*
X141606197Y-125943332D02*
X141630006Y-125990951D01*
X141653816Y-125276666D02*
X141987149Y-125276666D01*
X141463340Y-125395714D02*
X141820482Y-125514761D01*
X141820482Y-125514761D02*
X141820482Y-125205238D01*
D10*
X144994524Y-133309819D02*
X144994524Y-132309819D01*
X144994524Y-132786009D02*
X145565952Y-132786009D01*
X145565952Y-133309819D02*
X145565952Y-132309819D01*
X145946905Y-132309819D02*
X146613571Y-133309819D01*
X146613571Y-132309819D02*
X145946905Y-133309819D01*
X146899286Y-132309819D02*
X147565952Y-132309819D01*
X147565952Y-132309819D02*
X147137381Y-133309819D01*
X148470714Y-133309819D02*
X147899286Y-133309819D01*
X148185000Y-133309819D02*
X148185000Y-132309819D01*
X148185000Y-132309819D02*
X148089762Y-132452676D01*
X148089762Y-132452676D02*
X147994524Y-132547914D01*
X147994524Y-132547914D02*
X147899286Y-132595533D01*
X149423095Y-133309819D02*
X148851667Y-133309819D01*
X149137381Y-133309819D02*
X149137381Y-132309819D01*
X149137381Y-132309819D02*
X149042143Y-132452676D01*
X149042143Y-132452676D02*
X148946905Y-132547914D01*
X148946905Y-132547914D02*
X148851667Y-132595533D01*
X146639819Y-127716904D02*
X147449342Y-127716904D01*
X147449342Y-127716904D02*
X147544580Y-127669285D01*
X147544580Y-127669285D02*
X147592200Y-127621666D01*
X147592200Y-127621666D02*
X147639819Y-127526428D01*
X147639819Y-127526428D02*
X147639819Y-127335952D01*
X147639819Y-127335952D02*
X147592200Y-127240714D01*
X147592200Y-127240714D02*
X147544580Y-127193095D01*
X147544580Y-127193095D02*
X147449342Y-127145476D01*
X147449342Y-127145476D02*
X146639819Y-127145476D01*
X146735057Y-126716904D02*
X146687438Y-126669285D01*
X146687438Y-126669285D02*
X146639819Y-126574047D01*
X146639819Y-126574047D02*
X146639819Y-126335952D01*
X146639819Y-126335952D02*
X146687438Y-126240714D01*
X146687438Y-126240714D02*
X146735057Y-126193095D01*
X146735057Y-126193095D02*
X146830295Y-126145476D01*
X146830295Y-126145476D02*
X146925533Y-126145476D01*
X146925533Y-126145476D02*
X147068390Y-126193095D01*
X147068390Y-126193095D02*
X147639819Y-126764523D01*
X147639819Y-126764523D02*
X147639819Y-126145476D01*
X111324819Y-130579047D02*
X111324819Y-131150475D01*
X111324819Y-130864761D02*
X110324819Y-130864761D01*
X110324819Y-130864761D02*
X110467676Y-130959999D01*
X110467676Y-130959999D02*
X110562914Y-131055237D01*
X110562914Y-131055237D02*
X110610533Y-131150475D01*
X111324819Y-130150475D02*
X110324819Y-130150475D01*
X110943866Y-130055237D02*
X111324819Y-129769523D01*
X110658152Y-129769523D02*
X111039104Y-130150475D01*
D11*
X104757149Y-138383333D02*
X104519054Y-138549999D01*
X104757149Y-138669047D02*
X104257149Y-138669047D01*
X104257149Y-138669047D02*
X104257149Y-138478571D01*
X104257149Y-138478571D02*
X104280959Y-138430952D01*
X104280959Y-138430952D02*
X104304768Y-138407142D01*
X104304768Y-138407142D02*
X104352387Y-138383333D01*
X104352387Y-138383333D02*
X104423816Y-138383333D01*
X104423816Y-138383333D02*
X104471435Y-138407142D01*
X104471435Y-138407142D02*
X104495244Y-138430952D01*
X104495244Y-138430952D02*
X104519054Y-138478571D01*
X104519054Y-138478571D02*
X104519054Y-138669047D01*
X104257149Y-138216666D02*
X104257149Y-137883333D01*
X104257149Y-137883333D02*
X104757149Y-138097618D01*
D10*
X138802024Y-120577200D02*
X138944881Y-120624819D01*
X138944881Y-120624819D02*
X139182976Y-120624819D01*
X139182976Y-120624819D02*
X139278214Y-120577200D01*
X139278214Y-120577200D02*
X139325833Y-120529580D01*
X139325833Y-120529580D02*
X139373452Y-120434342D01*
X139373452Y-120434342D02*
X139373452Y-120339104D01*
X139373452Y-120339104D02*
X139325833Y-120243866D01*
X139325833Y-120243866D02*
X139278214Y-120196247D01*
X139278214Y-120196247D02*
X139182976Y-120148628D01*
X139182976Y-120148628D02*
X138992500Y-120101009D01*
X138992500Y-120101009D02*
X138897262Y-120053390D01*
X138897262Y-120053390D02*
X138849643Y-120005771D01*
X138849643Y-120005771D02*
X138802024Y-119910533D01*
X138802024Y-119910533D02*
X138802024Y-119815295D01*
X138802024Y-119815295D02*
X138849643Y-119720057D01*
X138849643Y-119720057D02*
X138897262Y-119672438D01*
X138897262Y-119672438D02*
X138992500Y-119624819D01*
X138992500Y-119624819D02*
X139230595Y-119624819D01*
X139230595Y-119624819D02*
X139373452Y-119672438D01*
X139944881Y-120053390D02*
X139849643Y-120005771D01*
X139849643Y-120005771D02*
X139802024Y-119958152D01*
X139802024Y-119958152D02*
X139754405Y-119862914D01*
X139754405Y-119862914D02*
X139754405Y-119815295D01*
X139754405Y-119815295D02*
X139802024Y-119720057D01*
X139802024Y-119720057D02*
X139849643Y-119672438D01*
X139849643Y-119672438D02*
X139944881Y-119624819D01*
X139944881Y-119624819D02*
X140135357Y-119624819D01*
X140135357Y-119624819D02*
X140230595Y-119672438D01*
X140230595Y-119672438D02*
X140278214Y-119720057D01*
X140278214Y-119720057D02*
X140325833Y-119815295D01*
X140325833Y-119815295D02*
X140325833Y-119862914D01*
X140325833Y-119862914D02*
X140278214Y-119958152D01*
X140278214Y-119958152D02*
X140230595Y-120005771D01*
X140230595Y-120005771D02*
X140135357Y-120053390D01*
X140135357Y-120053390D02*
X139944881Y-120053390D01*
X139944881Y-120053390D02*
X139849643Y-120101009D01*
X139849643Y-120101009D02*
X139802024Y-120148628D01*
X139802024Y-120148628D02*
X139754405Y-120243866D01*
X139754405Y-120243866D02*
X139754405Y-120434342D01*
X139754405Y-120434342D02*
X139802024Y-120529580D01*
X139802024Y-120529580D02*
X139849643Y-120577200D01*
X139849643Y-120577200D02*
X139944881Y-120624819D01*
X139944881Y-120624819D02*
X140135357Y-120624819D01*
X140135357Y-120624819D02*
X140230595Y-120577200D01*
X140230595Y-120577200D02*
X140278214Y-120529580D01*
X140278214Y-120529580D02*
X140325833Y-120434342D01*
X140325833Y-120434342D02*
X140325833Y-120243866D01*
X140325833Y-120243866D02*
X140278214Y-120148628D01*
X140278214Y-120148628D02*
X140230595Y-120101009D01*
X140230595Y-120101009D02*
X140135357Y-120053390D01*
X141230595Y-119624819D02*
X140754405Y-119624819D01*
X140754405Y-119624819D02*
X140706786Y-120101009D01*
X140706786Y-120101009D02*
X140754405Y-120053390D01*
X140754405Y-120053390D02*
X140849643Y-120005771D01*
X140849643Y-120005771D02*
X141087738Y-120005771D01*
X141087738Y-120005771D02*
X141182976Y-120053390D01*
X141182976Y-120053390D02*
X141230595Y-120101009D01*
X141230595Y-120101009D02*
X141278214Y-120196247D01*
X141278214Y-120196247D02*
X141278214Y-120434342D01*
X141278214Y-120434342D02*
X141230595Y-120529580D01*
X141230595Y-120529580D02*
X141182976Y-120577200D01*
X141182976Y-120577200D02*
X141087738Y-120624819D01*
X141087738Y-120624819D02*
X140849643Y-120624819D01*
X140849643Y-120624819D02*
X140754405Y-120577200D01*
X140754405Y-120577200D02*
X140706786Y-120529580D01*
X142182976Y-119624819D02*
X141706786Y-119624819D01*
X141706786Y-119624819D02*
X141659167Y-120101009D01*
X141659167Y-120101009D02*
X141706786Y-120053390D01*
X141706786Y-120053390D02*
X141802024Y-120005771D01*
X141802024Y-120005771D02*
X142040119Y-120005771D01*
X142040119Y-120005771D02*
X142135357Y-120053390D01*
X142135357Y-120053390D02*
X142182976Y-120101009D01*
X142182976Y-120101009D02*
X142230595Y-120196247D01*
X142230595Y-120196247D02*
X142230595Y-120434342D01*
X142230595Y-120434342D02*
X142182976Y-120529580D01*
X142182976Y-120529580D02*
X142135357Y-120577200D01*
X142135357Y-120577200D02*
X142040119Y-120624819D01*
X142040119Y-120624819D02*
X141802024Y-120624819D01*
X141802024Y-120624819D02*
X141706786Y-120577200D01*
X141706786Y-120577200D02*
X141659167Y-120529580D01*
X142849643Y-119624819D02*
X142944881Y-119624819D01*
X142944881Y-119624819D02*
X143040119Y-119672438D01*
X143040119Y-119672438D02*
X143087738Y-119720057D01*
X143087738Y-119720057D02*
X143135357Y-119815295D01*
X143135357Y-119815295D02*
X143182976Y-120005771D01*
X143182976Y-120005771D02*
X143182976Y-120243866D01*
X143182976Y-120243866D02*
X143135357Y-120434342D01*
X143135357Y-120434342D02*
X143087738Y-120529580D01*
X143087738Y-120529580D02*
X143040119Y-120577200D01*
X143040119Y-120577200D02*
X142944881Y-120624819D01*
X142944881Y-120624819D02*
X142849643Y-120624819D01*
X142849643Y-120624819D02*
X142754405Y-120577200D01*
X142754405Y-120577200D02*
X142706786Y-120529580D01*
X142706786Y-120529580D02*
X142659167Y-120434342D01*
X142659167Y-120434342D02*
X142611548Y-120243866D01*
X142611548Y-120243866D02*
X142611548Y-120005771D01*
X142611548Y-120005771D02*
X142659167Y-119815295D01*
X142659167Y-119815295D02*
X142706786Y-119720057D01*
X142706786Y-119720057D02*
X142754405Y-119672438D01*
X142754405Y-119672438D02*
X142849643Y-119624819D01*
D12*
X141388437Y-117838571D02*
X141354151Y-117907142D01*
X141354151Y-117907142D02*
X141285580Y-117975714D01*
X141285580Y-117975714D02*
X141182722Y-118078571D01*
X141182722Y-118078571D02*
X141148437Y-118147142D01*
X141148437Y-118147142D02*
X141148437Y-118215714D01*
X141319865Y-118181428D02*
X141285580Y-118250000D01*
X141285580Y-118250000D02*
X141217008Y-118318571D01*
X141217008Y-118318571D02*
X141079865Y-118352857D01*
X141079865Y-118352857D02*
X140839865Y-118352857D01*
X140839865Y-118352857D02*
X140702722Y-118318571D01*
X140702722Y-118318571D02*
X140634151Y-118250000D01*
X140634151Y-118250000D02*
X140599865Y-118181428D01*
X140599865Y-118181428D02*
X140599865Y-118044285D01*
X140599865Y-118044285D02*
X140634151Y-117975714D01*
X140634151Y-117975714D02*
X140702722Y-117907142D01*
X140702722Y-117907142D02*
X140839865Y-117872857D01*
X140839865Y-117872857D02*
X141079865Y-117872857D01*
X141079865Y-117872857D02*
X141217008Y-117907142D01*
X141217008Y-117907142D02*
X141285580Y-117975714D01*
X141285580Y-117975714D02*
X141319865Y-118044285D01*
X141319865Y-118044285D02*
X141319865Y-118181428D01*
X141319865Y-117187142D02*
X141319865Y-117598571D01*
X141319865Y-117392856D02*
X140599865Y-117392856D01*
X140599865Y-117392856D02*
X140702722Y-117461428D01*
X140702722Y-117461428D02*
X140771294Y-117529999D01*
X140771294Y-117529999D02*
X140805580Y-117598571D01*
D10*
X95339819Y-137157381D02*
X95339819Y-137633571D01*
X95339819Y-137633571D02*
X94339819Y-137633571D01*
X95339819Y-136824047D02*
X94339819Y-136824047D01*
X94339819Y-136824047D02*
X95054104Y-136490714D01*
X95054104Y-136490714D02*
X94339819Y-136157381D01*
X94339819Y-136157381D02*
X95339819Y-136157381D01*
X94339819Y-135776428D02*
X94339819Y-135109762D01*
X94339819Y-135109762D02*
X95339819Y-135538333D01*
X94768390Y-134585952D02*
X94720771Y-134681190D01*
X94720771Y-134681190D02*
X94673152Y-134728809D01*
X94673152Y-134728809D02*
X94577914Y-134776428D01*
X94577914Y-134776428D02*
X94530295Y-134776428D01*
X94530295Y-134776428D02*
X94435057Y-134728809D01*
X94435057Y-134728809D02*
X94387438Y-134681190D01*
X94387438Y-134681190D02*
X94339819Y-134585952D01*
X94339819Y-134585952D02*
X94339819Y-134395476D01*
X94339819Y-134395476D02*
X94387438Y-134300238D01*
X94387438Y-134300238D02*
X94435057Y-134252619D01*
X94435057Y-134252619D02*
X94530295Y-134205000D01*
X94530295Y-134205000D02*
X94577914Y-134205000D01*
X94577914Y-134205000D02*
X94673152Y-134252619D01*
X94673152Y-134252619D02*
X94720771Y-134300238D01*
X94720771Y-134300238D02*
X94768390Y-134395476D01*
X94768390Y-134395476D02*
X94768390Y-134585952D01*
X94768390Y-134585952D02*
X94816009Y-134681190D01*
X94816009Y-134681190D02*
X94863628Y-134728809D01*
X94863628Y-134728809D02*
X94958866Y-134776428D01*
X94958866Y-134776428D02*
X95149342Y-134776428D01*
X95149342Y-134776428D02*
X95244580Y-134728809D01*
X95244580Y-134728809D02*
X95292200Y-134681190D01*
X95292200Y-134681190D02*
X95339819Y-134585952D01*
X95339819Y-134585952D02*
X95339819Y-134395476D01*
X95339819Y-134395476D02*
X95292200Y-134300238D01*
X95292200Y-134300238D02*
X95244580Y-134252619D01*
X95244580Y-134252619D02*
X95149342Y-134205000D01*
X95149342Y-134205000D02*
X94958866Y-134205000D01*
X94958866Y-134205000D02*
X94863628Y-134252619D01*
X94863628Y-134252619D02*
X94816009Y-134300238D01*
X94816009Y-134300238D02*
X94768390Y-134395476D01*
X95339819Y-133776428D02*
X94339819Y-133776428D01*
X94339819Y-133776428D02*
X95054104Y-133443095D01*
X95054104Y-133443095D02*
X94339819Y-133109762D01*
X94339819Y-133109762D02*
X95339819Y-133109762D01*
X94339819Y-132443095D02*
X94339819Y-132347857D01*
X94339819Y-132347857D02*
X94387438Y-132252619D01*
X94387438Y-132252619D02*
X94435057Y-132205000D01*
X94435057Y-132205000D02*
X94530295Y-132157381D01*
X94530295Y-132157381D02*
X94720771Y-132109762D01*
X94720771Y-132109762D02*
X94958866Y-132109762D01*
X94958866Y-132109762D02*
X95149342Y-132157381D01*
X95149342Y-132157381D02*
X95244580Y-132205000D01*
X95244580Y-132205000D02*
X95292200Y-132252619D01*
X95292200Y-132252619D02*
X95339819Y-132347857D01*
X95339819Y-132347857D02*
X95339819Y-132443095D01*
X95339819Y-132443095D02*
X95292200Y-132538333D01*
X95292200Y-132538333D02*
X95244580Y-132585952D01*
X95244580Y-132585952D02*
X95149342Y-132633571D01*
X95149342Y-132633571D02*
X94958866Y-132681190D01*
X94958866Y-132681190D02*
X94720771Y-132681190D01*
X94720771Y-132681190D02*
X94530295Y-132633571D01*
X94530295Y-132633571D02*
X94435057Y-132585952D01*
X94435057Y-132585952D02*
X94387438Y-132538333D01*
X94387438Y-132538333D02*
X94339819Y-132443095D01*
X94339819Y-131205000D02*
X94339819Y-131681190D01*
X94339819Y-131681190D02*
X94816009Y-131728809D01*
X94816009Y-131728809D02*
X94768390Y-131681190D01*
X94768390Y-131681190D02*
X94720771Y-131585952D01*
X94720771Y-131585952D02*
X94720771Y-131347857D01*
X94720771Y-131347857D02*
X94768390Y-131252619D01*
X94768390Y-131252619D02*
X94816009Y-131205000D01*
X94816009Y-131205000D02*
X94911247Y-131157381D01*
X94911247Y-131157381D02*
X95149342Y-131157381D01*
X95149342Y-131157381D02*
X95244580Y-131205000D01*
X95244580Y-131205000D02*
X95292200Y-131252619D01*
X95292200Y-131252619D02*
X95339819Y-131347857D01*
X95339819Y-131347857D02*
X95339819Y-131585952D01*
X95339819Y-131585952D02*
X95292200Y-131681190D01*
X95292200Y-131681190D02*
X95244580Y-131728809D01*
X95435057Y-130966905D02*
X95435057Y-130205000D01*
X94339819Y-130109761D02*
X94339819Y-129538333D01*
X95339819Y-129824047D02*
X94339819Y-129824047D01*
X94339819Y-129014523D02*
X94339819Y-128824047D01*
X94339819Y-128824047D02*
X94387438Y-128728809D01*
X94387438Y-128728809D02*
X94482676Y-128633571D01*
X94482676Y-128633571D02*
X94673152Y-128585952D01*
X94673152Y-128585952D02*
X95006485Y-128585952D01*
X95006485Y-128585952D02*
X95196961Y-128633571D01*
X95196961Y-128633571D02*
X95292200Y-128728809D01*
X95292200Y-128728809D02*
X95339819Y-128824047D01*
X95339819Y-128824047D02*
X95339819Y-129014523D01*
X95339819Y-129014523D02*
X95292200Y-129109761D01*
X95292200Y-129109761D02*
X95196961Y-129204999D01*
X95196961Y-129204999D02*
X95006485Y-129252618D01*
X95006485Y-129252618D02*
X94673152Y-129252618D01*
X94673152Y-129252618D02*
X94482676Y-129204999D01*
X94482676Y-129204999D02*
X94387438Y-129109761D01*
X94387438Y-129109761D02*
X94339819Y-129014523D01*
X94435057Y-128204999D02*
X94387438Y-128157380D01*
X94387438Y-128157380D02*
X94339819Y-128062142D01*
X94339819Y-128062142D02*
X94339819Y-127824047D01*
X94339819Y-127824047D02*
X94387438Y-127728809D01*
X94387438Y-127728809D02*
X94435057Y-127681190D01*
X94435057Y-127681190D02*
X94530295Y-127633571D01*
X94530295Y-127633571D02*
X94625533Y-127633571D01*
X94625533Y-127633571D02*
X94768390Y-127681190D01*
X94768390Y-127681190D02*
X95339819Y-128252618D01*
X95339819Y-128252618D02*
X95339819Y-127633571D01*
X94339819Y-126728809D02*
X94339819Y-127204999D01*
X94339819Y-127204999D02*
X94816009Y-127252618D01*
X94816009Y-127252618D02*
X94768390Y-127204999D01*
X94768390Y-127204999D02*
X94720771Y-127109761D01*
X94720771Y-127109761D02*
X94720771Y-126871666D01*
X94720771Y-126871666D02*
X94768390Y-126776428D01*
X94768390Y-126776428D02*
X94816009Y-126728809D01*
X94816009Y-126728809D02*
X94911247Y-126681190D01*
X94911247Y-126681190D02*
X95149342Y-126681190D01*
X95149342Y-126681190D02*
X95244580Y-126728809D01*
X95244580Y-126728809D02*
X95292200Y-126776428D01*
X95292200Y-126776428D02*
X95339819Y-126871666D01*
X95339819Y-126871666D02*
X95339819Y-127109761D01*
X95339819Y-127109761D02*
X95292200Y-127204999D01*
X95292200Y-127204999D02*
X95244580Y-127252618D01*
X94435057Y-126300237D02*
X94387438Y-126252618D01*
X94387438Y-126252618D02*
X94339819Y-126157380D01*
X94339819Y-126157380D02*
X94339819Y-125919285D01*
X94339819Y-125919285D02*
X94387438Y-125824047D01*
X94387438Y-125824047D02*
X94435057Y-125776428D01*
X94435057Y-125776428D02*
X94530295Y-125728809D01*
X94530295Y-125728809D02*
X94625533Y-125728809D01*
X94625533Y-125728809D02*
X94768390Y-125776428D01*
X94768390Y-125776428D02*
X95339819Y-126347856D01*
X95339819Y-126347856D02*
X95339819Y-125728809D01*
X98839819Y-132466904D02*
X99649342Y-132466904D01*
X99649342Y-132466904D02*
X99744580Y-132419285D01*
X99744580Y-132419285D02*
X99792200Y-132371666D01*
X99792200Y-132371666D02*
X99839819Y-132276428D01*
X99839819Y-132276428D02*
X99839819Y-132085952D01*
X99839819Y-132085952D02*
X99792200Y-131990714D01*
X99792200Y-131990714D02*
X99744580Y-131943095D01*
X99744580Y-131943095D02*
X99649342Y-131895476D01*
X99649342Y-131895476D02*
X98839819Y-131895476D01*
X99173152Y-130990714D02*
X99839819Y-130990714D01*
X98792200Y-131228809D02*
X99506485Y-131466904D01*
X99506485Y-131466904D02*
X99506485Y-130847857D01*
X105048571Y-128304819D02*
X104477143Y-128304819D01*
X104762857Y-128304819D02*
X104762857Y-127304819D01*
X104762857Y-127304819D02*
X104667619Y-127447676D01*
X104667619Y-127447676D02*
X104572381Y-127542914D01*
X104572381Y-127542914D02*
X104477143Y-127590533D01*
X105667619Y-127304819D02*
X105762857Y-127304819D01*
X105762857Y-127304819D02*
X105858095Y-127352438D01*
X105858095Y-127352438D02*
X105905714Y-127400057D01*
X105905714Y-127400057D02*
X105953333Y-127495295D01*
X105953333Y-127495295D02*
X106000952Y-127685771D01*
X106000952Y-127685771D02*
X106000952Y-127923866D01*
X106000952Y-127923866D02*
X105953333Y-128114342D01*
X105953333Y-128114342D02*
X105905714Y-128209580D01*
X105905714Y-128209580D02*
X105858095Y-128257200D01*
X105858095Y-128257200D02*
X105762857Y-128304819D01*
X105762857Y-128304819D02*
X105667619Y-128304819D01*
X105667619Y-128304819D02*
X105572381Y-128257200D01*
X105572381Y-128257200D02*
X105524762Y-128209580D01*
X105524762Y-128209580D02*
X105477143Y-128114342D01*
X105477143Y-128114342D02*
X105429524Y-127923866D01*
X105429524Y-127923866D02*
X105429524Y-127685771D01*
X105429524Y-127685771D02*
X105477143Y-127495295D01*
X105477143Y-127495295D02*
X105524762Y-127400057D01*
X105524762Y-127400057D02*
X105572381Y-127352438D01*
X105572381Y-127352438D02*
X105667619Y-127304819D01*
X106858095Y-127638152D02*
X106858095Y-128304819D01*
X106429524Y-127638152D02*
X106429524Y-128161961D01*
X106429524Y-128161961D02*
X106477143Y-128257200D01*
X106477143Y-128257200D02*
X106572381Y-128304819D01*
X106572381Y-128304819D02*
X106715238Y-128304819D01*
X106715238Y-128304819D02*
X106810476Y-128257200D01*
X106810476Y-128257200D02*
X106858095Y-128209580D01*
X107667619Y-127781009D02*
X107334286Y-127781009D01*
X107334286Y-128304819D02*
X107334286Y-127304819D01*
X107334286Y-127304819D02*
X107810476Y-127304819D01*
D11*
X106036666Y-126349530D02*
X106012857Y-126373340D01*
X106012857Y-126373340D02*
X105941428Y-126397149D01*
X105941428Y-126397149D02*
X105893809Y-126397149D01*
X105893809Y-126397149D02*
X105822381Y-126373340D01*
X105822381Y-126373340D02*
X105774762Y-126325720D01*
X105774762Y-126325720D02*
X105750952Y-126278101D01*
X105750952Y-126278101D02*
X105727143Y-126182863D01*
X105727143Y-126182863D02*
X105727143Y-126111435D01*
X105727143Y-126111435D02*
X105750952Y-126016197D01*
X105750952Y-126016197D02*
X105774762Y-125968578D01*
X105774762Y-125968578D02*
X105822381Y-125920959D01*
X105822381Y-125920959D02*
X105893809Y-125897149D01*
X105893809Y-125897149D02*
X105941428Y-125897149D01*
X105941428Y-125897149D02*
X106012857Y-125920959D01*
X106012857Y-125920959D02*
X106036666Y-125944768D01*
X106465238Y-125897149D02*
X106370000Y-125897149D01*
X106370000Y-125897149D02*
X106322381Y-125920959D01*
X106322381Y-125920959D02*
X106298571Y-125944768D01*
X106298571Y-125944768D02*
X106250952Y-126016197D01*
X106250952Y-126016197D02*
X106227143Y-126111435D01*
X106227143Y-126111435D02*
X106227143Y-126301911D01*
X106227143Y-126301911D02*
X106250952Y-126349530D01*
X106250952Y-126349530D02*
X106274762Y-126373340D01*
X106274762Y-126373340D02*
X106322381Y-126397149D01*
X106322381Y-126397149D02*
X106417619Y-126397149D01*
X106417619Y-126397149D02*
X106465238Y-126373340D01*
X106465238Y-126373340D02*
X106489047Y-126349530D01*
X106489047Y-126349530D02*
X106512857Y-126301911D01*
X106512857Y-126301911D02*
X106512857Y-126182863D01*
X106512857Y-126182863D02*
X106489047Y-126135244D01*
X106489047Y-126135244D02*
X106465238Y-126111435D01*
X106465238Y-126111435D02*
X106417619Y-126087625D01*
X106417619Y-126087625D02*
X106322381Y-126087625D01*
X106322381Y-126087625D02*
X106274762Y-126111435D01*
X106274762Y-126111435D02*
X106250952Y-126135244D01*
X106250952Y-126135244D02*
X106227143Y-126182863D01*
D10*
X136094166Y-123894819D02*
X135903690Y-123894819D01*
X135903690Y-123894819D02*
X135808452Y-123942438D01*
X135808452Y-123942438D02*
X135760833Y-123990057D01*
X135760833Y-123990057D02*
X135665595Y-124132914D01*
X135665595Y-124132914D02*
X135617976Y-124323390D01*
X135617976Y-124323390D02*
X135617976Y-124704342D01*
X135617976Y-124704342D02*
X135665595Y-124799580D01*
X135665595Y-124799580D02*
X135713214Y-124847200D01*
X135713214Y-124847200D02*
X135808452Y-124894819D01*
X135808452Y-124894819D02*
X135998928Y-124894819D01*
X135998928Y-124894819D02*
X136094166Y-124847200D01*
X136094166Y-124847200D02*
X136141785Y-124799580D01*
X136141785Y-124799580D02*
X136189404Y-124704342D01*
X136189404Y-124704342D02*
X136189404Y-124466247D01*
X136189404Y-124466247D02*
X136141785Y-124371009D01*
X136141785Y-124371009D02*
X136094166Y-124323390D01*
X136094166Y-124323390D02*
X135998928Y-124275771D01*
X135998928Y-124275771D02*
X135808452Y-124275771D01*
X135808452Y-124275771D02*
X135713214Y-124323390D01*
X135713214Y-124323390D02*
X135665595Y-124371009D01*
X135665595Y-124371009D02*
X135617976Y-124466247D01*
X136808452Y-123894819D02*
X136903690Y-123894819D01*
X136903690Y-123894819D02*
X136998928Y-123942438D01*
X136998928Y-123942438D02*
X137046547Y-123990057D01*
X137046547Y-123990057D02*
X137094166Y-124085295D01*
X137094166Y-124085295D02*
X137141785Y-124275771D01*
X137141785Y-124275771D02*
X137141785Y-124513866D01*
X137141785Y-124513866D02*
X137094166Y-124704342D01*
X137094166Y-124704342D02*
X137046547Y-124799580D01*
X137046547Y-124799580D02*
X136998928Y-124847200D01*
X136998928Y-124847200D02*
X136903690Y-124894819D01*
X136903690Y-124894819D02*
X136808452Y-124894819D01*
X136808452Y-124894819D02*
X136713214Y-124847200D01*
X136713214Y-124847200D02*
X136665595Y-124799580D01*
X136665595Y-124799580D02*
X136617976Y-124704342D01*
X136617976Y-124704342D02*
X136570357Y-124513866D01*
X136570357Y-124513866D02*
X136570357Y-124275771D01*
X136570357Y-124275771D02*
X136617976Y-124085295D01*
X136617976Y-124085295D02*
X136665595Y-123990057D01*
X136665595Y-123990057D02*
X136713214Y-123942438D01*
X136713214Y-123942438D02*
X136808452Y-123894819D01*
X137760833Y-123894819D02*
X137856071Y-123894819D01*
X137856071Y-123894819D02*
X137951309Y-123942438D01*
X137951309Y-123942438D02*
X137998928Y-123990057D01*
X137998928Y-123990057D02*
X138046547Y-124085295D01*
X138046547Y-124085295D02*
X138094166Y-124275771D01*
X138094166Y-124275771D02*
X138094166Y-124513866D01*
X138094166Y-124513866D02*
X138046547Y-124704342D01*
X138046547Y-124704342D02*
X137998928Y-124799580D01*
X137998928Y-124799580D02*
X137951309Y-124847200D01*
X137951309Y-124847200D02*
X137856071Y-124894819D01*
X137856071Y-124894819D02*
X137760833Y-124894819D01*
X137760833Y-124894819D02*
X137665595Y-124847200D01*
X137665595Y-124847200D02*
X137617976Y-124799580D01*
X137617976Y-124799580D02*
X137570357Y-124704342D01*
X137570357Y-124704342D02*
X137522738Y-124513866D01*
X137522738Y-124513866D02*
X137522738Y-124275771D01*
X137522738Y-124275771D02*
X137570357Y-124085295D01*
X137570357Y-124085295D02*
X137617976Y-123990057D01*
X137617976Y-123990057D02*
X137665595Y-123942438D01*
X137665595Y-123942438D02*
X137760833Y-123894819D01*
X139094166Y-124894819D02*
X138760833Y-124418628D01*
X138522738Y-124894819D02*
X138522738Y-123894819D01*
X138522738Y-123894819D02*
X138903690Y-123894819D01*
X138903690Y-123894819D02*
X138998928Y-123942438D01*
X138998928Y-123942438D02*
X139046547Y-123990057D01*
X139046547Y-123990057D02*
X139094166Y-124085295D01*
X139094166Y-124085295D02*
X139094166Y-124228152D01*
X139094166Y-124228152D02*
X139046547Y-124323390D01*
X139046547Y-124323390D02*
X138998928Y-124371009D01*
X138998928Y-124371009D02*
X138903690Y-124418628D01*
X138903690Y-124418628D02*
X138522738Y-124418628D01*
X140141785Y-124418628D02*
X140094166Y-124371009D01*
X140094166Y-124371009D02*
X139998928Y-124323390D01*
X139998928Y-124323390D02*
X139903690Y-124323390D01*
X139903690Y-124323390D02*
X139808452Y-124371009D01*
X139808452Y-124371009D02*
X139760833Y-124418628D01*
X139760833Y-124418628D02*
X139713214Y-124513866D01*
X139713214Y-124513866D02*
X139713214Y-124609104D01*
X139713214Y-124609104D02*
X139760833Y-124704342D01*
X139760833Y-124704342D02*
X139808452Y-124751961D01*
X139808452Y-124751961D02*
X139903690Y-124799580D01*
X139903690Y-124799580D02*
X139998928Y-124799580D01*
X139998928Y-124799580D02*
X140094166Y-124751961D01*
X140094166Y-124751961D02*
X140141785Y-124704342D01*
X140141785Y-124323390D02*
X140141785Y-124704342D01*
X140141785Y-124704342D02*
X140189404Y-124751961D01*
X140189404Y-124751961D02*
X140237023Y-124751961D01*
X140237023Y-124751961D02*
X140332262Y-124704342D01*
X140332262Y-124704342D02*
X140379881Y-124609104D01*
X140379881Y-124609104D02*
X140379881Y-124371009D01*
X140379881Y-124371009D02*
X140284643Y-124228152D01*
X140284643Y-124228152D02*
X140141785Y-124132914D01*
X140141785Y-124132914D02*
X139951309Y-124085295D01*
X139951309Y-124085295D02*
X139760833Y-124132914D01*
X139760833Y-124132914D02*
X139617976Y-124228152D01*
X139617976Y-124228152D02*
X139522738Y-124371009D01*
X139522738Y-124371009D02*
X139475119Y-124561485D01*
X139475119Y-124561485D02*
X139522738Y-124751961D01*
X139522738Y-124751961D02*
X139617976Y-124894819D01*
X139617976Y-124894819D02*
X139760833Y-124990057D01*
X139760833Y-124990057D02*
X139951309Y-125037676D01*
X139951309Y-125037676D02*
X140141785Y-124990057D01*
X140141785Y-124990057D02*
X140284643Y-124894819D01*
X141332261Y-124894819D02*
X140760833Y-124894819D01*
X141046547Y-124894819D02*
X141046547Y-123894819D01*
X141046547Y-123894819D02*
X140951309Y-124037676D01*
X140951309Y-124037676D02*
X140856071Y-124132914D01*
X140856071Y-124132914D02*
X140760833Y-124180533D01*
X141951309Y-123894819D02*
X142046547Y-123894819D01*
X142046547Y-123894819D02*
X142141785Y-123942438D01*
X142141785Y-123942438D02*
X142189404Y-123990057D01*
X142189404Y-123990057D02*
X142237023Y-124085295D01*
X142237023Y-124085295D02*
X142284642Y-124275771D01*
X142284642Y-124275771D02*
X142284642Y-124513866D01*
X142284642Y-124513866D02*
X142237023Y-124704342D01*
X142237023Y-124704342D02*
X142189404Y-124799580D01*
X142189404Y-124799580D02*
X142141785Y-124847200D01*
X142141785Y-124847200D02*
X142046547Y-124894819D01*
X142046547Y-124894819D02*
X141951309Y-124894819D01*
X141951309Y-124894819D02*
X141856071Y-124847200D01*
X141856071Y-124847200D02*
X141808452Y-124799580D01*
X141808452Y-124799580D02*
X141760833Y-124704342D01*
X141760833Y-124704342D02*
X141713214Y-124513866D01*
X141713214Y-124513866D02*
X141713214Y-124275771D01*
X141713214Y-124275771D02*
X141760833Y-124085295D01*
X141760833Y-124085295D02*
X141808452Y-123990057D01*
X141808452Y-123990057D02*
X141856071Y-123942438D01*
X141856071Y-123942438D02*
X141951309Y-123894819D01*
X142903690Y-123894819D02*
X142998928Y-123894819D01*
X142998928Y-123894819D02*
X143094166Y-123942438D01*
X143094166Y-123942438D02*
X143141785Y-123990057D01*
X143141785Y-123990057D02*
X143189404Y-124085295D01*
X143189404Y-124085295D02*
X143237023Y-124275771D01*
X143237023Y-124275771D02*
X143237023Y-124513866D01*
X143237023Y-124513866D02*
X143189404Y-124704342D01*
X143189404Y-124704342D02*
X143141785Y-124799580D01*
X143141785Y-124799580D02*
X143094166Y-124847200D01*
X143094166Y-124847200D02*
X142998928Y-124894819D01*
X142998928Y-124894819D02*
X142903690Y-124894819D01*
X142903690Y-124894819D02*
X142808452Y-124847200D01*
X142808452Y-124847200D02*
X142760833Y-124799580D01*
X142760833Y-124799580D02*
X142713214Y-124704342D01*
X142713214Y-124704342D02*
X142665595Y-124513866D01*
X142665595Y-124513866D02*
X142665595Y-124275771D01*
X142665595Y-124275771D02*
X142713214Y-124085295D01*
X142713214Y-124085295D02*
X142760833Y-123990057D01*
X142760833Y-123990057D02*
X142808452Y-123942438D01*
X142808452Y-123942438D02*
X142903690Y-123894819D01*
X143665595Y-124894819D02*
X143665595Y-123894819D01*
X143665595Y-123894819D02*
X143998928Y-124609104D01*
X143998928Y-124609104D02*
X144332261Y-123894819D01*
X144332261Y-123894819D02*
X144332261Y-124894819D01*
X144808452Y-124894819D02*
X144808452Y-123894819D01*
X144808452Y-124371009D02*
X145379880Y-124371009D01*
X145379880Y-124894819D02*
X145379880Y-123894819D01*
X145760833Y-124228152D02*
X146284642Y-124228152D01*
X146284642Y-124228152D02*
X145760833Y-124894819D01*
X145760833Y-124894819D02*
X146284642Y-124894819D01*
D11*
X140510834Y-122855244D02*
X140344167Y-122855244D01*
X140344167Y-123117149D02*
X140344167Y-122617149D01*
X140344167Y-122617149D02*
X140582262Y-122617149D01*
X140939405Y-122855244D02*
X141010833Y-122879054D01*
X141010833Y-122879054D02*
X141034643Y-122902863D01*
X141034643Y-122902863D02*
X141058452Y-122950482D01*
X141058452Y-122950482D02*
X141058452Y-123021911D01*
X141058452Y-123021911D02*
X141034643Y-123069530D01*
X141034643Y-123069530D02*
X141010833Y-123093340D01*
X141010833Y-123093340D02*
X140963214Y-123117149D01*
X140963214Y-123117149D02*
X140772738Y-123117149D01*
X140772738Y-123117149D02*
X140772738Y-122617149D01*
X140772738Y-122617149D02*
X140939405Y-122617149D01*
X140939405Y-122617149D02*
X140987024Y-122640959D01*
X140987024Y-122640959D02*
X141010833Y-122664768D01*
X141010833Y-122664768D02*
X141034643Y-122712387D01*
X141034643Y-122712387D02*
X141034643Y-122760006D01*
X141034643Y-122760006D02*
X141010833Y-122807625D01*
X141010833Y-122807625D02*
X140987024Y-122831435D01*
X140987024Y-122831435D02*
X140939405Y-122855244D01*
X140939405Y-122855244D02*
X140772738Y-122855244D01*
X141534643Y-123117149D02*
X141248929Y-123117149D01*
X141391786Y-123117149D02*
X141391786Y-122617149D01*
X141391786Y-122617149D02*
X141344167Y-122688578D01*
X141344167Y-122688578D02*
X141296548Y-122736197D01*
X141296548Y-122736197D02*
X141248929Y-122760006D01*
D10*
X144398571Y-122094819D02*
X143827143Y-122094819D01*
X144112857Y-122094819D02*
X144112857Y-121094819D01*
X144112857Y-121094819D02*
X144017619Y-121237676D01*
X144017619Y-121237676D02*
X143922381Y-121332914D01*
X143922381Y-121332914D02*
X143827143Y-121380533D01*
X145017619Y-121094819D02*
X145112857Y-121094819D01*
X145112857Y-121094819D02*
X145208095Y-121142438D01*
X145208095Y-121142438D02*
X145255714Y-121190057D01*
X145255714Y-121190057D02*
X145303333Y-121285295D01*
X145303333Y-121285295D02*
X145350952Y-121475771D01*
X145350952Y-121475771D02*
X145350952Y-121713866D01*
X145350952Y-121713866D02*
X145303333Y-121904342D01*
X145303333Y-121904342D02*
X145255714Y-121999580D01*
X145255714Y-121999580D02*
X145208095Y-122047200D01*
X145208095Y-122047200D02*
X145112857Y-122094819D01*
X145112857Y-122094819D02*
X145017619Y-122094819D01*
X145017619Y-122094819D02*
X144922381Y-122047200D01*
X144922381Y-122047200D02*
X144874762Y-121999580D01*
X144874762Y-121999580D02*
X144827143Y-121904342D01*
X144827143Y-121904342D02*
X144779524Y-121713866D01*
X144779524Y-121713866D02*
X144779524Y-121475771D01*
X144779524Y-121475771D02*
X144827143Y-121285295D01*
X144827143Y-121285295D02*
X144874762Y-121190057D01*
X144874762Y-121190057D02*
X144922381Y-121142438D01*
X144922381Y-121142438D02*
X145017619Y-121094819D01*
X146208095Y-121428152D02*
X146208095Y-122094819D01*
X145779524Y-121428152D02*
X145779524Y-121951961D01*
X145779524Y-121951961D02*
X145827143Y-122047200D01*
X145827143Y-122047200D02*
X145922381Y-122094819D01*
X145922381Y-122094819D02*
X146065238Y-122094819D01*
X146065238Y-122094819D02*
X146160476Y-122047200D01*
X146160476Y-122047200D02*
X146208095Y-121999580D01*
X147017619Y-121571009D02*
X146684286Y-121571009D01*
X146684286Y-122094819D02*
X146684286Y-121094819D01*
X146684286Y-121094819D02*
X147160476Y-121094819D01*
D11*
X145386666Y-120139530D02*
X145362857Y-120163340D01*
X145362857Y-120163340D02*
X145291428Y-120187149D01*
X145291428Y-120187149D02*
X145243809Y-120187149D01*
X145243809Y-120187149D02*
X145172381Y-120163340D01*
X145172381Y-120163340D02*
X145124762Y-120115720D01*
X145124762Y-120115720D02*
X145100952Y-120068101D01*
X145100952Y-120068101D02*
X145077143Y-119972863D01*
X145077143Y-119972863D02*
X145077143Y-119901435D01*
X145077143Y-119901435D02*
X145100952Y-119806197D01*
X145100952Y-119806197D02*
X145124762Y-119758578D01*
X145124762Y-119758578D02*
X145172381Y-119710959D01*
X145172381Y-119710959D02*
X145243809Y-119687149D01*
X145243809Y-119687149D02*
X145291428Y-119687149D01*
X145291428Y-119687149D02*
X145362857Y-119710959D01*
X145362857Y-119710959D02*
X145386666Y-119734768D01*
X145815238Y-119853816D02*
X145815238Y-120187149D01*
X145696190Y-119663340D02*
X145577143Y-120020482D01*
X145577143Y-120020482D02*
X145886666Y-120020482D01*
D10*
X139834819Y-136502856D02*
X139834819Y-136407618D01*
X139834819Y-136407618D02*
X139882438Y-136312380D01*
X139882438Y-136312380D02*
X139930057Y-136264761D01*
X139930057Y-136264761D02*
X140025295Y-136217142D01*
X140025295Y-136217142D02*
X140215771Y-136169523D01*
X140215771Y-136169523D02*
X140453866Y-136169523D01*
X140453866Y-136169523D02*
X140644342Y-136217142D01*
X140644342Y-136217142D02*
X140739580Y-136264761D01*
X140739580Y-136264761D02*
X140787200Y-136312380D01*
X140787200Y-136312380D02*
X140834819Y-136407618D01*
X140834819Y-136407618D02*
X140834819Y-136502856D01*
X140834819Y-136502856D02*
X140787200Y-136598094D01*
X140787200Y-136598094D02*
X140739580Y-136645713D01*
X140739580Y-136645713D02*
X140644342Y-136693332D01*
X140644342Y-136693332D02*
X140453866Y-136740951D01*
X140453866Y-136740951D02*
X140215771Y-136740951D01*
X140215771Y-136740951D02*
X140025295Y-136693332D01*
X140025295Y-136693332D02*
X139930057Y-136645713D01*
X139930057Y-136645713D02*
X139882438Y-136598094D01*
X139882438Y-136598094D02*
X139834819Y-136502856D01*
X140739580Y-135740951D02*
X140787200Y-135693332D01*
X140787200Y-135693332D02*
X140834819Y-135740951D01*
X140834819Y-135740951D02*
X140787200Y-135788570D01*
X140787200Y-135788570D02*
X140739580Y-135740951D01*
X140739580Y-135740951D02*
X140834819Y-135740951D01*
X140834819Y-134740952D02*
X140834819Y-135312380D01*
X140834819Y-135026666D02*
X139834819Y-135026666D01*
X139834819Y-135026666D02*
X139977676Y-135121904D01*
X139977676Y-135121904D02*
X140072914Y-135217142D01*
X140072914Y-135217142D02*
X140120533Y-135312380D01*
X140168152Y-133883809D02*
X140834819Y-133883809D01*
X140168152Y-134312380D02*
X140691961Y-134312380D01*
X140691961Y-134312380D02*
X140787200Y-134264761D01*
X140787200Y-134264761D02*
X140834819Y-134169523D01*
X140834819Y-134169523D02*
X140834819Y-134026666D01*
X140834819Y-134026666D02*
X140787200Y-133931428D01*
X140787200Y-133931428D02*
X140739580Y-133883809D01*
X140311009Y-133074285D02*
X140311009Y-133407618D01*
X140834819Y-133407618D02*
X139834819Y-133407618D01*
X139834819Y-133407618D02*
X139834819Y-132931428D01*
D11*
X142239530Y-135181428D02*
X142263340Y-135205237D01*
X142263340Y-135205237D02*
X142287149Y-135276666D01*
X142287149Y-135276666D02*
X142287149Y-135324285D01*
X142287149Y-135324285D02*
X142263340Y-135395713D01*
X142263340Y-135395713D02*
X142215720Y-135443332D01*
X142215720Y-135443332D02*
X142168101Y-135467142D01*
X142168101Y-135467142D02*
X142072863Y-135490951D01*
X142072863Y-135490951D02*
X142001435Y-135490951D01*
X142001435Y-135490951D02*
X141906197Y-135467142D01*
X141906197Y-135467142D02*
X141858578Y-135443332D01*
X141858578Y-135443332D02*
X141810959Y-135395713D01*
X141810959Y-135395713D02*
X141787149Y-135324285D01*
X141787149Y-135324285D02*
X141787149Y-135276666D01*
X141787149Y-135276666D02*
X141810959Y-135205237D01*
X141810959Y-135205237D02*
X141834768Y-135181428D01*
X142287149Y-134705237D02*
X142287149Y-134990951D01*
X142287149Y-134848094D02*
X141787149Y-134848094D01*
X141787149Y-134848094D02*
X141858578Y-134895713D01*
X141858578Y-134895713D02*
X141906197Y-134943332D01*
X141906197Y-134943332D02*
X141930006Y-134990951D01*
X141787149Y-134538571D02*
X141787149Y-134229047D01*
X141787149Y-134229047D02*
X141977625Y-134395714D01*
X141977625Y-134395714D02*
X141977625Y-134324285D01*
X141977625Y-134324285D02*
X142001435Y-134276666D01*
X142001435Y-134276666D02*
X142025244Y-134252857D01*
X142025244Y-134252857D02*
X142072863Y-134229047D01*
X142072863Y-134229047D02*
X142191911Y-134229047D01*
X142191911Y-134229047D02*
X142239530Y-134252857D01*
X142239530Y-134252857D02*
X142263340Y-134276666D01*
X142263340Y-134276666D02*
X142287149Y-134324285D01*
X142287149Y-134324285D02*
X142287149Y-134467142D01*
X142287149Y-134467142D02*
X142263340Y-134514761D01*
X142263340Y-134514761D02*
X142239530Y-134538571D01*
D10*
X137944819Y-139681428D02*
X137944819Y-140252856D01*
X137944819Y-139967142D02*
X136944819Y-139967142D01*
X136944819Y-139967142D02*
X137087676Y-140062380D01*
X137087676Y-140062380D02*
X137182914Y-140157618D01*
X137182914Y-140157618D02*
X137230533Y-140252856D01*
X136944819Y-139062380D02*
X136944819Y-138967142D01*
X136944819Y-138967142D02*
X136992438Y-138871904D01*
X136992438Y-138871904D02*
X137040057Y-138824285D01*
X137040057Y-138824285D02*
X137135295Y-138776666D01*
X137135295Y-138776666D02*
X137325771Y-138729047D01*
X137325771Y-138729047D02*
X137563866Y-138729047D01*
X137563866Y-138729047D02*
X137754342Y-138776666D01*
X137754342Y-138776666D02*
X137849580Y-138824285D01*
X137849580Y-138824285D02*
X137897200Y-138871904D01*
X137897200Y-138871904D02*
X137944819Y-138967142D01*
X137944819Y-138967142D02*
X137944819Y-139062380D01*
X137944819Y-139062380D02*
X137897200Y-139157618D01*
X137897200Y-139157618D02*
X137849580Y-139205237D01*
X137849580Y-139205237D02*
X137754342Y-139252856D01*
X137754342Y-139252856D02*
X137563866Y-139300475D01*
X137563866Y-139300475D02*
X137325771Y-139300475D01*
X137325771Y-139300475D02*
X137135295Y-139252856D01*
X137135295Y-139252856D02*
X137040057Y-139205237D01*
X137040057Y-139205237D02*
X136992438Y-139157618D01*
X136992438Y-139157618D02*
X136944819Y-139062380D01*
X137278152Y-137871904D02*
X137944819Y-137871904D01*
X137278152Y-138300475D02*
X137801961Y-138300475D01*
X137801961Y-138300475D02*
X137897200Y-138252856D01*
X137897200Y-138252856D02*
X137944819Y-138157618D01*
X137944819Y-138157618D02*
X137944819Y-138014761D01*
X137944819Y-138014761D02*
X137897200Y-137919523D01*
X137897200Y-137919523D02*
X137849580Y-137871904D01*
X137421009Y-137062380D02*
X137421009Y-137395713D01*
X137944819Y-137395713D02*
X136944819Y-137395713D01*
X136944819Y-137395713D02*
X136944819Y-136919523D01*
D11*
X139349530Y-138931428D02*
X139373340Y-138955237D01*
X139373340Y-138955237D02*
X139397149Y-139026666D01*
X139397149Y-139026666D02*
X139397149Y-139074285D01*
X139397149Y-139074285D02*
X139373340Y-139145713D01*
X139373340Y-139145713D02*
X139325720Y-139193332D01*
X139325720Y-139193332D02*
X139278101Y-139217142D01*
X139278101Y-139217142D02*
X139182863Y-139240951D01*
X139182863Y-139240951D02*
X139111435Y-139240951D01*
X139111435Y-139240951D02*
X139016197Y-139217142D01*
X139016197Y-139217142D02*
X138968578Y-139193332D01*
X138968578Y-139193332D02*
X138920959Y-139145713D01*
X138920959Y-139145713D02*
X138897149Y-139074285D01*
X138897149Y-139074285D02*
X138897149Y-139026666D01*
X138897149Y-139026666D02*
X138920959Y-138955237D01*
X138920959Y-138955237D02*
X138944768Y-138931428D01*
X139397149Y-138455237D02*
X139397149Y-138740951D01*
X139397149Y-138598094D02*
X138897149Y-138598094D01*
X138897149Y-138598094D02*
X138968578Y-138645713D01*
X138968578Y-138645713D02*
X139016197Y-138693332D01*
X139016197Y-138693332D02*
X139040006Y-138740951D01*
X138944768Y-138264761D02*
X138920959Y-138240952D01*
X138920959Y-138240952D02*
X138897149Y-138193333D01*
X138897149Y-138193333D02*
X138897149Y-138074285D01*
X138897149Y-138074285D02*
X138920959Y-138026666D01*
X138920959Y-138026666D02*
X138944768Y-138002857D01*
X138944768Y-138002857D02*
X138992387Y-137979047D01*
X138992387Y-137979047D02*
X139040006Y-137979047D01*
X139040006Y-137979047D02*
X139111435Y-138002857D01*
X139111435Y-138002857D02*
X139397149Y-138288571D01*
X139397149Y-138288571D02*
X139397149Y-137979047D01*
D10*
X115902381Y-121181009D02*
X116235714Y-121181009D01*
X116378571Y-121704819D02*
X115902381Y-121704819D01*
X115902381Y-121704819D02*
X115902381Y-120704819D01*
X115902381Y-120704819D02*
X116378571Y-120704819D01*
X116759524Y-121657200D02*
X116902381Y-121704819D01*
X116902381Y-121704819D02*
X117140476Y-121704819D01*
X117140476Y-121704819D02*
X117235714Y-121657200D01*
X117235714Y-121657200D02*
X117283333Y-121609580D01*
X117283333Y-121609580D02*
X117330952Y-121514342D01*
X117330952Y-121514342D02*
X117330952Y-121419104D01*
X117330952Y-121419104D02*
X117283333Y-121323866D01*
X117283333Y-121323866D02*
X117235714Y-121276247D01*
X117235714Y-121276247D02*
X117140476Y-121228628D01*
X117140476Y-121228628D02*
X116950000Y-121181009D01*
X116950000Y-121181009D02*
X116854762Y-121133390D01*
X116854762Y-121133390D02*
X116807143Y-121085771D01*
X116807143Y-121085771D02*
X116759524Y-120990533D01*
X116759524Y-120990533D02*
X116759524Y-120895295D01*
X116759524Y-120895295D02*
X116807143Y-120800057D01*
X116807143Y-120800057D02*
X116854762Y-120752438D01*
X116854762Y-120752438D02*
X116950000Y-120704819D01*
X116950000Y-120704819D02*
X117188095Y-120704819D01*
X117188095Y-120704819D02*
X117330952Y-120752438D01*
X117759524Y-121704819D02*
X117759524Y-120704819D01*
X117759524Y-120704819D02*
X118140476Y-120704819D01*
X118140476Y-120704819D02*
X118235714Y-120752438D01*
X118235714Y-120752438D02*
X118283333Y-120800057D01*
X118283333Y-120800057D02*
X118330952Y-120895295D01*
X118330952Y-120895295D02*
X118330952Y-121038152D01*
X118330952Y-121038152D02*
X118283333Y-121133390D01*
X118283333Y-121133390D02*
X118235714Y-121181009D01*
X118235714Y-121181009D02*
X118140476Y-121228628D01*
X118140476Y-121228628D02*
X117759524Y-121228628D01*
X118664286Y-120704819D02*
X119283333Y-120704819D01*
X119283333Y-120704819D02*
X118950000Y-121085771D01*
X118950000Y-121085771D02*
X119092857Y-121085771D01*
X119092857Y-121085771D02*
X119188095Y-121133390D01*
X119188095Y-121133390D02*
X119235714Y-121181009D01*
X119235714Y-121181009D02*
X119283333Y-121276247D01*
X119283333Y-121276247D02*
X119283333Y-121514342D01*
X119283333Y-121514342D02*
X119235714Y-121609580D01*
X119235714Y-121609580D02*
X119188095Y-121657200D01*
X119188095Y-121657200D02*
X119092857Y-121704819D01*
X119092857Y-121704819D02*
X118807143Y-121704819D01*
X118807143Y-121704819D02*
X118711905Y-121657200D01*
X118711905Y-121657200D02*
X118664286Y-121609580D01*
X119664286Y-120800057D02*
X119711905Y-120752438D01*
X119711905Y-120752438D02*
X119807143Y-120704819D01*
X119807143Y-120704819D02*
X120045238Y-120704819D01*
X120045238Y-120704819D02*
X120140476Y-120752438D01*
X120140476Y-120752438D02*
X120188095Y-120800057D01*
X120188095Y-120800057D02*
X120235714Y-120895295D01*
X120235714Y-120895295D02*
X120235714Y-120990533D01*
X120235714Y-120990533D02*
X120188095Y-121133390D01*
X120188095Y-121133390D02*
X119616667Y-121704819D01*
X119616667Y-121704819D02*
X120235714Y-121704819D01*
X120664286Y-121323866D02*
X121426191Y-121323866D01*
X121807143Y-120704819D02*
X122045238Y-121704819D01*
X122045238Y-121704819D02*
X122235714Y-120990533D01*
X122235714Y-120990533D02*
X122426190Y-121704819D01*
X122426190Y-121704819D02*
X122664286Y-120704819D01*
X123616666Y-121704819D02*
X123283333Y-121228628D01*
X123045238Y-121704819D02*
X123045238Y-120704819D01*
X123045238Y-120704819D02*
X123426190Y-120704819D01*
X123426190Y-120704819D02*
X123521428Y-120752438D01*
X123521428Y-120752438D02*
X123569047Y-120800057D01*
X123569047Y-120800057D02*
X123616666Y-120895295D01*
X123616666Y-120895295D02*
X123616666Y-121038152D01*
X123616666Y-121038152D02*
X123569047Y-121133390D01*
X123569047Y-121133390D02*
X123521428Y-121181009D01*
X123521428Y-121181009D02*
X123426190Y-121228628D01*
X123426190Y-121228628D02*
X123045238Y-121228628D01*
X124235714Y-120704819D02*
X124426190Y-120704819D01*
X124426190Y-120704819D02*
X124521428Y-120752438D01*
X124521428Y-120752438D02*
X124616666Y-120847676D01*
X124616666Y-120847676D02*
X124664285Y-121038152D01*
X124664285Y-121038152D02*
X124664285Y-121371485D01*
X124664285Y-121371485D02*
X124616666Y-121561961D01*
X124616666Y-121561961D02*
X124521428Y-121657200D01*
X124521428Y-121657200D02*
X124426190Y-121704819D01*
X124426190Y-121704819D02*
X124235714Y-121704819D01*
X124235714Y-121704819D02*
X124140476Y-121657200D01*
X124140476Y-121657200D02*
X124045238Y-121561961D01*
X124045238Y-121561961D02*
X123997619Y-121371485D01*
X123997619Y-121371485D02*
X123997619Y-121038152D01*
X123997619Y-121038152D02*
X124045238Y-120847676D01*
X124045238Y-120847676D02*
X124140476Y-120752438D01*
X124140476Y-120752438D02*
X124235714Y-120704819D01*
X125283333Y-120704819D02*
X125473809Y-120704819D01*
X125473809Y-120704819D02*
X125569047Y-120752438D01*
X125569047Y-120752438D02*
X125664285Y-120847676D01*
X125664285Y-120847676D02*
X125711904Y-121038152D01*
X125711904Y-121038152D02*
X125711904Y-121371485D01*
X125711904Y-121371485D02*
X125664285Y-121561961D01*
X125664285Y-121561961D02*
X125569047Y-121657200D01*
X125569047Y-121657200D02*
X125473809Y-121704819D01*
X125473809Y-121704819D02*
X125283333Y-121704819D01*
X125283333Y-121704819D02*
X125188095Y-121657200D01*
X125188095Y-121657200D02*
X125092857Y-121561961D01*
X125092857Y-121561961D02*
X125045238Y-121371485D01*
X125045238Y-121371485D02*
X125045238Y-121038152D01*
X125045238Y-121038152D02*
X125092857Y-120847676D01*
X125092857Y-120847676D02*
X125188095Y-120752438D01*
X125188095Y-120752438D02*
X125283333Y-120704819D01*
X126140476Y-121704819D02*
X126140476Y-120704819D01*
X126140476Y-120704819D02*
X126473809Y-121419104D01*
X126473809Y-121419104D02*
X126807142Y-120704819D01*
X126807142Y-120704819D02*
X126807142Y-121704819D01*
X127283333Y-121323866D02*
X128045238Y-121323866D01*
X128426190Y-120704819D02*
X129045237Y-120704819D01*
X129045237Y-120704819D02*
X128711904Y-121085771D01*
X128711904Y-121085771D02*
X128854761Y-121085771D01*
X128854761Y-121085771D02*
X128949999Y-121133390D01*
X128949999Y-121133390D02*
X128997618Y-121181009D01*
X128997618Y-121181009D02*
X129045237Y-121276247D01*
X129045237Y-121276247D02*
X129045237Y-121514342D01*
X129045237Y-121514342D02*
X128997618Y-121609580D01*
X128997618Y-121609580D02*
X128949999Y-121657200D01*
X128949999Y-121657200D02*
X128854761Y-121704819D01*
X128854761Y-121704819D02*
X128569047Y-121704819D01*
X128569047Y-121704819D02*
X128473809Y-121657200D01*
X128473809Y-121657200D02*
X128426190Y-121609580D01*
X129426190Y-120800057D02*
X129473809Y-120752438D01*
X129473809Y-120752438D02*
X129569047Y-120704819D01*
X129569047Y-120704819D02*
X129807142Y-120704819D01*
X129807142Y-120704819D02*
X129902380Y-120752438D01*
X129902380Y-120752438D02*
X129949999Y-120800057D01*
X129949999Y-120800057D02*
X129997618Y-120895295D01*
X129997618Y-120895295D02*
X129997618Y-120990533D01*
X129997618Y-120990533D02*
X129949999Y-121133390D01*
X129949999Y-121133390D02*
X129378571Y-121704819D01*
X129378571Y-121704819D02*
X129997618Y-121704819D01*
X130426190Y-120704819D02*
X130426190Y-121514342D01*
X130426190Y-121514342D02*
X130473809Y-121609580D01*
X130473809Y-121609580D02*
X130521428Y-121657200D01*
X130521428Y-121657200D02*
X130616666Y-121704819D01*
X130616666Y-121704819D02*
X130807142Y-121704819D01*
X130807142Y-121704819D02*
X130902380Y-121657200D01*
X130902380Y-121657200D02*
X130949999Y-121609580D01*
X130949999Y-121609580D02*
X130997618Y-121514342D01*
X130997618Y-121514342D02*
X130997618Y-120704819D01*
X122688095Y-132204819D02*
X122688095Y-133014342D01*
X122688095Y-133014342D02*
X122735714Y-133109580D01*
X122735714Y-133109580D02*
X122783333Y-133157200D01*
X122783333Y-133157200D02*
X122878571Y-133204819D01*
X122878571Y-133204819D02*
X123069047Y-133204819D01*
X123069047Y-133204819D02*
X123164285Y-133157200D01*
X123164285Y-133157200D02*
X123211904Y-133109580D01*
X123211904Y-133109580D02*
X123259523Y-133014342D01*
X123259523Y-133014342D02*
X123259523Y-132204819D01*
X124259523Y-133204819D02*
X123688095Y-133204819D01*
X123973809Y-133204819D02*
X123973809Y-132204819D01*
X123973809Y-132204819D02*
X123878571Y-132347676D01*
X123878571Y-132347676D02*
X123783333Y-132442914D01*
X123783333Y-132442914D02*
X123688095Y-132490533D01*
X154999104Y-149356666D02*
X154999104Y-148880476D01*
X155284819Y-149451904D02*
X154284819Y-149118571D01*
X154284819Y-149118571D02*
X155284819Y-148785238D01*
X155237200Y-148023333D02*
X155284819Y-148118571D01*
X155284819Y-148118571D02*
X155284819Y-148309047D01*
X155284819Y-148309047D02*
X155237200Y-148404285D01*
X155237200Y-148404285D02*
X155189580Y-148451904D01*
X155189580Y-148451904D02*
X155094342Y-148499523D01*
X155094342Y-148499523D02*
X154808628Y-148499523D01*
X154808628Y-148499523D02*
X154713390Y-148451904D01*
X154713390Y-148451904D02*
X154665771Y-148404285D01*
X154665771Y-148404285D02*
X154618152Y-148309047D01*
X154618152Y-148309047D02*
X154618152Y-148118571D01*
X154618152Y-148118571D02*
X154665771Y-148023333D01*
X155284819Y-147451904D02*
X155237200Y-147547142D01*
X155237200Y-147547142D02*
X155189580Y-147594761D01*
X155189580Y-147594761D02*
X155094342Y-147642380D01*
X155094342Y-147642380D02*
X154808628Y-147642380D01*
X154808628Y-147642380D02*
X154713390Y-147594761D01*
X154713390Y-147594761D02*
X154665771Y-147547142D01*
X154665771Y-147547142D02*
X154618152Y-147451904D01*
X154618152Y-147451904D02*
X154618152Y-147309047D01*
X154618152Y-147309047D02*
X154665771Y-147213809D01*
X154665771Y-147213809D02*
X154713390Y-147166190D01*
X154713390Y-147166190D02*
X154808628Y-147118571D01*
X154808628Y-147118571D02*
X155094342Y-147118571D01*
X155094342Y-147118571D02*
X155189580Y-147166190D01*
X155189580Y-147166190D02*
X155237200Y-147213809D01*
X155237200Y-147213809D02*
X155284819Y-147309047D01*
X155284819Y-147309047D02*
X155284819Y-147451904D01*
X154618152Y-146689999D02*
X155284819Y-146689999D01*
X154713390Y-146689999D02*
X154665771Y-146642380D01*
X154665771Y-146642380D02*
X154618152Y-146547142D01*
X154618152Y-146547142D02*
X154618152Y-146404285D01*
X154618152Y-146404285D02*
X154665771Y-146309047D01*
X154665771Y-146309047D02*
X154761009Y-146261428D01*
X154761009Y-146261428D02*
X155284819Y-146261428D01*
X155284819Y-145356666D02*
X154284819Y-145356666D01*
X155237200Y-145356666D02*
X155284819Y-145451904D01*
X155284819Y-145451904D02*
X155284819Y-145642380D01*
X155284819Y-145642380D02*
X155237200Y-145737618D01*
X155237200Y-145737618D02*
X155189580Y-145785237D01*
X155189580Y-145785237D02*
X155094342Y-145832856D01*
X155094342Y-145832856D02*
X154808628Y-145832856D01*
X154808628Y-145832856D02*
X154713390Y-145785237D01*
X154713390Y-145785237D02*
X154665771Y-145737618D01*
X154665771Y-145737618D02*
X154618152Y-145642380D01*
X154618152Y-145642380D02*
X154618152Y-145451904D01*
X154618152Y-145451904D02*
X154665771Y-145356666D01*
X155284819Y-144880475D02*
X154618152Y-144880475D01*
X154284819Y-144880475D02*
X154332438Y-144928094D01*
X154332438Y-144928094D02*
X154380057Y-144880475D01*
X154380057Y-144880475D02*
X154332438Y-144832856D01*
X154332438Y-144832856D02*
X154284819Y-144880475D01*
X154284819Y-144880475D02*
X154380057Y-144880475D01*
X155237200Y-143975714D02*
X155284819Y-144070952D01*
X155284819Y-144070952D02*
X155284819Y-144261428D01*
X155284819Y-144261428D02*
X155237200Y-144356666D01*
X155237200Y-144356666D02*
X155189580Y-144404285D01*
X155189580Y-144404285D02*
X155094342Y-144451904D01*
X155094342Y-144451904D02*
X154808628Y-144451904D01*
X154808628Y-144451904D02*
X154713390Y-144404285D01*
X154713390Y-144404285D02*
X154665771Y-144356666D01*
X154665771Y-144356666D02*
X154618152Y-144261428D01*
X154618152Y-144261428D02*
X154618152Y-144070952D01*
X154618152Y-144070952D02*
X154665771Y-143975714D01*
X155284819Y-143547142D02*
X154618152Y-143547142D01*
X154284819Y-143547142D02*
X154332438Y-143594761D01*
X154332438Y-143594761D02*
X154380057Y-143547142D01*
X154380057Y-143547142D02*
X154332438Y-143499523D01*
X154332438Y-143499523D02*
X154284819Y-143547142D01*
X154284819Y-143547142D02*
X154380057Y-143547142D01*
X155284819Y-142928095D02*
X155237200Y-143023333D01*
X155237200Y-143023333D02*
X155189580Y-143070952D01*
X155189580Y-143070952D02*
X155094342Y-143118571D01*
X155094342Y-143118571D02*
X154808628Y-143118571D01*
X154808628Y-143118571D02*
X154713390Y-143070952D01*
X154713390Y-143070952D02*
X154665771Y-143023333D01*
X154665771Y-143023333D02*
X154618152Y-142928095D01*
X154618152Y-142928095D02*
X154618152Y-142785238D01*
X154618152Y-142785238D02*
X154665771Y-142690000D01*
X154665771Y-142690000D02*
X154713390Y-142642381D01*
X154713390Y-142642381D02*
X154808628Y-142594762D01*
X154808628Y-142594762D02*
X155094342Y-142594762D01*
X155094342Y-142594762D02*
X155189580Y-142642381D01*
X155189580Y-142642381D02*
X155237200Y-142690000D01*
X155237200Y-142690000D02*
X155284819Y-142785238D01*
X155284819Y-142785238D02*
X155284819Y-142928095D01*
X154618152Y-142166190D02*
X155284819Y-142166190D01*
X154713390Y-142166190D02*
X154665771Y-142118571D01*
X154665771Y-142118571D02*
X154618152Y-142023333D01*
X154618152Y-142023333D02*
X154618152Y-141880476D01*
X154618152Y-141880476D02*
X154665771Y-141785238D01*
X154665771Y-141785238D02*
X154761009Y-141737619D01*
X154761009Y-141737619D02*
X155284819Y-141737619D01*
X155284819Y-140832857D02*
X154761009Y-140832857D01*
X154761009Y-140832857D02*
X154665771Y-140880476D01*
X154665771Y-140880476D02*
X154618152Y-140975714D01*
X154618152Y-140975714D02*
X154618152Y-141166190D01*
X154618152Y-141166190D02*
X154665771Y-141261428D01*
X155237200Y-140832857D02*
X155284819Y-140928095D01*
X155284819Y-140928095D02*
X155284819Y-141166190D01*
X155284819Y-141166190D02*
X155237200Y-141261428D01*
X155237200Y-141261428D02*
X155141961Y-141309047D01*
X155141961Y-141309047D02*
X155046723Y-141309047D01*
X155046723Y-141309047D02*
X154951485Y-141261428D01*
X154951485Y-141261428D02*
X154903866Y-141166190D01*
X154903866Y-141166190D02*
X154903866Y-140928095D01*
X154903866Y-140928095D02*
X154856247Y-140832857D01*
X155284819Y-140356666D02*
X154618152Y-140356666D01*
X154713390Y-140356666D02*
X154665771Y-140309047D01*
X154665771Y-140309047D02*
X154618152Y-140213809D01*
X154618152Y-140213809D02*
X154618152Y-140070952D01*
X154618152Y-140070952D02*
X154665771Y-139975714D01*
X154665771Y-139975714D02*
X154761009Y-139928095D01*
X154761009Y-139928095D02*
X155284819Y-139928095D01*
X154761009Y-139928095D02*
X154665771Y-139880476D01*
X154665771Y-139880476D02*
X154618152Y-139785238D01*
X154618152Y-139785238D02*
X154618152Y-139642381D01*
X154618152Y-139642381D02*
X154665771Y-139547142D01*
X154665771Y-139547142D02*
X154761009Y-139499523D01*
X154761009Y-139499523D02*
X155284819Y-139499523D01*
X155284819Y-139023333D02*
X154618152Y-139023333D01*
X154284819Y-139023333D02*
X154332438Y-139070952D01*
X154332438Y-139070952D02*
X154380057Y-139023333D01*
X154380057Y-139023333D02*
X154332438Y-138975714D01*
X154332438Y-138975714D02*
X154284819Y-139023333D01*
X154284819Y-139023333D02*
X154380057Y-139023333D01*
X155237200Y-138166191D02*
X155284819Y-138261429D01*
X155284819Y-138261429D02*
X155284819Y-138451905D01*
X155284819Y-138451905D02*
X155237200Y-138547143D01*
X155237200Y-138547143D02*
X155141961Y-138594762D01*
X155141961Y-138594762D02*
X154761009Y-138594762D01*
X154761009Y-138594762D02*
X154665771Y-138547143D01*
X154665771Y-138547143D02*
X154618152Y-138451905D01*
X154618152Y-138451905D02*
X154618152Y-138261429D01*
X154618152Y-138261429D02*
X154665771Y-138166191D01*
X154665771Y-138166191D02*
X154761009Y-138118572D01*
X154761009Y-138118572D02*
X154856247Y-138118572D01*
X154856247Y-138118572D02*
X154951485Y-138594762D01*
X154618152Y-137690000D02*
X155284819Y-137690000D01*
X154713390Y-137690000D02*
X154665771Y-137642381D01*
X154665771Y-137642381D02*
X154618152Y-137547143D01*
X154618152Y-137547143D02*
X154618152Y-137404286D01*
X154618152Y-137404286D02*
X154665771Y-137309048D01*
X154665771Y-137309048D02*
X154761009Y-137261429D01*
X154761009Y-137261429D02*
X155284819Y-137261429D01*
X154618152Y-136928095D02*
X154618152Y-136547143D01*
X154284819Y-136785238D02*
X155141961Y-136785238D01*
X155141961Y-136785238D02*
X155237200Y-136737619D01*
X155237200Y-136737619D02*
X155284819Y-136642381D01*
X155284819Y-136642381D02*
X155284819Y-136547143D01*
X155284819Y-136070952D02*
X155237200Y-136166190D01*
X155237200Y-136166190D02*
X155189580Y-136213809D01*
X155189580Y-136213809D02*
X155094342Y-136261428D01*
X155094342Y-136261428D02*
X154808628Y-136261428D01*
X154808628Y-136261428D02*
X154713390Y-136213809D01*
X154713390Y-136213809D02*
X154665771Y-136166190D01*
X154665771Y-136166190D02*
X154618152Y-136070952D01*
X154618152Y-136070952D02*
X154618152Y-135928095D01*
X154618152Y-135928095D02*
X154665771Y-135832857D01*
X154665771Y-135832857D02*
X154713390Y-135785238D01*
X154713390Y-135785238D02*
X154808628Y-135737619D01*
X154808628Y-135737619D02*
X155094342Y-135737619D01*
X155094342Y-135737619D02*
X155189580Y-135785238D01*
X155189580Y-135785238D02*
X155237200Y-135832857D01*
X155237200Y-135832857D02*
X155284819Y-135928095D01*
X155284819Y-135928095D02*
X155284819Y-136070952D01*
X154380057Y-134594761D02*
X154332438Y-134547142D01*
X154332438Y-134547142D02*
X154284819Y-134451904D01*
X154284819Y-134451904D02*
X154284819Y-134213809D01*
X154284819Y-134213809D02*
X154332438Y-134118571D01*
X154332438Y-134118571D02*
X154380057Y-134070952D01*
X154380057Y-134070952D02*
X154475295Y-134023333D01*
X154475295Y-134023333D02*
X154570533Y-134023333D01*
X154570533Y-134023333D02*
X154713390Y-134070952D01*
X154713390Y-134070952D02*
X155284819Y-134642380D01*
X155284819Y-134642380D02*
X155284819Y-134023333D01*
X146560476Y-141144819D02*
X146560476Y-141859104D01*
X146560476Y-141859104D02*
X146512857Y-142001961D01*
X146512857Y-142001961D02*
X146417619Y-142097200D01*
X146417619Y-142097200D02*
X146274762Y-142144819D01*
X146274762Y-142144819D02*
X146179524Y-142144819D01*
X147560476Y-142144819D02*
X146989048Y-142144819D01*
X147274762Y-142144819D02*
X147274762Y-141144819D01*
X147274762Y-141144819D02*
X147179524Y-141287676D01*
X147179524Y-141287676D02*
X147084286Y-141382914D01*
X147084286Y-141382914D02*
X146989048Y-141430533D01*
X148179524Y-141144819D02*
X148274762Y-141144819D01*
X148274762Y-141144819D02*
X148370000Y-141192438D01*
X148370000Y-141192438D02*
X148417619Y-141240057D01*
X148417619Y-141240057D02*
X148465238Y-141335295D01*
X148465238Y-141335295D02*
X148512857Y-141525771D01*
X148512857Y-141525771D02*
X148512857Y-141763866D01*
X148512857Y-141763866D02*
X148465238Y-141954342D01*
X148465238Y-141954342D02*
X148417619Y-142049580D01*
X148417619Y-142049580D02*
X148370000Y-142097200D01*
X148370000Y-142097200D02*
X148274762Y-142144819D01*
X148274762Y-142144819D02*
X148179524Y-142144819D01*
X148179524Y-142144819D02*
X148084286Y-142097200D01*
X148084286Y-142097200D02*
X148036667Y-142049580D01*
X148036667Y-142049580D02*
X147989048Y-141954342D01*
X147989048Y-141954342D02*
X147941429Y-141763866D01*
X147941429Y-141763866D02*
X147941429Y-141525771D01*
X147941429Y-141525771D02*
X147989048Y-141335295D01*
X147989048Y-141335295D02*
X148036667Y-141240057D01*
X148036667Y-141240057D02*
X148084286Y-141192438D01*
X148084286Y-141192438D02*
X148179524Y-141144819D01*
X105730057Y-134980475D02*
X105682438Y-134932856D01*
X105682438Y-134932856D02*
X105634819Y-134837618D01*
X105634819Y-134837618D02*
X105634819Y-134599523D01*
X105634819Y-134599523D02*
X105682438Y-134504285D01*
X105682438Y-134504285D02*
X105730057Y-134456666D01*
X105730057Y-134456666D02*
X105825295Y-134409047D01*
X105825295Y-134409047D02*
X105920533Y-134409047D01*
X105920533Y-134409047D02*
X106063390Y-134456666D01*
X106063390Y-134456666D02*
X106634819Y-135028094D01*
X106634819Y-135028094D02*
X106634819Y-134409047D01*
X106634819Y-133980475D02*
X105634819Y-133980475D01*
X106253866Y-133885237D02*
X106634819Y-133599523D01*
X105968152Y-133599523D02*
X106349104Y-133980475D01*
D11*
X108057149Y-134373333D02*
X107819054Y-134539999D01*
X108057149Y-134659047D02*
X107557149Y-134659047D01*
X107557149Y-134659047D02*
X107557149Y-134468571D01*
X107557149Y-134468571D02*
X107580959Y-134420952D01*
X107580959Y-134420952D02*
X107604768Y-134397142D01*
X107604768Y-134397142D02*
X107652387Y-134373333D01*
X107652387Y-134373333D02*
X107723816Y-134373333D01*
X107723816Y-134373333D02*
X107771435Y-134397142D01*
X107771435Y-134397142D02*
X107795244Y-134420952D01*
X107795244Y-134420952D02*
X107819054Y-134468571D01*
X107819054Y-134468571D02*
X107819054Y-134659047D01*
X107771435Y-134087618D02*
X107747625Y-134135237D01*
X107747625Y-134135237D02*
X107723816Y-134159047D01*
X107723816Y-134159047D02*
X107676197Y-134182856D01*
X107676197Y-134182856D02*
X107652387Y-134182856D01*
X107652387Y-134182856D02*
X107604768Y-134159047D01*
X107604768Y-134159047D02*
X107580959Y-134135237D01*
X107580959Y-134135237D02*
X107557149Y-134087618D01*
X107557149Y-134087618D02*
X107557149Y-133992380D01*
X107557149Y-133992380D02*
X107580959Y-133944761D01*
X107580959Y-133944761D02*
X107604768Y-133920952D01*
X107604768Y-133920952D02*
X107652387Y-133897142D01*
X107652387Y-133897142D02*
X107676197Y-133897142D01*
X107676197Y-133897142D02*
X107723816Y-133920952D01*
X107723816Y-133920952D02*
X107747625Y-133944761D01*
X107747625Y-133944761D02*
X107771435Y-133992380D01*
X107771435Y-133992380D02*
X107771435Y-134087618D01*
X107771435Y-134087618D02*
X107795244Y-134135237D01*
X107795244Y-134135237D02*
X107819054Y-134159047D01*
X107819054Y-134159047D02*
X107866673Y-134182856D01*
X107866673Y-134182856D02*
X107961911Y-134182856D01*
X107961911Y-134182856D02*
X108009530Y-134159047D01*
X108009530Y-134159047D02*
X108033340Y-134135237D01*
X108033340Y-134135237D02*
X108057149Y-134087618D01*
X108057149Y-134087618D02*
X108057149Y-133992380D01*
X108057149Y-133992380D02*
X108033340Y-133944761D01*
X108033340Y-133944761D02*
X108009530Y-133920952D01*
X108009530Y-133920952D02*
X107961911Y-133897142D01*
X107961911Y-133897142D02*
X107866673Y-133897142D01*
X107866673Y-133897142D02*
X107819054Y-133920952D01*
X107819054Y-133920952D02*
X107795244Y-133944761D01*
X107795244Y-133944761D02*
X107771435Y-133992380D01*
D10*
X142642262Y-118240057D02*
X142689881Y-118192438D01*
X142689881Y-118192438D02*
X142785119Y-118144819D01*
X142785119Y-118144819D02*
X143023214Y-118144819D01*
X143023214Y-118144819D02*
X143118452Y-118192438D01*
X143118452Y-118192438D02*
X143166071Y-118240057D01*
X143166071Y-118240057D02*
X143213690Y-118335295D01*
X143213690Y-118335295D02*
X143213690Y-118430533D01*
X143213690Y-118430533D02*
X143166071Y-118573390D01*
X143166071Y-118573390D02*
X142594643Y-119144819D01*
X142594643Y-119144819D02*
X143213690Y-119144819D01*
X143832738Y-118144819D02*
X143927976Y-118144819D01*
X143927976Y-118144819D02*
X144023214Y-118192438D01*
X144023214Y-118192438D02*
X144070833Y-118240057D01*
X144070833Y-118240057D02*
X144118452Y-118335295D01*
X144118452Y-118335295D02*
X144166071Y-118525771D01*
X144166071Y-118525771D02*
X144166071Y-118763866D01*
X144166071Y-118763866D02*
X144118452Y-118954342D01*
X144118452Y-118954342D02*
X144070833Y-119049580D01*
X144070833Y-119049580D02*
X144023214Y-119097200D01*
X144023214Y-119097200D02*
X143927976Y-119144819D01*
X143927976Y-119144819D02*
X143832738Y-119144819D01*
X143832738Y-119144819D02*
X143737500Y-119097200D01*
X143737500Y-119097200D02*
X143689881Y-119049580D01*
X143689881Y-119049580D02*
X143642262Y-118954342D01*
X143642262Y-118954342D02*
X143594643Y-118763866D01*
X143594643Y-118763866D02*
X143594643Y-118525771D01*
X143594643Y-118525771D02*
X143642262Y-118335295D01*
X143642262Y-118335295D02*
X143689881Y-118240057D01*
X143689881Y-118240057D02*
X143737500Y-118192438D01*
X143737500Y-118192438D02*
X143832738Y-118144819D01*
X144594643Y-119144819D02*
X144594643Y-118144819D01*
X144689881Y-118763866D02*
X144975595Y-119144819D01*
X144975595Y-118478152D02*
X144594643Y-118859104D01*
X146689881Y-119144819D02*
X146118453Y-119144819D01*
X146404167Y-119144819D02*
X146404167Y-118144819D01*
X146404167Y-118144819D02*
X146308929Y-118287676D01*
X146308929Y-118287676D02*
X146213691Y-118382914D01*
X146213691Y-118382914D02*
X146118453Y-118430533D01*
X147070834Y-119144819D02*
X147832738Y-118144819D01*
X147213691Y-118144819D02*
X147308929Y-118192438D01*
X147308929Y-118192438D02*
X147356548Y-118287676D01*
X147356548Y-118287676D02*
X147308929Y-118382914D01*
X147308929Y-118382914D02*
X147213691Y-118430533D01*
X147213691Y-118430533D02*
X147118453Y-118382914D01*
X147118453Y-118382914D02*
X147070834Y-118287676D01*
X147070834Y-118287676D02*
X147118453Y-118192438D01*
X147118453Y-118192438D02*
X147213691Y-118144819D01*
X147785119Y-119097200D02*
X147832738Y-119001961D01*
X147832738Y-119001961D02*
X147785119Y-118906723D01*
X147785119Y-118906723D02*
X147689881Y-118859104D01*
X147689881Y-118859104D02*
X147594643Y-118906723D01*
X147594643Y-118906723D02*
X147547024Y-119001961D01*
X147547024Y-119001961D02*
X147594643Y-119097200D01*
X147594643Y-119097200D02*
X147689881Y-119144819D01*
X147689881Y-119144819D02*
X147785119Y-119097200D01*
D11*
X145154166Y-117267149D02*
X144987500Y-117029054D01*
X144868452Y-117267149D02*
X144868452Y-116767149D01*
X144868452Y-116767149D02*
X145058928Y-116767149D01*
X145058928Y-116767149D02*
X145106547Y-116790959D01*
X145106547Y-116790959D02*
X145130357Y-116814768D01*
X145130357Y-116814768D02*
X145154166Y-116862387D01*
X145154166Y-116862387D02*
X145154166Y-116933816D01*
X145154166Y-116933816D02*
X145130357Y-116981435D01*
X145130357Y-116981435D02*
X145106547Y-117005244D01*
X145106547Y-117005244D02*
X145058928Y-117029054D01*
X145058928Y-117029054D02*
X144868452Y-117029054D01*
X145630357Y-117267149D02*
X145344643Y-117267149D01*
X145487500Y-117267149D02*
X145487500Y-116767149D01*
X145487500Y-116767149D02*
X145439881Y-116838578D01*
X145439881Y-116838578D02*
X145392262Y-116886197D01*
X145392262Y-116886197D02*
X145344643Y-116910006D01*
D10*
X95429104Y-124879999D02*
X95429104Y-124403809D01*
X95714819Y-124975237D02*
X94714819Y-124641904D01*
X94714819Y-124641904D02*
X95714819Y-124308571D01*
X95714819Y-123975237D02*
X94714819Y-123975237D01*
X94714819Y-123975237D02*
X95429104Y-123641904D01*
X95429104Y-123641904D02*
X94714819Y-123308571D01*
X94714819Y-123308571D02*
X95714819Y-123308571D01*
X95667200Y-122879999D02*
X95714819Y-122737142D01*
X95714819Y-122737142D02*
X95714819Y-122499047D01*
X95714819Y-122499047D02*
X95667200Y-122403809D01*
X95667200Y-122403809D02*
X95619580Y-122356190D01*
X95619580Y-122356190D02*
X95524342Y-122308571D01*
X95524342Y-122308571D02*
X95429104Y-122308571D01*
X95429104Y-122308571D02*
X95333866Y-122356190D01*
X95333866Y-122356190D02*
X95286247Y-122403809D01*
X95286247Y-122403809D02*
X95238628Y-122499047D01*
X95238628Y-122499047D02*
X95191009Y-122689523D01*
X95191009Y-122689523D02*
X95143390Y-122784761D01*
X95143390Y-122784761D02*
X95095771Y-122832380D01*
X95095771Y-122832380D02*
X95000533Y-122879999D01*
X95000533Y-122879999D02*
X94905295Y-122879999D01*
X94905295Y-122879999D02*
X94810057Y-122832380D01*
X94810057Y-122832380D02*
X94762438Y-122784761D01*
X94762438Y-122784761D02*
X94714819Y-122689523D01*
X94714819Y-122689523D02*
X94714819Y-122451428D01*
X94714819Y-122451428D02*
X94762438Y-122308571D01*
X95714819Y-121356190D02*
X95714819Y-121927618D01*
X95714819Y-121641904D02*
X94714819Y-121641904D01*
X94714819Y-121641904D02*
X94857676Y-121737142D01*
X94857676Y-121737142D02*
X94952914Y-121832380D01*
X94952914Y-121832380D02*
X95000533Y-121927618D01*
X95714819Y-120403809D02*
X95714819Y-120975237D01*
X95714819Y-120689523D02*
X94714819Y-120689523D01*
X94714819Y-120689523D02*
X94857676Y-120784761D01*
X94857676Y-120784761D02*
X94952914Y-120879999D01*
X94952914Y-120879999D02*
X95000533Y-120975237D01*
X95714819Y-119451428D02*
X95714819Y-120022856D01*
X95714819Y-119737142D02*
X94714819Y-119737142D01*
X94714819Y-119737142D02*
X94857676Y-119832380D01*
X94857676Y-119832380D02*
X94952914Y-119927618D01*
X94952914Y-119927618D02*
X95000533Y-120022856D01*
X94714819Y-119118094D02*
X94714819Y-118451428D01*
X94714819Y-118451428D02*
X95714819Y-118879999D01*
X95333866Y-118070475D02*
X95333866Y-117308571D01*
X94714819Y-116927618D02*
X94714819Y-116308571D01*
X94714819Y-116308571D02*
X95095771Y-116641904D01*
X95095771Y-116641904D02*
X95095771Y-116499047D01*
X95095771Y-116499047D02*
X95143390Y-116403809D01*
X95143390Y-116403809D02*
X95191009Y-116356190D01*
X95191009Y-116356190D02*
X95286247Y-116308571D01*
X95286247Y-116308571D02*
X95524342Y-116308571D01*
X95524342Y-116308571D02*
X95619580Y-116356190D01*
X95619580Y-116356190D02*
X95667200Y-116403809D01*
X95667200Y-116403809D02*
X95714819Y-116499047D01*
X95714819Y-116499047D02*
X95714819Y-116784761D01*
X95714819Y-116784761D02*
X95667200Y-116879999D01*
X95667200Y-116879999D02*
X95619580Y-116927618D01*
X95619580Y-115879999D02*
X95667200Y-115832380D01*
X95667200Y-115832380D02*
X95714819Y-115879999D01*
X95714819Y-115879999D02*
X95667200Y-115927618D01*
X95667200Y-115927618D02*
X95619580Y-115879999D01*
X95619580Y-115879999D02*
X95714819Y-115879999D01*
X94714819Y-115499047D02*
X94714819Y-114880000D01*
X94714819Y-114880000D02*
X95095771Y-115213333D01*
X95095771Y-115213333D02*
X95095771Y-115070476D01*
X95095771Y-115070476D02*
X95143390Y-114975238D01*
X95143390Y-114975238D02*
X95191009Y-114927619D01*
X95191009Y-114927619D02*
X95286247Y-114880000D01*
X95286247Y-114880000D02*
X95524342Y-114880000D01*
X95524342Y-114880000D02*
X95619580Y-114927619D01*
X95619580Y-114927619D02*
X95667200Y-114975238D01*
X95667200Y-114975238D02*
X95714819Y-115070476D01*
X95714819Y-115070476D02*
X95714819Y-115356190D01*
X95714819Y-115356190D02*
X95667200Y-115451428D01*
X95667200Y-115451428D02*
X95619580Y-115499047D01*
D13*
X99110476Y-113403855D02*
X99110476Y-114051474D01*
X99110476Y-114051474D02*
X99148571Y-114127664D01*
X99148571Y-114127664D02*
X99186666Y-114165760D01*
X99186666Y-114165760D02*
X99262857Y-114203855D01*
X99262857Y-114203855D02*
X99415238Y-114203855D01*
X99415238Y-114203855D02*
X99491428Y-114165760D01*
X99491428Y-114165760D02*
X99529523Y-114127664D01*
X99529523Y-114127664D02*
X99567619Y-114051474D01*
X99567619Y-114051474D02*
X99567619Y-113403855D01*
X99872380Y-113403855D02*
X100367618Y-113403855D01*
X100367618Y-113403855D02*
X100100952Y-113708617D01*
X100100952Y-113708617D02*
X100215237Y-113708617D01*
X100215237Y-113708617D02*
X100291428Y-113746712D01*
X100291428Y-113746712D02*
X100329523Y-113784807D01*
X100329523Y-113784807D02*
X100367618Y-113860998D01*
X100367618Y-113860998D02*
X100367618Y-114051474D01*
X100367618Y-114051474D02*
X100329523Y-114127664D01*
X100329523Y-114127664D02*
X100291428Y-114165760D01*
X100291428Y-114165760D02*
X100215237Y-114203855D01*
X100215237Y-114203855D02*
X99986666Y-114203855D01*
X99986666Y-114203855D02*
X99910475Y-114165760D01*
X99910475Y-114165760D02*
X99872380Y-114127664D01*
D10*
X104477143Y-130304819D02*
X104572381Y-130304819D01*
X104572381Y-130304819D02*
X104667619Y-130352438D01*
X104667619Y-130352438D02*
X104715238Y-130400057D01*
X104715238Y-130400057D02*
X104762857Y-130495295D01*
X104762857Y-130495295D02*
X104810476Y-130685771D01*
X104810476Y-130685771D02*
X104810476Y-130923866D01*
X104810476Y-130923866D02*
X104762857Y-131114342D01*
X104762857Y-131114342D02*
X104715238Y-131209580D01*
X104715238Y-131209580D02*
X104667619Y-131257200D01*
X104667619Y-131257200D02*
X104572381Y-131304819D01*
X104572381Y-131304819D02*
X104477143Y-131304819D01*
X104477143Y-131304819D02*
X104381905Y-131257200D01*
X104381905Y-131257200D02*
X104334286Y-131209580D01*
X104334286Y-131209580D02*
X104286667Y-131114342D01*
X104286667Y-131114342D02*
X104239048Y-130923866D01*
X104239048Y-130923866D02*
X104239048Y-130685771D01*
X104239048Y-130685771D02*
X104286667Y-130495295D01*
X104286667Y-130495295D02*
X104334286Y-130400057D01*
X104334286Y-130400057D02*
X104381905Y-130352438D01*
X104381905Y-130352438D02*
X104477143Y-130304819D01*
X105239048Y-131209580D02*
X105286667Y-131257200D01*
X105286667Y-131257200D02*
X105239048Y-131304819D01*
X105239048Y-131304819D02*
X105191429Y-131257200D01*
X105191429Y-131257200D02*
X105239048Y-131209580D01*
X105239048Y-131209580D02*
X105239048Y-131304819D01*
X106239047Y-131304819D02*
X105667619Y-131304819D01*
X105953333Y-131304819D02*
X105953333Y-130304819D01*
X105953333Y-130304819D02*
X105858095Y-130447676D01*
X105858095Y-130447676D02*
X105762857Y-130542914D01*
X105762857Y-130542914D02*
X105667619Y-130590533D01*
X107096190Y-130638152D02*
X107096190Y-131304819D01*
X106667619Y-130638152D02*
X106667619Y-131161961D01*
X106667619Y-131161961D02*
X106715238Y-131257200D01*
X106715238Y-131257200D02*
X106810476Y-131304819D01*
X106810476Y-131304819D02*
X106953333Y-131304819D01*
X106953333Y-131304819D02*
X107048571Y-131257200D01*
X107048571Y-131257200D02*
X107096190Y-131209580D01*
X107905714Y-130781009D02*
X107572381Y-130781009D01*
X107572381Y-131304819D02*
X107572381Y-130304819D01*
X107572381Y-130304819D02*
X108048571Y-130304819D01*
D11*
X106036666Y-129349530D02*
X106012857Y-129373340D01*
X106012857Y-129373340D02*
X105941428Y-129397149D01*
X105941428Y-129397149D02*
X105893809Y-129397149D01*
X105893809Y-129397149D02*
X105822381Y-129373340D01*
X105822381Y-129373340D02*
X105774762Y-129325720D01*
X105774762Y-129325720D02*
X105750952Y-129278101D01*
X105750952Y-129278101D02*
X105727143Y-129182863D01*
X105727143Y-129182863D02*
X105727143Y-129111435D01*
X105727143Y-129111435D02*
X105750952Y-129016197D01*
X105750952Y-129016197D02*
X105774762Y-128968578D01*
X105774762Y-128968578D02*
X105822381Y-128920959D01*
X105822381Y-128920959D02*
X105893809Y-128897149D01*
X105893809Y-128897149D02*
X105941428Y-128897149D01*
X105941428Y-128897149D02*
X106012857Y-128920959D01*
X106012857Y-128920959D02*
X106036666Y-128944768D01*
X106203333Y-128897149D02*
X106536666Y-128897149D01*
X106536666Y-128897149D02*
X106322381Y-129397149D01*
D10*
X91338571Y-128474819D02*
X90767143Y-128474819D01*
X91052857Y-128474819D02*
X91052857Y-127474819D01*
X91052857Y-127474819D02*
X90957619Y-127617676D01*
X90957619Y-127617676D02*
X90862381Y-127712914D01*
X90862381Y-127712914D02*
X90767143Y-127760533D01*
X91957619Y-127474819D02*
X92052857Y-127474819D01*
X92052857Y-127474819D02*
X92148095Y-127522438D01*
X92148095Y-127522438D02*
X92195714Y-127570057D01*
X92195714Y-127570057D02*
X92243333Y-127665295D01*
X92243333Y-127665295D02*
X92290952Y-127855771D01*
X92290952Y-127855771D02*
X92290952Y-128093866D01*
X92290952Y-128093866D02*
X92243333Y-128284342D01*
X92243333Y-128284342D02*
X92195714Y-128379580D01*
X92195714Y-128379580D02*
X92148095Y-128427200D01*
X92148095Y-128427200D02*
X92052857Y-128474819D01*
X92052857Y-128474819D02*
X91957619Y-128474819D01*
X91957619Y-128474819D02*
X91862381Y-128427200D01*
X91862381Y-128427200D02*
X91814762Y-128379580D01*
X91814762Y-128379580D02*
X91767143Y-128284342D01*
X91767143Y-128284342D02*
X91719524Y-128093866D01*
X91719524Y-128093866D02*
X91719524Y-127855771D01*
X91719524Y-127855771D02*
X91767143Y-127665295D01*
X91767143Y-127665295D02*
X91814762Y-127570057D01*
X91814762Y-127570057D02*
X91862381Y-127522438D01*
X91862381Y-127522438D02*
X91957619Y-127474819D01*
X93148095Y-127808152D02*
X93148095Y-128474819D01*
X92719524Y-127808152D02*
X92719524Y-128331961D01*
X92719524Y-128331961D02*
X92767143Y-128427200D01*
X92767143Y-128427200D02*
X92862381Y-128474819D01*
X92862381Y-128474819D02*
X93005238Y-128474819D01*
X93005238Y-128474819D02*
X93100476Y-128427200D01*
X93100476Y-128427200D02*
X93148095Y-128379580D01*
X93957619Y-127951009D02*
X93624286Y-127951009D01*
X93624286Y-128474819D02*
X93624286Y-127474819D01*
X93624286Y-127474819D02*
X94100476Y-127474819D01*
D11*
X92326666Y-126519530D02*
X92302857Y-126543340D01*
X92302857Y-126543340D02*
X92231428Y-126567149D01*
X92231428Y-126567149D02*
X92183809Y-126567149D01*
X92183809Y-126567149D02*
X92112381Y-126543340D01*
X92112381Y-126543340D02*
X92064762Y-126495720D01*
X92064762Y-126495720D02*
X92040952Y-126448101D01*
X92040952Y-126448101D02*
X92017143Y-126352863D01*
X92017143Y-126352863D02*
X92017143Y-126281435D01*
X92017143Y-126281435D02*
X92040952Y-126186197D01*
X92040952Y-126186197D02*
X92064762Y-126138578D01*
X92064762Y-126138578D02*
X92112381Y-126090959D01*
X92112381Y-126090959D02*
X92183809Y-126067149D01*
X92183809Y-126067149D02*
X92231428Y-126067149D01*
X92231428Y-126067149D02*
X92302857Y-126090959D01*
X92302857Y-126090959D02*
X92326666Y-126114768D01*
X92612381Y-126281435D02*
X92564762Y-126257625D01*
X92564762Y-126257625D02*
X92540952Y-126233816D01*
X92540952Y-126233816D02*
X92517143Y-126186197D01*
X92517143Y-126186197D02*
X92517143Y-126162387D01*
X92517143Y-126162387D02*
X92540952Y-126114768D01*
X92540952Y-126114768D02*
X92564762Y-126090959D01*
X92564762Y-126090959D02*
X92612381Y-126067149D01*
X92612381Y-126067149D02*
X92707619Y-126067149D01*
X92707619Y-126067149D02*
X92755238Y-126090959D01*
X92755238Y-126090959D02*
X92779047Y-126114768D01*
X92779047Y-126114768D02*
X92802857Y-126162387D01*
X92802857Y-126162387D02*
X92802857Y-126186197D01*
X92802857Y-126186197D02*
X92779047Y-126233816D01*
X92779047Y-126233816D02*
X92755238Y-126257625D01*
X92755238Y-126257625D02*
X92707619Y-126281435D01*
X92707619Y-126281435D02*
X92612381Y-126281435D01*
X92612381Y-126281435D02*
X92564762Y-126305244D01*
X92564762Y-126305244D02*
X92540952Y-126329054D01*
X92540952Y-126329054D02*
X92517143Y-126376673D01*
X92517143Y-126376673D02*
X92517143Y-126471911D01*
X92517143Y-126471911D02*
X92540952Y-126519530D01*
X92540952Y-126519530D02*
X92564762Y-126543340D01*
X92564762Y-126543340D02*
X92612381Y-126567149D01*
X92612381Y-126567149D02*
X92707619Y-126567149D01*
X92707619Y-126567149D02*
X92755238Y-126543340D01*
X92755238Y-126543340D02*
X92779047Y-126519530D01*
X92779047Y-126519530D02*
X92802857Y-126471911D01*
X92802857Y-126471911D02*
X92802857Y-126376673D01*
X92802857Y-126376673D02*
X92779047Y-126329054D01*
X92779047Y-126329054D02*
X92755238Y-126305244D01*
X92755238Y-126305244D02*
X92707619Y-126281435D01*
D10*
X146524819Y-113003809D02*
X145524819Y-113003809D01*
X145524819Y-113003809D02*
X145524819Y-112622857D01*
X145524819Y-112622857D02*
X145572438Y-112527619D01*
X145572438Y-112527619D02*
X145620057Y-112480000D01*
X145620057Y-112480000D02*
X145715295Y-112432381D01*
X145715295Y-112432381D02*
X145858152Y-112432381D01*
X145858152Y-112432381D02*
X145953390Y-112480000D01*
X145953390Y-112480000D02*
X146001009Y-112527619D01*
X146001009Y-112527619D02*
X146048628Y-112622857D01*
X146048628Y-112622857D02*
X146048628Y-113003809D01*
X146524819Y-111432381D02*
X146048628Y-111765714D01*
X146524819Y-112003809D02*
X145524819Y-112003809D01*
X145524819Y-112003809D02*
X145524819Y-111622857D01*
X145524819Y-111622857D02*
X145572438Y-111527619D01*
X145572438Y-111527619D02*
X145620057Y-111480000D01*
X145620057Y-111480000D02*
X145715295Y-111432381D01*
X145715295Y-111432381D02*
X145858152Y-111432381D01*
X145858152Y-111432381D02*
X145953390Y-111480000D01*
X145953390Y-111480000D02*
X146001009Y-111527619D01*
X146001009Y-111527619D02*
X146048628Y-111622857D01*
X146048628Y-111622857D02*
X146048628Y-112003809D01*
X145524819Y-110813333D02*
X145524819Y-110622857D01*
X145524819Y-110622857D02*
X145572438Y-110527619D01*
X145572438Y-110527619D02*
X145667676Y-110432381D01*
X145667676Y-110432381D02*
X145858152Y-110384762D01*
X145858152Y-110384762D02*
X146191485Y-110384762D01*
X146191485Y-110384762D02*
X146381961Y-110432381D01*
X146381961Y-110432381D02*
X146477200Y-110527619D01*
X146477200Y-110527619D02*
X146524819Y-110622857D01*
X146524819Y-110622857D02*
X146524819Y-110813333D01*
X146524819Y-110813333D02*
X146477200Y-110908571D01*
X146477200Y-110908571D02*
X146381961Y-111003809D01*
X146381961Y-111003809D02*
X146191485Y-111051428D01*
X146191485Y-111051428D02*
X145858152Y-111051428D01*
X145858152Y-111051428D02*
X145667676Y-111003809D01*
X145667676Y-111003809D02*
X145572438Y-110908571D01*
X145572438Y-110908571D02*
X145524819Y-110813333D01*
X145572438Y-109432381D02*
X145524819Y-109527619D01*
X145524819Y-109527619D02*
X145524819Y-109670476D01*
X145524819Y-109670476D02*
X145572438Y-109813333D01*
X145572438Y-109813333D02*
X145667676Y-109908571D01*
X145667676Y-109908571D02*
X145762914Y-109956190D01*
X145762914Y-109956190D02*
X145953390Y-110003809D01*
X145953390Y-110003809D02*
X146096247Y-110003809D01*
X146096247Y-110003809D02*
X146286723Y-109956190D01*
X146286723Y-109956190D02*
X146381961Y-109908571D01*
X146381961Y-109908571D02*
X146477200Y-109813333D01*
X146477200Y-109813333D02*
X146524819Y-109670476D01*
X146524819Y-109670476D02*
X146524819Y-109575238D01*
X146524819Y-109575238D02*
X146477200Y-109432381D01*
X146477200Y-109432381D02*
X146429580Y-109384762D01*
X146429580Y-109384762D02*
X146096247Y-109384762D01*
X146096247Y-109384762D02*
X146096247Y-109575238D01*
X146524819Y-108384762D02*
X146048628Y-108718095D01*
X146524819Y-108956190D02*
X145524819Y-108956190D01*
X145524819Y-108956190D02*
X145524819Y-108575238D01*
X145524819Y-108575238D02*
X145572438Y-108480000D01*
X145572438Y-108480000D02*
X145620057Y-108432381D01*
X145620057Y-108432381D02*
X145715295Y-108384762D01*
X145715295Y-108384762D02*
X145858152Y-108384762D01*
X145858152Y-108384762D02*
X145953390Y-108432381D01*
X145953390Y-108432381D02*
X146001009Y-108480000D01*
X146001009Y-108480000D02*
X146048628Y-108575238D01*
X146048628Y-108575238D02*
X146048628Y-108956190D01*
X146239104Y-108003809D02*
X146239104Y-107527619D01*
X146524819Y-108099047D02*
X145524819Y-107765714D01*
X145524819Y-107765714D02*
X146524819Y-107432381D01*
X146524819Y-107099047D02*
X145524819Y-107099047D01*
X145524819Y-107099047D02*
X146239104Y-106765714D01*
X146239104Y-106765714D02*
X145524819Y-106432381D01*
X145524819Y-106432381D02*
X146524819Y-106432381D01*
X146239104Y-106003809D02*
X146239104Y-105527619D01*
X146524819Y-106099047D02*
X145524819Y-105765714D01*
X145524819Y-105765714D02*
X146524819Y-105432381D01*
X146524819Y-105099047D02*
X145524819Y-105099047D01*
X145524819Y-105099047D02*
X145524819Y-104860952D01*
X145524819Y-104860952D02*
X145572438Y-104718095D01*
X145572438Y-104718095D02*
X145667676Y-104622857D01*
X145667676Y-104622857D02*
X145762914Y-104575238D01*
X145762914Y-104575238D02*
X145953390Y-104527619D01*
X145953390Y-104527619D02*
X146096247Y-104527619D01*
X146096247Y-104527619D02*
X146286723Y-104575238D01*
X146286723Y-104575238D02*
X146381961Y-104622857D01*
X146381961Y-104622857D02*
X146477200Y-104718095D01*
X146477200Y-104718095D02*
X146524819Y-104860952D01*
X146524819Y-104860952D02*
X146524819Y-105099047D01*
X145524819Y-103908571D02*
X145524819Y-103718095D01*
X145524819Y-103718095D02*
X145572438Y-103622857D01*
X145572438Y-103622857D02*
X145667676Y-103527619D01*
X145667676Y-103527619D02*
X145858152Y-103480000D01*
X145858152Y-103480000D02*
X146191485Y-103480000D01*
X146191485Y-103480000D02*
X146381961Y-103527619D01*
X146381961Y-103527619D02*
X146477200Y-103622857D01*
X146477200Y-103622857D02*
X146524819Y-103718095D01*
X146524819Y-103718095D02*
X146524819Y-103908571D01*
X146524819Y-103908571D02*
X146477200Y-104003809D01*
X146477200Y-104003809D02*
X146381961Y-104099047D01*
X146381961Y-104099047D02*
X146191485Y-104146666D01*
X146191485Y-104146666D02*
X145858152Y-104146666D01*
X145858152Y-104146666D02*
X145667676Y-104099047D01*
X145667676Y-104099047D02*
X145572438Y-104003809D01*
X145572438Y-104003809D02*
X145524819Y-103908571D01*
X146524819Y-102480000D02*
X146048628Y-102813333D01*
X146524819Y-103051428D02*
X145524819Y-103051428D01*
X145524819Y-103051428D02*
X145524819Y-102670476D01*
X145524819Y-102670476D02*
X145572438Y-102575238D01*
X145572438Y-102575238D02*
X145620057Y-102527619D01*
X145620057Y-102527619D02*
X145715295Y-102480000D01*
X145715295Y-102480000D02*
X145858152Y-102480000D01*
X145858152Y-102480000D02*
X145953390Y-102527619D01*
X145953390Y-102527619D02*
X146001009Y-102575238D01*
X146001009Y-102575238D02*
X146048628Y-102670476D01*
X146048628Y-102670476D02*
X146048628Y-103051428D01*
X146620057Y-102289524D02*
X146620057Y-101527619D01*
X146524819Y-100718095D02*
X146048628Y-101051428D01*
X146524819Y-101289523D02*
X145524819Y-101289523D01*
X145524819Y-101289523D02*
X145524819Y-100908571D01*
X145524819Y-100908571D02*
X145572438Y-100813333D01*
X145572438Y-100813333D02*
X145620057Y-100765714D01*
X145620057Y-100765714D02*
X145715295Y-100718095D01*
X145715295Y-100718095D02*
X145858152Y-100718095D01*
X145858152Y-100718095D02*
X145953390Y-100765714D01*
X145953390Y-100765714D02*
X146001009Y-100813333D01*
X146001009Y-100813333D02*
X146048628Y-100908571D01*
X146048628Y-100908571D02*
X146048628Y-101289523D01*
X146477200Y-100337142D02*
X146524819Y-100194285D01*
X146524819Y-100194285D02*
X146524819Y-99956190D01*
X146524819Y-99956190D02*
X146477200Y-99860952D01*
X146477200Y-99860952D02*
X146429580Y-99813333D01*
X146429580Y-99813333D02*
X146334342Y-99765714D01*
X146334342Y-99765714D02*
X146239104Y-99765714D01*
X146239104Y-99765714D02*
X146143866Y-99813333D01*
X146143866Y-99813333D02*
X146096247Y-99860952D01*
X146096247Y-99860952D02*
X146048628Y-99956190D01*
X146048628Y-99956190D02*
X146001009Y-100146666D01*
X146001009Y-100146666D02*
X145953390Y-100241904D01*
X145953390Y-100241904D02*
X145905771Y-100289523D01*
X145905771Y-100289523D02*
X145810533Y-100337142D01*
X145810533Y-100337142D02*
X145715295Y-100337142D01*
X145715295Y-100337142D02*
X145620057Y-100289523D01*
X145620057Y-100289523D02*
X145572438Y-100241904D01*
X145572438Y-100241904D02*
X145524819Y-100146666D01*
X145524819Y-100146666D02*
X145524819Y-99908571D01*
X145524819Y-99908571D02*
X145572438Y-99765714D01*
X146239104Y-99384761D02*
X146239104Y-98908571D01*
X146524819Y-99479999D02*
X145524819Y-99146666D01*
X145524819Y-99146666D02*
X146524819Y-98813333D01*
X132201904Y-105664819D02*
X132201904Y-106379104D01*
X132201904Y-106379104D02*
X132154285Y-106521961D01*
X132154285Y-106521961D02*
X132059047Y-106617200D01*
X132059047Y-106617200D02*
X131916190Y-106664819D01*
X131916190Y-106664819D02*
X131820952Y-106664819D01*
X132440000Y-106760057D02*
X133201904Y-106760057D01*
X133440000Y-106664819D02*
X133440000Y-105664819D01*
X133440000Y-105664819D02*
X133820952Y-105664819D01*
X133820952Y-105664819D02*
X133916190Y-105712438D01*
X133916190Y-105712438D02*
X133963809Y-105760057D01*
X133963809Y-105760057D02*
X134011428Y-105855295D01*
X134011428Y-105855295D02*
X134011428Y-105998152D01*
X134011428Y-105998152D02*
X133963809Y-106093390D01*
X133963809Y-106093390D02*
X133916190Y-106141009D01*
X133916190Y-106141009D02*
X133820952Y-106188628D01*
X133820952Y-106188628D02*
X133440000Y-106188628D01*
X135011428Y-106664819D02*
X134678095Y-106188628D01*
X134440000Y-106664819D02*
X134440000Y-105664819D01*
X134440000Y-105664819D02*
X134820952Y-105664819D01*
X134820952Y-105664819D02*
X134916190Y-105712438D01*
X134916190Y-105712438D02*
X134963809Y-105760057D01*
X134963809Y-105760057D02*
X135011428Y-105855295D01*
X135011428Y-105855295D02*
X135011428Y-105998152D01*
X135011428Y-105998152D02*
X134963809Y-106093390D01*
X134963809Y-106093390D02*
X134916190Y-106141009D01*
X134916190Y-106141009D02*
X134820952Y-106188628D01*
X134820952Y-106188628D02*
X134440000Y-106188628D01*
X135630476Y-105664819D02*
X135820952Y-105664819D01*
X135820952Y-105664819D02*
X135916190Y-105712438D01*
X135916190Y-105712438D02*
X136011428Y-105807676D01*
X136011428Y-105807676D02*
X136059047Y-105998152D01*
X136059047Y-105998152D02*
X136059047Y-106331485D01*
X136059047Y-106331485D02*
X136011428Y-106521961D01*
X136011428Y-106521961D02*
X135916190Y-106617200D01*
X135916190Y-106617200D02*
X135820952Y-106664819D01*
X135820952Y-106664819D02*
X135630476Y-106664819D01*
X135630476Y-106664819D02*
X135535238Y-106617200D01*
X135535238Y-106617200D02*
X135440000Y-106521961D01*
X135440000Y-106521961D02*
X135392381Y-106331485D01*
X135392381Y-106331485D02*
X135392381Y-105998152D01*
X135392381Y-105998152D02*
X135440000Y-105807676D01*
X135440000Y-105807676D02*
X135535238Y-105712438D01*
X135535238Y-105712438D02*
X135630476Y-105664819D01*
X137011428Y-105712438D02*
X136916190Y-105664819D01*
X136916190Y-105664819D02*
X136773333Y-105664819D01*
X136773333Y-105664819D02*
X136630476Y-105712438D01*
X136630476Y-105712438D02*
X136535238Y-105807676D01*
X136535238Y-105807676D02*
X136487619Y-105902914D01*
X136487619Y-105902914D02*
X136440000Y-106093390D01*
X136440000Y-106093390D02*
X136440000Y-106236247D01*
X136440000Y-106236247D02*
X136487619Y-106426723D01*
X136487619Y-106426723D02*
X136535238Y-106521961D01*
X136535238Y-106521961D02*
X136630476Y-106617200D01*
X136630476Y-106617200D02*
X136773333Y-106664819D01*
X136773333Y-106664819D02*
X136868571Y-106664819D01*
X136868571Y-106664819D02*
X137011428Y-106617200D01*
X137011428Y-106617200D02*
X137059047Y-106569580D01*
X137059047Y-106569580D02*
X137059047Y-106236247D01*
X137059047Y-106236247D02*
X136868571Y-106236247D01*
X138011428Y-106664819D02*
X137440000Y-106664819D01*
X137725714Y-106664819D02*
X137725714Y-105664819D01*
X137725714Y-105664819D02*
X137630476Y-105807676D01*
X137630476Y-105807676D02*
X137535238Y-105902914D01*
X137535238Y-105902914D02*
X137440000Y-105950533D01*
%TO.C,C3*%
D14*
X148180000Y-119375000D02*
X150180000Y-119375000D01*
X150180000Y-120625000D01*
X148180000Y-120625000D01*
X148180000Y-119375000D01*
%TO.C,C5*%
X141025000Y-129460000D02*
X142275000Y-129460000D01*
X142275000Y-131460000D01*
X141025000Y-131460000D01*
X141025000Y-129460000D01*
%TO.C,J_DIP40*%
X92710000Y-95695000D02*
X143510000Y-95695000D01*
X92710000Y-109425000D02*
X92710000Y-95695000D01*
X93710000Y-110425000D02*
X92710000Y-109425000D01*
X143510000Y-95695000D02*
X143510000Y-110425000D01*
X143510000Y-110425000D02*
X93710000Y-110425000D01*
%TO.C,R2*%
X148187500Y-116385000D02*
X150187500Y-116385000D01*
X150187500Y-117635000D01*
X148187500Y-117635000D01*
X148187500Y-116385000D01*
%TO.C,R4*%
X152175000Y-129600000D02*
X153425000Y-129600000D01*
X153425000Y-131600000D01*
X152175000Y-131600000D01*
X152175000Y-129600000D01*
%TO.C,R6*%
X138565000Y-129450000D02*
X139815000Y-129450000D01*
X139815000Y-131450000D01*
X138565000Y-131450000D01*
X138565000Y-129450000D01*
%TO.C,R5*%
X146460000Y-133265000D02*
X148460000Y-133265000D01*
X148460000Y-134515000D01*
X146460000Y-134515000D01*
X146460000Y-133265000D01*
%TO.C,J4*%
X89690000Y-83304000D02*
X104295000Y-83304000D01*
X89690000Y-85844000D02*
X89690000Y-83304000D01*
X104295000Y-83304000D02*
X104930000Y-83939000D01*
X104930000Y-83939000D02*
X104930000Y-85844000D01*
X104930000Y-85844000D02*
X89690000Y-85844000D01*
%TO.C,C1*%
X94480000Y-113395000D02*
X96480000Y-113395000D01*
X96480000Y-114645000D01*
X94480000Y-114645000D01*
X94480000Y-113395000D01*
%TO.C,C9*%
X91410000Y-128715000D02*
X93410000Y-128715000D01*
X93410000Y-129965000D01*
X91410000Y-129965000D01*
X91410000Y-128715000D01*
%TO.C,J5*%
X87250000Y-140330000D02*
X107570000Y-140330000D01*
X87250000Y-142235000D02*
X87250000Y-140330000D01*
X87885000Y-142870000D02*
X87250000Y-142235000D01*
X107570000Y-140330000D02*
X107570000Y-142870000D01*
X107570000Y-142870000D02*
X87885000Y-142870000D01*
%TO.C,C2*%
X102480000Y-113395000D02*
X104480000Y-113395000D01*
X104480000Y-114645000D01*
X102480000Y-114645000D01*
X102480000Y-113395000D01*
%TO.C,C11*%
X152535000Y-122670000D02*
X153785000Y-122670000D01*
X153785000Y-124670000D01*
X152535000Y-124670000D01*
X152535000Y-122670000D01*
%TO.C,C10*%
X138575000Y-124860000D02*
X139825000Y-124860000D01*
X139825000Y-126860000D01*
X138575000Y-126860000D01*
X138575000Y-124860000D01*
%TO.C,J2*%
X141000000Y-88490000D02*
X152430000Y-88490000D01*
X141000000Y-93570000D02*
X141000000Y-88490000D01*
X152430000Y-88490000D02*
X153700000Y-89760000D01*
X153700000Y-89760000D02*
X153700000Y-93570000D01*
X153700000Y-93570000D02*
X141000000Y-93570000D01*
%TO.C,C14*%
X141135000Y-124860000D02*
X142385000Y-124860000D01*
X142385000Y-126860000D01*
X141135000Y-126860000D01*
X141135000Y-124860000D01*
%TO.C,U2*%
X146210000Y-122005000D02*
X149135000Y-122005000D01*
X149135000Y-131905000D01*
X145235000Y-131905000D01*
X145235000Y-122980000D01*
X146210000Y-122005000D01*
%TO.C,R7*%
X104885000Y-133290000D02*
X106135000Y-133290000D01*
X106135000Y-135290000D01*
X104885000Y-135290000D01*
X104885000Y-133290000D01*
%TO.C,Q1*%
X140667500Y-116320000D02*
X141642500Y-116320000D01*
X141642500Y-119220000D01*
X140342500Y-119220000D01*
X140342500Y-116645000D01*
X140667500Y-116320000D01*
%TO.C,U4*%
X96685000Y-135815000D02*
X96685000Y-134815000D01*
X96730000Y-125895000D02*
X96730000Y-128595000D01*
X97480000Y-125895000D02*
X96730000Y-125895000D01*
X97480000Y-128595000D02*
X97480000Y-125895000D01*
X99010000Y-125895000D02*
X99010000Y-128595000D01*
X99760000Y-125895000D02*
X99010000Y-125895000D01*
X99760000Y-128595000D02*
X99760000Y-125895000D01*
X101290000Y-125895000D02*
X101290000Y-128595000D01*
X102040000Y-125895000D02*
X101290000Y-125895000D01*
X102040000Y-129000000D02*
X102040000Y-125895000D01*
X102085000Y-134815000D02*
X102085000Y-135815000D01*
X102085000Y-135815000D02*
X96685000Y-135815000D01*
X102635000Y-134815000D02*
X96135000Y-134815000D01*
X96135000Y-128595000D01*
X101635000Y-128595000D01*
X102635000Y-129595000D01*
X102635000Y-134815000D01*
%TO.C,C6*%
X105120000Y-125545000D02*
X107120000Y-125545000D01*
X107120000Y-126795000D01*
X105120000Y-126795000D01*
X105120000Y-125545000D01*
%TO.C,FB1*%
X139927500Y-122440000D02*
X141927500Y-122440000D01*
X141927500Y-123340000D01*
X139927500Y-123340000D01*
X139927500Y-122440000D01*
%TO.C,C4*%
X144470000Y-119335000D02*
X146470000Y-119335000D01*
X146470000Y-120585000D01*
X144470000Y-120585000D01*
X144470000Y-119335000D01*
%TO.C,C13*%
X141435000Y-133860000D02*
X142685000Y-133860000D01*
X142685000Y-135860000D01*
X141435000Y-135860000D01*
X141435000Y-133860000D01*
%TO.C,C12*%
X138545000Y-137610000D02*
X139795000Y-137610000D01*
X139795000Y-139610000D01*
X138545000Y-139610000D01*
X138545000Y-137610000D01*
%TO.C,U1*%
X114450000Y-123150000D02*
X114450000Y-142350000D01*
X131950000Y-141250000D02*
X132450000Y-141750000D01*
X132450000Y-123150000D02*
X114450000Y-123150000D01*
X132450000Y-140750000D02*
X131950000Y-141250000D01*
X132450000Y-140750000D02*
X132450000Y-123150000D01*
X132450000Y-142350000D02*
X114450000Y-142350000D01*
X132450000Y-142350000D02*
X132450000Y-141750000D01*
%TO.C,J10*%
X141020000Y-140420000D02*
X153720000Y-140420000D01*
X141020000Y-142325000D02*
X141020000Y-140420000D01*
X141655000Y-142960000D02*
X141020000Y-142325000D01*
X153720000Y-140420000D02*
X153720000Y-142960000D01*
X153720000Y-142960000D02*
X141655000Y-142960000D01*
%TO.C,R8*%
X107205000Y-133290000D02*
X108455000Y-133290000D01*
X108455000Y-135290000D01*
X107205000Y-135290000D01*
X107205000Y-133290000D01*
%TO.C,R1*%
X144237500Y-116415000D02*
X146237500Y-116415000D01*
X146237500Y-117665000D01*
X144237500Y-117665000D01*
X144237500Y-116415000D01*
%TO.C,U3*%
X96410000Y-118030000D02*
X96410000Y-121730000D01*
X102110000Y-118030000D02*
X96410000Y-118030000D01*
X102110000Y-118030000D02*
X103110000Y-119030000D01*
X103110000Y-119030000D02*
X103110000Y-121730000D01*
X103110000Y-121730000D02*
X96410000Y-121730000D01*
%TO.C,C7*%
X105120000Y-128545000D02*
X107120000Y-128545000D01*
X107120000Y-129795000D01*
X105120000Y-129795000D01*
X105120000Y-128545000D01*
%TO.C,C8*%
X91410000Y-125715000D02*
X93410000Y-125715000D01*
X93410000Y-126965000D01*
X91410000Y-126965000D01*
X91410000Y-125715000D01*
%TO.C,J_PROG1*%
X127320000Y-104940000D02*
X142560000Y-104940000D01*
X127320000Y-106845000D02*
X127320000Y-104940000D01*
X127955000Y-107480000D02*
X127320000Y-106845000D01*
X142560000Y-104940000D02*
X142560000Y-107480000D01*
X142560000Y-107480000D02*
X127955000Y-107480000D01*
%TD*%
M02*
