%TF.GenerationSoftware,KiCad,Pcbnew,10.0.3*%
%TF.CreationDate,2026-09-23T10:30:01-05:00*%
%TF.ProjectId,acople_sp32,61636f70-6c65-45f7-9370-33322e6b6963,rev?*%
%TF.SameCoordinates,Original*%
%TF.FileFunction,Paste,Top*%
%TF.FilePolarity,Positive*%
%FSLAX46Y46*%
G04 Gerber Fmt 4.6, Leading zero omitted, Abs format (unit mm)*
G04 Created by KiCad (PCBNEW 10.0.3) date 2026-09-23 10:30:01*
%MOMM*%
%LPD*%
G01*
G04 APERTURE LIST*
G04 Aperture macros list*
%AMRoundRect*
0 Rectangle with rounded corners*
0 $1 Rounding radius*
0 $2 $3 $4 $5 $6 $7 $8 $9 X,Y pos of 4 corners*
0 Add a 4 corners polygon primitive as box body*
4,1,4,$2,$3,$4,$5,$6,$7,$8,$9,$2,$3,0*
0 Add four circle primitives for the rounded corners*
1,1,$1+$1,$2,$3*
1,1,$1+$1,$4,$5*
1,1,$1+$1,$6,$7*
1,1,$1+$1,$8,$9*
0 Add four rect primitives between the rounded corners*
20,1,$1+$1,$2,$3,$4,$5,0*
20,1,$1+$1,$4,$5,$6,$7,0*
20,1,$1+$1,$6,$7,$8,$9,0*
20,1,$1+$1,$8,$9,$2,$3,0*%
G04 Aperture macros list end*
%ADD10RoundRect,0.250000X-0.250000X-0.475000X0.250000X-0.475000X0.250000X0.475000X-0.250000X0.475000X0*%
%ADD11RoundRect,0.250000X0.475000X-0.250000X0.475000X0.250000X-0.475000X0.250000X-0.475000X-0.250000X0*%
%ADD12RoundRect,0.250000X-0.262500X-0.450000X0.262500X-0.450000X0.262500X0.450000X-0.262500X0.450000X0*%
%ADD13RoundRect,0.250000X0.450000X-0.262500X0.450000X0.262500X-0.450000X0.262500X-0.450000X-0.262500X0*%
%ADD14RoundRect,0.250000X0.262500X0.450000X-0.262500X0.450000X-0.262500X-0.450000X0.262500X-0.450000X0*%
%ADD15RoundRect,0.250000X-0.475000X0.250000X-0.475000X-0.250000X0.475000X-0.250000X0.475000X0.250000X0*%
%ADD16RoundRect,0.150000X-0.825000X-0.150000X0.825000X-0.150000X0.825000X0.150000X-0.825000X0.150000X0*%
%ADD17RoundRect,0.150000X-0.587500X-0.150000X0.587500X-0.150000X0.587500X0.150000X-0.587500X0.150000X0*%
%ADD18RoundRect,0.250000X-1.125000X1.275000X-1.125000X-1.275000X1.125000X-1.275000X1.125000X1.275000X0*%
%ADD19RoundRect,0.250000X-0.350000X0.850000X-0.350000X-0.850000X0.350000X-0.850000X0.350000X0.850000X0*%
%ADD20RoundRect,0.218750X-0.218750X-0.381250X0.218750X-0.381250X0.218750X0.381250X-0.218750X0.381250X0*%
%ADD21R,1.500000X0.900000*%
%ADD22R,0.900000X1.500000*%
%ADD23R,0.900000X0.900000*%
%ADD24RoundRect,0.250000X-0.450000X0.262500X-0.450000X-0.262500X0.450000X-0.262500X0.450000X0.262500X0*%
%ADD25RoundRect,0.375000X-0.375000X0.625000X-0.375000X-0.625000X0.375000X-0.625000X0.375000X0.625000X0*%
%ADD26RoundRect,0.500000X-1.400000X0.500000X-1.400000X-0.500000X1.400000X-0.500000X1.400000X0.500000X0*%
G04 APERTURE END LIST*
D10*
%TO.C,C3*%
X148230000Y-120000000D03*
X150130000Y-120000000D03*
%TD*%
D11*
%TO.C,C5*%
X141650000Y-131410000D03*
X141650000Y-129510000D03*
%TD*%
D12*
%TO.C,R2*%
X148275000Y-117010000D03*
X150100000Y-117010000D03*
%TD*%
D13*
%TO.C,R4*%
X152800000Y-131512500D03*
X152800000Y-129687500D03*
%TD*%
%TO.C,R6*%
X139190000Y-131362500D03*
X139190000Y-129537500D03*
%TD*%
D14*
%TO.C,R5*%
X148372500Y-133890000D03*
X146547500Y-133890000D03*
%TD*%
D10*
%TO.C,C1*%
X94530000Y-114020000D03*
X96430000Y-114020000D03*
%TD*%
%TO.C,C9*%
X91460000Y-129340000D03*
X93360000Y-129340000D03*
%TD*%
%TO.C,C2*%
X102530000Y-114020000D03*
X104430000Y-114020000D03*
%TD*%
D15*
%TO.C,C11*%
X153160000Y-122720000D03*
X153160000Y-124620000D03*
%TD*%
D11*
%TO.C,C10*%
X139200000Y-126810000D03*
X139200000Y-124910000D03*
%TD*%
%TO.C,C14*%
X141760000Y-126810000D03*
X141760000Y-124910000D03*
%TD*%
D16*
%TO.C,U2*%
X144710000Y-122510000D03*
X144710000Y-123780000D03*
X144710000Y-125050000D03*
X144710000Y-126320000D03*
X144710000Y-127590000D03*
X144710000Y-128860000D03*
X144710000Y-130130000D03*
X144710000Y-131400000D03*
X149660000Y-131400000D03*
X149660000Y-130130000D03*
X149660000Y-128860000D03*
X149660000Y-127590000D03*
X149660000Y-126320000D03*
X149660000Y-125050000D03*
X149660000Y-123780000D03*
X149660000Y-122510000D03*
%TD*%
D13*
%TO.C,R7*%
X105510000Y-135202500D03*
X105510000Y-133377500D03*
%TD*%
D17*
%TO.C,Q1*%
X140055000Y-116820000D03*
X140055000Y-118720000D03*
X141930000Y-117770000D03*
%TD*%
D18*
%TO.C,U4*%
X100910000Y-131290000D03*
X97860000Y-131290000D03*
X100910000Y-134640000D03*
X97860000Y-134640000D03*
D19*
X101665000Y-126665000D03*
X99385000Y-126665000D03*
X97105000Y-126665000D03*
%TD*%
D10*
%TO.C,C6*%
X105170000Y-126170000D03*
X107070000Y-126170000D03*
%TD*%
D20*
%TO.C,FB1*%
X139865000Y-122890000D03*
X141990000Y-122890000D03*
%TD*%
D10*
%TO.C,C4*%
X144520000Y-119960000D03*
X146420000Y-119960000D03*
%TD*%
D15*
%TO.C,C13*%
X142060000Y-133910000D03*
X142060000Y-135810000D03*
%TD*%
%TO.C,C12*%
X139170000Y-137660000D03*
X139170000Y-139560000D03*
%TD*%
D21*
%TO.C,U1*%
X132200000Y-141005000D03*
X132200000Y-139735000D03*
X132200000Y-138465000D03*
X132200000Y-137195000D03*
X132200000Y-135925000D03*
X132200000Y-134655000D03*
X132200000Y-133385000D03*
X132200000Y-132115000D03*
X132200000Y-130845000D03*
X132200000Y-129575000D03*
X132200000Y-128305000D03*
X132200000Y-127035000D03*
X132200000Y-125765000D03*
X132200000Y-124495000D03*
D22*
X129165000Y-123400000D03*
X127895000Y-123400000D03*
X126625000Y-123400000D03*
X125355000Y-123400000D03*
X124085000Y-123400000D03*
X122815000Y-123400000D03*
X121545000Y-123400000D03*
X120275000Y-123400000D03*
X119005000Y-123400000D03*
X117735000Y-123400000D03*
D21*
X114700000Y-124495000D03*
X114700000Y-125765000D03*
X114700000Y-127035000D03*
X114700000Y-128305000D03*
X114700000Y-129575000D03*
X114700000Y-130845000D03*
X114700000Y-132115000D03*
X114700000Y-133385000D03*
X114700000Y-134655000D03*
X114700000Y-135925000D03*
X114700000Y-137195000D03*
X114700000Y-138465000D03*
X114700000Y-139735000D03*
X114700000Y-141005000D03*
D23*
X126350000Y-134840000D03*
X126350000Y-133440000D03*
X126350000Y-132040000D03*
X124950000Y-134840000D03*
X124950000Y-133440000D03*
X124950000Y-132040000D03*
X123550000Y-134840000D03*
X123550000Y-133440000D03*
X123550000Y-132040000D03*
%TD*%
D24*
%TO.C,R8*%
X107830000Y-133377500D03*
X107830000Y-135202500D03*
%TD*%
D12*
%TO.C,R1*%
X144325000Y-117040000D03*
X146150000Y-117040000D03*
%TD*%
D25*
%TO.C,U3*%
X102060000Y-116730000D03*
X99760000Y-116730000D03*
D26*
X99760000Y-123030000D03*
D25*
X97460000Y-116730000D03*
%TD*%
D10*
%TO.C,C7*%
X105170000Y-129170000D03*
X107070000Y-129170000D03*
%TD*%
%TO.C,C8*%
X91460000Y-126340000D03*
X93360000Y-126340000D03*
%TD*%
M02*
